<svg width="28" height="28" viewBox="0 0 28 28" fill="none" xmlns="http://www.w3.org/2000/svg">
<circle cx="14" cy="14" r="14" fill="#FBBC05"/>
<path d="M14.9567 21.5964C14.764 21.3274 14.6716 21.0022 14.6793 20.6211C14.687 20.2399 14.7875 19.9148 14.9807 19.6457L17.7014 15.8453H6.96308C6.69021 15.8453 6.46132 15.7161 6.27641 15.4578C6.0915 15.1996 5.99936 14.8803 6 14.5C6 14.1188 6.09246 13.7991 6.27737 13.5408C6.46228 13.2825 6.69085 13.1538 6.96308 13.1547H17.7014L14.9567 9.32063C14.764 9.05157 14.6677 8.73184 14.6677 8.36143C14.6677 7.99103 14.764 7.67175 14.9567 7.40359C15.1493 7.13453 15.3782 7 15.6433 7C15.9085 7 16.1371 7.13453 16.329 7.40359L20.7351 13.5583C20.8314 13.6928 20.8998 13.8386 20.9403 13.9955C20.9807 14.1525 21.0006 14.3206 21 14.5C21 14.6794 20.9798 14.8475 20.9393 15.0045C20.8989 15.1614 20.8308 15.3072 20.7351 15.4417L16.305 21.63C16.1284 21.8767 15.9079 22 15.6433 22C15.3788 22 15.1499 21.8655 14.9567 21.5964Z" fill="white"/>
</svg>
