<svg width="25" height="25" viewBox="0 0 25 25" fill="none" xmlns="http://www.w3.org/2000/svg">
<path d="M13.375 16.625L16.625 13.375C16.8542 13.1458 16.9687 12.8542 16.9687 12.5C16.9687 12.1458 16.8542 11.8542 16.625 11.625L13.3437 8.34375C13.1146 8.11458 12.8279 8.005 12.4837 8.015C12.1396 8.025 11.8533 8.145 11.625 8.375C11.3958 8.60417 11.2812 8.89583 11.2812 9.25C11.2812 9.60417 11.3958 9.89583 11.625 10.125L12.75 11.25H8.71875C8.36458 11.25 8.07292 11.37 7.84375 11.61C7.61458 11.85 7.5 12.1467 7.5 12.5C7.5 12.8542 7.62 13.1512 7.86 13.3912C8.1 13.6312 8.39667 13.7508 8.75 13.75H12.75L11.5937 14.9062C11.3646 15.1354 11.255 15.4221 11.265 15.7662C11.275 16.1104 11.395 16.3967 11.625 16.625C11.8542 16.8542 12.1458 16.9687 12.5 16.9687C12.8542 16.9687 13.1458 16.8542 13.375 16.625ZM12.5 25C10.7708 25 9.14583 24.6717 7.625 24.015C6.10417 23.3583 4.78125 22.4679 3.65625 21.3437C2.53125 20.2187 1.64083 18.8958 0.985 17.375C0.329167 15.8542 0.000833333 14.2292 0 12.5C0 10.7708 0.328333 9.14583 0.985 7.625C1.64167 6.10417 2.53208 4.78125 3.65625 3.65625C4.78125 2.53125 6.10417 1.64083 7.625 0.985C9.14583 0.329167 10.7708 0.000833333 12.5 0C14.2292 0 15.8542 0.328333 17.375 0.985C18.8958 1.64167 20.2187 2.53208 21.3437 3.65625C22.4687 4.78125 23.3596 6.10417 24.0162 7.625C24.6729 9.14583 25.0008 10.7708 25 12.5C25 14.2292 24.6717 15.8542 24.015 17.375C23.3583 18.8958 22.4679 20.2187 21.3437 21.3437C20.2187 22.4687 18.8958 23.3596 17.375 24.0162C15.8542 24.6729 14.2292 25.0008 12.5 25Z" fill="#081956"/>
</svg>
