<svg width="37" height="32" viewBox="0 0 37 32" fill="none" xmlns="http://www.w3.org/2000/svg">
<path d="M19.1398 32.0001V22.7778L16.1544 20.8334L12.7039 22.7778V32.0001H19.1398Z" fill="#081956"/>
<path d="M25.3947 0H7.54736L11.6312 23.0694H31.0035C31.5177 23.0694 32.0107 22.85 32.3743 22.4592C32.7378 22.0685 32.9421 21.5386 32.9421 20.9861V8.11111C32.9291 3.625 29.5561 0 25.3947 0Z" fill="#80C5DD"/>
<path d="M7.54733 0C3.37304 0 0 3.625 0 8.11111V20.9861C0 21.5386 0.204237 22.0685 0.567781 22.4592C0.931325 22.85 1.4244 23.0694 1.93853 23.0694H13.1432C13.6573 23.0694 14.1504 22.85 14.514 22.4592C14.8775 22.0685 15.0817 21.5386 15.0817 20.9861V8.11111C15.0817 3.625 11.7087 0 7.54733 0Z" fill="#3F5FFF"/>
<path d="M7.54734 1.38895C6.72564 1.38785 5.91181 1.56098 5.15246 1.89842C4.39311 2.23585 3.70316 2.73096 3.12213 3.3554C2.5411 3.97983 2.0804 4.72132 1.76642 5.53739C1.45244 6.35347 1.29134 7.22809 1.29236 8.11117V20.9862C1.29236 21.1704 1.36044 21.347 1.48162 21.4772C1.60281 21.6075 1.76716 21.6806 1.93854 21.6806H13.1432C13.3146 21.6806 13.479 21.6075 13.6001 21.4772C13.7213 21.347 13.7894 21.1704 13.7894 20.9862V8.11117C13.7908 7.22916 13.6303 6.3555 13.3173 5.54017C13.0042 4.72484 12.5447 3.98382 11.965 3.3595C11.3852 2.73517 10.6967 2.23979 9.93866 1.90166C9.18065 1.56354 8.36805 1.38932 7.54734 1.38895Z" fill="black"/>
<path d="M36.1858 16.8487V9.53896C36.1858 8.87924 35.7089 8.3334 35.1312 8.3334H32.0696C31.4932 8.3334 31.0164 8.87924 31.0164 9.53896V16.8487C31.0164 17.5098 31.4932 18.0556 32.0709 18.0556H35.1325C35.7089 18.0556 36.1858 17.5098 36.1858 16.8487Z" fill="#F92F60"/>
<path d="M23.9292 10.5969C23.585 11.2378 23.0536 11.7387 22.4175 12.022C21.7814 12.3052 21.0761 12.355 20.411 12.1634C19.7459 11.9719 19.1582 11.5499 18.739 10.9628C18.3199 10.3757 18.0928 9.65632 18.0929 8.91633C18.0928 8.17633 18.3199 7.45699 18.739 6.86988C19.1582 6.28277 19.7459 5.86072 20.411 5.66921C21.0761 5.47769 21.7814 5.52741 22.4175 5.81066C23.0536 6.09391 23.585 6.59485 23.9292 7.23577H35.4362C36.3021 7.23577 37 7.98577 37 8.91633C37 9.84688 36.3021 10.5969 35.4362 10.5969H23.9292Z" fill="#D3D3D3"/>
</svg>
