<svg width="47" height="40" viewBox="0 0 47 40" fill="none" xmlns="http://www.w3.org/2000/svg">
<path d="M22.5717 0.0151176C17.3148 0.463081 13.1424 3.21849 11.3836 7.40232L11.11 8.03623L8.24699 8.08694C5.08108 8.14611 4.73909 8.18837 3.51767 8.7124C1.90541 9.39703 0.683992 10.6733 0.175884 12.2285C0.00977131 12.7356 0 13.3949 0 24.0531C0 34.7113 0.00977131 35.3706 0.175884 35.8777C0.830561 37.8555 2.63825 39.3684 4.93451 39.8671C5.73576 40.0446 41.2642 40.0446 42.0655 39.8671C44.3617 39.3684 46.1694 37.8555 46.8241 35.8777C46.9902 35.3706 47 34.7113 47 24.0531C47 13.3949 46.9902 12.7356 46.8241 12.2285C46.316 10.6818 45.0946 9.39703 43.4823 8.7124C42.2609 8.18837 41.9189 8.14611 38.753 8.08694L35.89 8.03623L35.6164 7.39386C34.0432 3.64955 30.2227 0.84343 25.806 0.184158C24.9462 0.0489235 23.1971 -0.0355949 22.5717 0.0151176ZM25.8647 2.91421C27.643 3.31992 29.099 4.03835 30.3888 5.16249C31.6786 6.26973 32.4994 7.50374 32.9977 9.07585C33.1736 9.61679 33.2127 9.96333 33.2127 11.1213C33.2127 12.313 33.1834 12.6173 32.9879 13.2343C32.089 16.1334 29.5387 18.3986 26.1773 19.2861C25.3663 19.5058 25.1904 19.5227 23.5 19.5227C21.8096 19.5227 21.6337 19.5058 20.8324 19.2945C18.0183 18.5423 15.8295 16.911 14.6081 14.6458C14.0511 13.6231 13.8166 12.7694 13.758 11.5439C13.6896 10.2761 13.8166 9.52381 14.2563 8.39967C15.3898 5.51748 18.2723 3.36218 21.7705 2.78743C22.7672 2.62684 24.8875 2.686 25.8647 2.91421ZM10.641 11.6791C10.8559 14.5951 12.0871 16.9702 14.4127 18.9818C16.3083 20.6215 18.3994 21.5935 21.0572 22.0837C22.2102 22.295 24.7898 22.295 25.9428 22.0837C29.7146 21.3907 32.7827 19.4889 34.6784 16.6574C35.7239 15.0853 36.3981 12.9638 36.3981 11.1804V10.7747L38.968 10.8001C41.4597 10.8254 41.5378 10.8339 42.0166 11.0368C42.642 11.2988 43.326 11.8904 43.6289 12.4314C43.8732 12.854 43.8732 12.854 43.9025 15.9813L43.9318 19.117L34.9617 23.267C24.5553 28.0848 25.3565 27.7213 24.6628 27.8566C24.057 27.9749 22.4936 27.9327 21.9366 27.7805C21.6435 27.7044 17.3441 25.7351 5.83347 20.3933L3.06819 19.1086L3.09751 15.9813C3.12682 12.93 3.13659 12.8455 3.35156 12.4652C3.79127 11.6876 4.68046 11.0452 5.55988 10.8593C5.72599 10.8254 6.91809 10.8001 8.21767 10.7916L10.5726 10.7832L10.641 11.6791ZM11.5985 26.0985C16.2399 28.2454 20.3146 30.0964 20.6663 30.2063C22.4545 30.7726 24.4674 30.781 26.2751 30.2316C26.5877 30.1387 27.6137 29.6992 28.5713 29.2681C29.5191 28.8286 33.3397 27.0536 37.0626 25.3294C40.7854 23.6051 43.8536 22.1936 43.883 22.1936C43.9025 22.1936 43.9123 25.135 43.9025 28.7187L43.8732 35.2522L43.5996 35.734C43.2967 36.2749 42.6811 36.7821 41.9873 37.0864L41.5281 37.2808H23.5H5.47193L5.01268 37.0864C4.32869 36.7905 3.70333 36.2749 3.40042 35.734L3.12682 35.2522L3.09751 28.7187C3.08773 25.135 3.09751 22.1936 3.12682 22.1936C3.15613 22.1936 6.96694 23.9517 11.5985 26.0985Z" fill="#80C5DD"/>
<path d="M27.8971 7.039C27.7407 7.06436 26.6366 7.96029 24.7702 9.5662L21.8779 12.0511L20.764 11.0707C20.1484 10.5382 19.5328 10.048 19.396 9.98036C19.142 9.86202 18.7707 9.81976 18.2821 9.83667C17.901 9.86202 17.1584 10.5044 17.1291 10.834C17.1095 11.2566 17.1584 11.5778 17.2952 11.7976C17.5004 12.1272 20.979 15.0686 21.2819 15.17C21.702 15.3052 22.2004 15.2799 22.601 15.1024C22.9528 14.9418 29.3725 9.43096 29.695 9.00836C29.9197 8.70408 29.9002 7.96029 29.6559 7.60529C29.3237 7.14888 28.6397 6.92912 27.8971 7.039Z" fill="#80C5DD"/>
</svg>
