<svg width="226" height="263" viewBox="0 0 226 263" fill="none" xmlns="http://www.w3.org/2000/svg">
<path d="M113 262.619C175.408 262.619 226 233.879 226 198.426C226 162.974 175.408 134.233 113 134.233C50.5918 134.233 0 162.974 0 198.426C0 233.879 50.5918 262.619 113 262.619Z" fill="#F5F5F5"/>
<path d="M160.024 238.901L75.6736 190.197C74.9316 189.77 74.3153 189.154 73.8868 188.413C73.4583 187.671 73.2326 186.83 73.2326 185.974C73.2326 185.117 73.4583 184.276 73.8868 183.535C74.3153 182.793 74.9316 182.178 75.6736 181.75L83.9945 176.503C85.4308 175.676 87.0593 175.24 88.7169 175.24C90.3745 175.24 92.003 175.676 93.4393 176.503L177.801 225.213C178.543 225.64 179.159 226.256 179.588 226.997C180.016 227.738 180.242 228.58 180.242 229.436C180.242 230.292 180.016 231.134 179.588 231.875C179.159 232.617 178.543 233.232 177.801 233.66L169.48 238.901C168.043 239.733 166.412 240.171 164.752 240.171C163.091 240.171 161.461 239.733 160.024 238.901Z" fill="#E0E0E0"/>
<path d="M31.7696 194.498C41.8791 194.498 50.0744 189.792 50.0744 183.986C50.0744 178.181 41.8791 173.475 31.7696 173.475C21.6602 173.475 13.4648 178.181 13.4648 183.986C13.4648 189.792 21.6602 194.498 31.7696 194.498Z" fill="#E6E6E6"/>
<path d="M189.935 196.906L197.964 201.523C197.964 201.523 193.863 188.637 196.048 175.648C196.874 170.74 198.646 168.302 199.265 166.989C199.885 165.676 204.685 157.561 200.412 153.845C196.14 150.129 186.202 157.602 186.741 177.598C186.986 184.143 188.059 190.631 189.935 196.906Z" fill="#80C5DD"/>
<path opacity="0.5" d="M189.935 196.906L197.964 201.523C197.964 201.523 193.863 188.637 196.048 175.648C196.874 170.74 198.646 168.302 199.265 166.989C199.885 165.676 204.685 157.561 200.412 153.845C196.14 150.129 186.202 157.602 186.741 177.598C186.986 184.143 188.059 190.631 189.935 196.906Z" fill="black"/>
<path d="M193.668 199.338C193.61 199.339 193.553 199.322 193.504 199.289C193.456 199.256 193.419 199.209 193.399 199.154C193.37 199.068 190.302 190.684 190.4 177.208C190.497 163.732 197.579 156.415 197.648 156.346C197.675 156.319 197.707 156.298 197.742 156.283C197.777 156.268 197.814 156.261 197.852 156.261C197.89 156.261 197.927 156.268 197.962 156.283C197.997 156.298 198.029 156.319 198.055 156.346C198.082 156.372 198.104 156.404 198.118 156.439C198.133 156.474 198.14 156.512 198.14 156.549C198.14 156.587 198.133 156.625 198.118 156.66C198.104 156.695 198.082 156.726 198.055 156.753C197.987 156.822 191.071 163.921 190.973 177.214C190.876 190.507 193.904 198.879 193.938 198.959C193.964 199.031 193.96 199.11 193.928 199.179C193.896 199.247 193.837 199.301 193.766 199.327C193.734 199.336 193.701 199.34 193.668 199.338Z" fill="white"/>
<path d="M193.284 198.879L204.26 205.187C205.404 205.863 206.76 206.083 208.059 205.804C209.358 205.524 210.504 204.766 211.268 203.679C211.994 202.548 212.301 201.199 212.134 199.865C211.606 194.165 209.129 192.852 212.162 190.312C215.196 187.771 215.987 187.593 215.815 185.15C215.643 182.708 213.975 181.641 213.183 180.677C212.392 179.714 210.201 177.695 211.692 174.713C213.183 171.732 215.219 168.847 212.134 167.528C210.293 166.737 207.225 167.792 205.206 169.982C203.188 172.173 201.525 173.75 199.592 174.278C197.66 174.805 193.634 174.891 193.806 178.223C193.978 181.555 194.861 182.696 194.07 184.181C192.579 186.957 186.093 188.534 193.284 198.879Z" fill="#80C5DD"/>
<path d="M198.709 202.274C198.638 202.272 198.569 202.244 198.517 202.195C198.464 202.147 198.431 202.081 198.422 202.01C198.422 201.815 196.736 182.134 210.27 169.036C210.326 168.99 210.397 168.967 210.469 168.971C210.542 168.975 210.609 169.007 210.66 169.059C210.71 169.111 210.738 169.181 210.739 169.253C210.74 169.325 210.714 169.395 210.666 169.449C197.327 182.358 198.979 201.764 198.996 201.959C199.002 202.034 198.979 202.108 198.93 202.166C198.882 202.224 198.813 202.261 198.738 202.268L198.709 202.274Z" fill="white"/>
<path d="M200.883 185.334C200.81 185.334 200.741 185.307 200.687 185.258C200.634 185.209 200.602 185.142 200.596 185.07C200.476 183.545 200.046 182.06 199.333 180.707C198.62 179.353 197.639 178.159 196.45 177.197C196.419 177.175 196.392 177.147 196.372 177.115C196.352 177.083 196.338 177.048 196.332 177.01C196.325 176.973 196.326 176.935 196.335 176.898C196.343 176.861 196.359 176.826 196.381 176.795C196.402 176.764 196.429 176.738 196.461 176.718C196.492 176.698 196.527 176.684 196.564 176.678C196.601 176.671 196.639 176.672 196.675 176.681C196.712 176.689 196.746 176.705 196.777 176.726C198.044 177.732 199.089 178.989 199.846 180.42C200.602 181.85 201.052 183.422 201.169 185.036C201.176 185.113 201.152 185.189 201.102 185.248C201.053 185.307 200.982 185.344 200.905 185.351L200.883 185.334Z" fill="white"/>
<path d="M199.948 188.712C199.879 188.712 199.811 188.688 199.759 188.643C199.702 188.592 199.667 188.521 199.662 188.445C199.656 188.369 199.681 188.294 199.73 188.236C199.868 188.075 203.257 184.336 211.199 185.328C211.274 185.338 211.343 185.378 211.389 185.438C211.435 185.498 211.455 185.574 211.446 185.649C211.436 185.725 211.396 185.794 211.336 185.841C211.276 185.888 211.2 185.91 211.125 185.902C203.498 184.944 200.189 188.58 200.154 188.614C200.128 188.643 200.096 188.667 200.061 188.684C200.026 188.701 199.987 188.71 199.948 188.712Z" fill="white"/>
<path d="M157.454 233.08L83.2719 190.249C78.0362 187.227 73.7926 179.118 73.7926 172.139V13.2909C73.7926 6.31192 78.0362 3.10629 83.2719 6.12842L157.454 48.96C162.69 51.9822 166.934 60.0909 166.934 67.0698V225.918C166.934 232.891 162.69 236.102 157.454 233.08Z" fill="#455A64"/>
<path d="M165.999 43.965L91.8107 1.13342C89.5742 -0.156863 87.5212 -0.305963 85.8984 0.48541C85.6997 0.584908 85.5081 0.697956 85.3249 0.823751L77.0098 5.65801C78.6842 4.65445 80.8749 4.729 83.2776 6.11677L157.46 48.9484C162.696 51.9705 166.94 60.0792 166.94 67.0582V225.906C166.94 229.599 165.752 232.214 163.86 233.453L172.066 228.676C174.159 227.564 175.507 224.84 175.507 220.934V62.0863C175.507 55.0959 171.235 46.9872 165.999 43.965Z" fill="#081956"/>
<path d="M166.934 67.0583V225.906C166.934 229.599 165.747 232.214 163.854 233.453L172.066 228.676C174.159 227.564 175.507 224.84 175.507 220.934V62.0864L166.962 67.0469L166.934 67.0583Z" fill="#081956"/>
<path d="M175.478 74.4098L166.934 79.3416V83.1952L175.478 78.2577V74.4098Z" fill="#37474F"/>
<path d="M171.734 100.038C170.971 100.479 170.352 100.009 170.352 98.9939V90.7075C170.359 90.1895 170.488 89.6805 170.728 89.2214C170.968 88.7623 171.313 88.3658 171.734 88.0638C172.496 87.6222 173.116 88.0638 173.116 89.1075V97.394C173.108 97.912 172.979 98.421 172.739 98.8801C172.499 99.3392 172.155 99.7356 171.734 100.038Z" fill="#37474F"/>
<path d="M170.346 99.0169V90.7075C170.354 90.1895 170.483 89.6806 170.723 89.2214C170.963 88.7623 171.307 88.3659 171.728 88.0639C171.854 87.9759 172 87.9222 172.153 87.9082C172.306 87.8941 172.46 87.9201 172.6 87.9836L171.562 87.4503C171.42 87.382 171.262 87.3523 171.105 87.3644C170.948 87.3765 170.797 87.4299 170.667 87.5191C170.246 87.8211 169.901 88.2175 169.66 88.6765C169.419 89.1355 169.289 89.6444 169.279 90.1627V98.4435C169.258 98.6527 169.29 98.8639 169.372 99.0574C169.454 99.251 169.584 99.4205 169.749 99.5503L170.833 100.124C170.661 99.9994 170.525 99.8313 170.439 99.6367C170.353 99.4421 170.321 99.2281 170.346 99.0169Z" fill="#4089FF"/>
<path d="M171.734 120.092C170.971 120.533 170.352 120.092 170.352 119.048V110.762C170.36 110.244 170.489 109.735 170.729 109.276C170.969 108.817 171.313 108.42 171.734 108.118C172.496 107.676 173.116 108.118 173.116 109.167V117.448C173.109 117.966 172.98 118.476 172.74 118.935C172.5 119.394 172.155 119.79 171.734 120.092Z" fill="#37474F"/>
<path d="M170.346 119.048V110.761C170.354 110.243 170.483 109.735 170.723 109.276C170.963 108.817 171.307 108.42 171.728 108.118C171.854 108.031 172.001 107.979 172.153 107.965C172.306 107.95 172.459 107.976 172.6 108.037L171.562 107.498C171.42 107.427 171.262 107.396 171.105 107.408C170.947 107.42 170.796 107.475 170.667 107.567C170.245 107.868 169.899 108.264 169.658 108.724C169.417 109.183 169.287 109.692 169.279 110.211V118.515C169.257 118.724 169.289 118.935 169.371 119.129C169.453 119.322 169.584 119.492 169.749 119.621L170.833 120.195C170.654 120.068 170.513 119.893 170.427 119.69C170.341 119.488 170.313 119.265 170.346 119.048Z" fill="#455A64"/>
<path d="M154.862 53.4154L81.9644 11.3121C81.6601 11.1371 81.3154 11.0447 80.9644 11.044C80.6134 11.0434 80.2683 11.1345 79.9634 11.3084C79.6585 11.4823 79.4044 11.7329 79.2263 12.0353C79.0482 12.3378 78.9522 12.6815 78.948 13.0325V172.139C78.948 177.449 82.7156 183.969 87.3147 186.624L158.424 227.701C158.761 227.895 159.143 227.997 159.532 227.997C159.921 227.996 160.303 227.894 160.64 227.699C160.977 227.505 161.257 227.225 161.452 226.888C161.646 226.551 161.749 226.169 161.75 225.78V65.3606C161.778 60.9793 158.67 55.606 154.862 53.4154Z" fill="#80C5DD"/>
<path opacity="0.9" d="M154.862 53.4154L81.9644 11.3121C81.6601 11.1371 81.3154 11.0447 80.9644 11.044C80.6134 11.0434 80.2683 11.1345 79.9634 11.3084C79.6585 11.4823 79.4044 11.7329 79.2263 12.0353C79.0482 12.3378 78.9522 12.6815 78.948 13.0325V172.139C78.948 177.449 82.7156 183.969 87.3147 186.624L158.424 227.701C158.761 227.895 159.143 227.997 159.532 227.997C159.921 227.996 160.303 227.894 160.64 227.699C160.977 227.505 161.257 227.225 161.452 226.888C161.646 226.551 161.749 226.169 161.75 225.78V65.3606C161.778 60.9793 158.67 55.606 154.862 53.4154Z" fill="white"/>
<path d="M103.767 22.3055L104.897 27.0595L129.063 40.9946L133.237 38.7695L103.767 22.3055Z" fill="#455A64"/>
<path d="M110.872 26.8988C110.872 27.6902 110.299 28.0056 109.634 27.6157C109.277 27.3786 108.98 27.061 108.768 26.6885C108.556 26.3161 108.434 25.899 108.412 25.4709C108.412 24.6853 108.986 24.3642 109.651 24.7598C110.008 24.9957 110.304 25.3122 110.517 25.6837C110.729 26.0553 110.851 26.4715 110.872 26.8988Z" fill="#263238"/>
<path d="M127.153 36.963C127.021 36.962 126.891 36.9285 126.774 36.8655L114.434 29.984C114.259 29.8817 114.132 29.7153 114.079 29.5204C114.026 29.3254 114.051 29.1174 114.149 28.9407C114.247 28.7641 114.41 28.6327 114.604 28.5748C114.797 28.5169 115.006 28.5369 115.185 28.6307L127.531 35.5122C127.681 35.5956 127.8 35.7265 127.867 35.8844C127.935 36.0423 127.948 36.2181 127.904 36.3843C127.861 36.5504 127.764 36.6974 127.628 36.8022C127.492 36.907 127.325 36.9636 127.153 36.963Z" fill="#263238"/>
<path d="M94.2363 44.4238C93.4851 43.988 92.9403 44.3664 92.9403 45.3241C92.9403 45.803 93.0586 46.2745 93.2847 46.6967C93.5108 47.1189 93.8377 47.4787 94.2363 47.7441C94.4498 47.8737 94.6948 47.9422 94.9445 47.9422C95.1943 47.9422 95.4392 47.8737 95.6527 47.7441L96.8513 49.9118C96.4296 50.1444 95.9516 50.2553 95.4706 50.232C94.9896 50.2087 94.5245 50.0522 94.1273 49.7799C93.1537 49.1842 92.3418 48.3576 91.7637 47.3734C91.1856 46.3892 90.8589 45.2776 90.8128 44.1371C90.8128 42.0095 92.2407 41.2698 94.2076 42.4167C95.3184 43.132 96.2283 44.1189 96.8513 45.284L95.6527 46.2359C95.3572 45.5125 94.8669 44.8853 94.2363 44.4238Z" fill="#80C5DD"/>
<path d="M103.75 51.6092C103.75 53.7539 102.299 54.4765 100.309 53.3296C99.3079 52.7311 98.4697 51.8944 97.8695 50.894C97.2692 49.8936 96.9254 48.7603 96.8686 47.595C96.8686 45.4503 98.3195 44.7277 100.309 45.8746C101.313 46.4704 102.153 47.3064 102.754 48.3074C103.355 49.3084 103.697 50.4431 103.75 51.6092ZM98.9961 48.8738C99.0062 49.3662 99.1331 49.8491 99.3664 50.2828C99.5997 50.7165 99.9327 51.0886 100.338 51.3684C101.049 51.7812 101.623 51.3684 101.623 50.3935C101.621 49.9122 101.503 49.4385 101.279 49.0123C101.056 48.5861 100.733 48.22 100.338 47.9448C99.6155 47.5262 98.9961 47.8817 98.9961 48.8738Z" fill="#80C5DD"/>
<path d="M106.061 49.3326L108.539 54.4938V50.7778L110.414 51.8616V59.0929L108.693 58.0951L106.228 52.9798V56.6729L104.341 55.5833V48.3348L106.061 49.3326Z" fill="#80C5DD"/>
<path d="M116.544 55.3823V57.2747L114.755 56.2425V61.5871L112.685 60.3886V55.044L110.907 54.0175V52.1308L116.544 55.3823Z" fill="#80C5DD"/>
<path d="M120.581 63.9274L118.23 62.5683L117.909 63.4055L115.787 62.1783L118.431 56.4724L120.558 57.6996L123.104 66.4047L120.896 65.1316L120.581 63.9274ZM120.071 61.9203L119.428 59.4487L118.769 61.169L120.071 61.9203Z" fill="#80C5DD"/>
<path d="M126.39 62.9866C125.639 62.5566 125.094 62.9293 125.094 63.8927C125.095 64.3714 125.214 64.8426 125.44 65.2646C125.666 65.6866 125.992 66.0465 126.39 66.3127C126.605 66.441 126.851 66.5087 127.101 66.5087C127.352 66.5087 127.597 66.441 127.812 66.3127L129.011 68.4804C128.587 68.7104 128.109 68.8197 127.628 68.7964C127.146 68.7732 126.681 68.6182 126.281 68.3485C125.307 67.7522 124.494 66.9248 123.916 65.9395C123.338 64.9542 123.012 63.8414 122.967 62.6999C122.967 60.5724 124.4 59.8326 126.362 60.9795C127.471 61.6983 128.382 62.6842 129.011 63.8468L127.812 64.793C127.51 64.0735 127.019 63.4492 126.39 62.9866Z" fill="#80C5DD"/>
<path d="M134.665 65.8481V67.7348L132.876 66.7026V72.0644L130.806 70.8659V65.5213L129.028 64.4948V62.6081L134.665 65.8481Z" fill="#80C5DD"/>
<path d="M140.784 74.7253C141.294 75.0178 141.684 74.7884 141.684 74.0716V69.9026L143.76 71.0953V75.2644C143.76 77.1855 142.613 77.7589 140.778 76.7095C139.894 76.2185 139.151 75.5088 138.62 74.6483C138.089 73.7878 137.787 72.8053 137.745 71.795V67.6259L139.821 68.8245V72.9935C139.829 73.3387 139.921 73.6767 140.088 73.9784C140.256 74.2802 140.495 74.5365 140.784 74.7253Z" fill="#80C5DD"/>
<path d="M147.104 74.7482C146.868 74.6163 146.719 74.6106 146.719 74.8285C146.719 75.7346 149.959 77.0421 149.959 79.6628C149.959 81.2684 148.738 81.2742 147.327 80.4599C146.087 79.7 145.019 78.6903 144.19 77.4951L144.959 76.1417C145.589 77.118 146.399 77.9664 147.344 78.642C147.648 78.8198 147.843 78.8198 147.843 78.5617C147.843 77.6213 144.598 76.3711 144.598 73.8307C144.598 72.3856 145.653 72.1103 147.281 73.0278C148.33 73.6624 149.254 74.4847 150.005 75.4536L149.254 76.8413C148.634 76.0511 147.91 75.3471 147.104 74.7482Z" fill="#80C5DD"/>
<path d="M83.8052 80.0587C86.132 77.201 87.3032 73.575 87.0878 69.8961C86.8725 66.2172 85.2861 62.7526 82.6418 60.1859C79.9974 57.6191 76.4871 56.1367 72.8034 56.031C69.1197 55.9253 65.5302 57.204 62.743 59.6149C59.9559 62.0257 58.1734 65.3937 57.7475 69.0542C57.3215 72.7147 58.2829 76.4019 60.442 79.3883C62.6011 82.3748 65.801 84.4437 69.4105 85.1867C73.0201 85.9297 76.777 85.2929 79.9401 83.402L87.1198 86.5216L83.8052 80.0587Z" fill="#80C5DD"/>
<path opacity="0.4" d="M83.8052 80.0587C86.132 77.201 87.3032 73.575 87.0878 69.8961C86.8725 66.2172 85.2861 62.7526 82.6418 60.1859C79.9974 57.6191 76.4871 56.1367 72.8034 56.031C69.1197 55.9253 65.5302 57.204 62.743 59.6149C59.9559 62.0257 58.1734 65.3937 57.7475 69.0542C57.3215 72.7147 58.2829 76.4019 60.442 79.3883C62.6011 82.3748 65.801 84.4437 69.4105 85.1867C73.0201 85.9297 76.777 85.2929 79.9401 83.402L87.1198 86.5216L83.8052 80.0587Z" fill="black"/>
<path d="M66.9226 69.9659C66.9226 69.7422 66.762 69.6161 66.4696 69.6161C65.7912 69.705 65.1576 70.0037 64.6574 70.4705L63.8431 68.8878C64.7003 68.2428 65.7357 67.8783 66.8079 67.8441C68.1842 67.8441 69.2279 68.5667 69.2279 69.6448C69.2279 70.4132 68.6544 71.153 67.9204 71.8927L66.8939 72.9077H69.3196V74.5937H64.1069V73.2117L66.4294 70.8089C66.6795 70.5877 66.8523 70.2923 66.9226 69.9659Z" fill="white"/>
<path d="M73.5632 67.9416L71.9805 71.7379H72.6285V70.4591H74.6241V71.7379H75.3811V73.3034H74.6241V74.5937H72.6285V73.3034H69.7899V71.8813L71.5103 67.9416H73.5632Z" fill="white"/>
<path d="M81.54 71.2847V74.5936H79.4067V71.8983C79.4191 71.8105 79.4124 71.7212 79.3872 71.6362C79.362 71.5512 79.3189 71.4727 79.2607 71.4058C79.2025 71.3389 79.1307 71.2853 79.05 71.2486C78.9694 71.2119 78.8818 71.1929 78.7932 71.193C78.3745 71.193 78.1107 71.5198 78.1107 72.0245V74.5936H75.9775V67.563H78.1107V70.1493C78.2776 69.8855 78.5102 69.6696 78.7857 69.5228C79.0611 69.3761 79.37 69.3034 79.682 69.312C79.9377 69.3054 80.1919 69.3529 80.428 69.4512C80.6641 69.5496 80.8768 69.6967 81.0521 69.8829C81.2275 70.0691 81.3616 70.2902 81.4457 70.5317C81.5297 70.7733 81.5619 71.0299 81.54 71.2847Z" fill="white"/>
<path d="M151.101 124.57V195.822C151.102 196.628 150.891 197.42 150.488 198.119C150.086 198.817 149.507 199.397 148.81 199.801C148.112 200.204 147.32 200.417 146.515 200.417C145.709 200.417 144.917 200.205 144.219 199.802L105.843 177.644L99.042 173.721C96.7 172.367 94.7545 170.422 93.4 168.08C92.0455 165.738 91.3294 163.082 91.3233 160.377V89.119C91.3221 88.3131 91.5332 87.5211 91.9353 86.8228C92.3375 86.1244 92.9165 85.5443 93.6142 85.1409C94.3118 84.7374 95.1034 84.5248 95.9092 84.5245C96.7151 84.5242 97.5068 84.7362 98.2048 85.1392L143.393 111.226C145.736 112.578 147.682 114.523 149.035 116.865C150.388 119.208 151.1 121.865 151.101 124.57Z" fill="#80C5DD"/>
<path opacity="0.5" d="M151.101 124.57V195.822C151.102 196.628 150.891 197.42 150.488 198.119C150.086 198.817 149.507 199.397 148.81 199.801C148.112 200.204 147.32 200.417 146.515 200.417C145.709 200.417 144.917 200.205 144.219 199.802L105.843 177.644L99.042 173.721C96.7 172.367 94.7545 170.422 93.4 168.08C92.0455 165.738 91.3294 163.082 91.3233 160.377V89.119C91.3221 88.3131 91.5332 87.5211 91.9353 86.8228C92.3375 86.1244 92.9165 85.5443 93.6142 85.1409C94.3118 84.7374 95.1034 84.5248 95.9092 84.5245C96.7151 84.5242 97.5068 84.7362 98.2048 85.1392L143.393 111.226C145.736 112.578 147.682 114.523 149.035 116.865C150.388 119.208 151.1 121.865 151.101 124.57Z" fill="white"/>
<path d="M128.994 166.731C128.994 166.731 136.179 178.647 130.989 192.084L105.826 177.644L128.994 166.731Z" fill="#081956"/>
<path d="M140.453 113.191C140.997 108.775 137.857 104.754 133.441 104.21C129.024 103.666 125.003 106.806 124.46 111.222C123.916 115.638 127.055 119.66 131.472 120.203C135.888 120.747 139.909 117.608 140.453 113.191Z" fill="black"/>
<path d="M132.498 89.6068C132.498 89.6068 134.969 85.5926 135.726 85.885C136.483 86.1775 135.233 90.0025 135.233 90.0025C135.233 90.0025 138.972 90.7824 138.278 91.7229C137.584 92.6633 133.014 92.4397 133.014 92.4397L132.498 89.6068Z" fill="#263238"/>
<path d="M134.218 99.9517C132.497 112.877 121.602 112.877 121.602 112.877L98.7781 102.83C98.7781 102.83 97.0578 101.322 96.5302 97.8585C96.3278 96.4397 96.3278 94.9993 96.5302 93.5805C96.5302 93.5805 96.5302 93.5519 96.5302 93.5404C97.2585 88.104 101.324 82.2605 110.178 80.4655C112.119 80.0738 114.094 79.8816 116.074 79.8921C117.031 79.8887 117.988 79.9366 118.941 80.0354C125.822 80.7121 130.645 83.9235 132.945 88.9183C133.462 90.0457 133.847 91.2291 134.092 92.4451C134.558 94.9221 134.601 97.4604 134.218 99.9517Z" fill="black"/>
<path d="M79.424 124.954C79.424 124.954 71.3211 124.673 68.2014 132.57C68.2014 132.57 71.6422 134.893 76.1553 132.57C80.6684 130.247 79.424 124.954 79.424 124.954Z" fill="#80C5DD"/>
<path opacity="0.5" d="M79.424 124.954C79.424 124.954 71.3211 124.673 68.2014 132.57C68.2014 132.57 71.6422 134.893 76.1553 132.57C80.6684 130.247 79.424 124.954 79.424 124.954Z" fill="black"/>
<path d="M79.1946 128.757C79.1946 128.757 76.9008 118.79 75.6908 118.669C74.4808 118.549 74.2456 121.709 74.3431 123.492L71.4758 117.322C71.3849 117.13 71.2556 116.959 71.096 116.819C70.9364 116.679 70.7498 116.574 70.5478 116.509C70.3458 116.444 70.1326 116.421 69.9214 116.441C69.7101 116.462 69.5054 116.525 69.3196 116.628C66.4523 118.205 61.4231 122.999 72.0264 134.852L79.1946 128.757Z" fill="#945959"/>
<path d="M108.556 121.864L106.835 121.64C105.102 121.41 103.338 121.646 101.725 122.323C100.113 123 98.7097 124.095 97.66 125.494L87.4238 139.119L79.3954 124.955C79.3954 124.955 78.432 134.589 68.1728 132.57L79.1889 151.11C79.8861 152.284 80.8565 153.272 82.0175 153.99C83.1785 154.708 84.4958 155.135 85.8573 155.235C87.2188 155.334 88.5842 155.104 89.8374 154.562C91.0906 154.021 92.1945 153.185 93.0552 152.125L102.483 140.535L108.556 121.864Z" fill="#80C5DD"/>
<path d="M130.404 153.662C128.111 159.477 127.858 160.612 129.258 163.52C130.232 165.667 131 167.902 131.551 170.195C131.551 170.195 120.919 182.111 105.786 177.65L98.9847 173.727C97.5703 172.911 96.2962 171.874 95.2113 170.653L97.2815 155.216C97.3857 154.403 97.3034 153.578 97.0407 152.802L94.8672 146.431C93.8067 143.319 93.6488 139.97 94.412 136.772C95.1752 133.575 96.8281 130.658 99.1797 128.361L106.486 121.221L125.673 123.676L128.541 124.496C130.418 125.039 132.036 126.241 133.098 127.881C134.16 129.521 134.594 131.49 134.321 133.424C133.381 140.191 131.844 150.009 130.404 153.662Z" fill="#80C5DD"/>
<path opacity="0.5" d="M130.404 153.662C128.111 159.477 127.858 160.612 129.258 163.52C130.232 165.667 131 167.902 131.551 170.195C131.551 170.195 120.919 182.111 105.786 177.65L98.9847 173.727C97.5703 172.911 96.2962 171.874 95.2113 170.653L97.2815 155.216C97.3857 154.403 97.3034 153.578 97.0407 152.802L94.8672 146.431C93.8067 143.319 93.6488 139.97 94.412 136.772C95.1752 133.575 96.8281 130.658 99.1797 128.361L106.486 121.221L125.673 123.676L128.541 124.496C130.418 125.039 132.036 126.241 133.098 127.881C134.16 129.521 134.594 131.49 134.321 133.424C133.381 140.191 131.844 150.009 130.404 153.662Z" fill="black"/>
<path d="M118.832 136.292L114.99 133.017C114.583 132.669 114.092 132.433 113.566 132.333C113.04 132.232 112.497 132.271 111.991 132.444L107.346 134.044L106.721 131.44C106.623 131.035 106.444 130.654 106.196 130.32C105.947 129.986 105.633 129.706 105.273 129.496C104.913 129.287 104.514 129.152 104.1 129.101C103.687 129.05 103.267 129.083 102.867 129.198L100.854 129.772L104.26 123.246C105.373 121.12 107.086 119.369 109.186 118.211L110.523 117.477L121.562 118.05C121.562 118.05 125.673 119.771 125.673 123.641L118.832 136.257" fill="#80C5DD"/>
<path d="M121.608 122.942L110.54 131.566V104.104H121.608V122.942Z" fill="#945959"/>
<path d="M110.712 120.676L107.346 134.067L121.562 122.941L110.712 120.676Z" fill="#945959"/>
<path d="M110.54 118.687C113.001 117.773 115.251 116.368 117.152 114.558C119.054 112.748 120.568 110.571 121.602 108.158V104.104H110.534L110.54 118.687Z" fill="#703838"/>
<path d="M112.925 83.7514C108.728 83.7514 99.8047 86.0911 98.7724 97.0786C97.7402 108.066 98.738 116.576 104.404 117.402C110.07 118.228 123.236 114.116 125.002 99.8943C126.769 85.6725 117.014 83.7514 112.925 83.7514Z" fill="#945959"/>
<path d="M106.319 101.729V108.204L102.523 107.039L106.319 101.729Z" fill="#703838"/>
<path d="M110.54 104.167C111.268 104.167 111.859 103.576 111.859 102.848C111.859 102.12 111.268 101.529 110.54 101.529C109.811 101.529 109.221 102.12 109.221 102.848C109.221 103.576 109.811 104.167 110.54 104.167Z" fill="#263238"/>
<path d="M103.177 101.93C103.176 102.191 103.097 102.445 102.952 102.661C102.806 102.878 102.6 103.046 102.358 103.145C102.117 103.244 101.852 103.269 101.597 103.217C101.341 103.166 101.107 103.04 100.923 102.855C100.739 102.67 100.614 102.435 100.564 102.18C100.513 101.924 100.54 101.659 100.64 101.418C100.74 101.178 100.909 100.972 101.126 100.827C101.342 100.683 101.597 100.606 101.858 100.606C102.031 100.606 102.203 100.64 102.364 100.706C102.524 100.773 102.67 100.871 102.792 100.994C102.915 101.117 103.012 101.263 103.078 101.424C103.144 101.584 103.177 101.757 103.177 101.93Z" fill="#263238"/>
<path d="M100.246 99.1776L102.827 97.6465C102.827 97.6465 101.841 96.62 100.854 97.2336C99.8678 97.8472 100.246 99.1776 100.246 99.1776Z" fill="#263238"/>
<path d="M104.536 110.83C105.792 110.922 107.043 110.587 108.085 109.878C108.085 109.878 108.332 111.754 106.761 112.109C105.189 112.465 104.536 110.83 104.536 110.83Z" fill="#703838"/>
<path d="M102.282 87.4906C102.282 87.4906 103.859 102.659 124.486 103.135C124.486 103.135 130.72 88.0583 118.402 83.161C106.084 78.2636 102.282 87.4906 102.282 87.4906Z" fill="black"/>
<path d="M130.559 100.863L128.025 99.3952C127.061 98.8218 125.731 98.9021 124.257 99.7508C121.332 101.437 118.958 105.548 118.958 108.926C118.958 110.618 119.532 111.793 120.518 112.367L123.007 113.801L123.15 113.881L123.236 113.932C124.177 114.391 125.433 114.282 126.815 113.485C129.739 111.765 132.113 107.687 132.113 104.31C132.096 102.601 131.505 101.42 130.559 100.863Z" fill="#80C5DD"/>
<path d="M130.539 109.501C132.607 105.919 132.607 102.047 130.539 100.853C128.471 99.659 125.118 101.595 123.05 105.177C120.982 108.759 120.982 112.631 123.05 113.825C125.118 115.019 128.471 113.083 130.539 109.501Z" fill="#80C5DD"/>
<path opacity="0.5" d="M130.539 109.501C132.607 105.919 132.607 102.047 130.539 100.853C128.471 99.659 125.118 101.595 123.05 105.177C120.982 108.759 120.982 112.631 123.05 113.825C125.118 115.019 128.471 113.083 130.539 109.501Z" fill="black"/>
<path d="M131.574 104.046L129.854 103.043C129.2 102.653 128.288 102.704 127.279 103.283C126.225 103.972 125.347 104.9 124.718 105.991C124.088 107.082 123.724 108.305 123.655 109.563C123.655 110.71 124.062 111.53 124.722 111.908L126.442 112.889C126.472 112.911 126.505 112.93 126.539 112.946L126.597 112.981C127 113.134 127.435 113.185 127.862 113.131C128.29 113.077 128.699 112.919 129.051 112.671C130.105 111.983 130.982 111.056 131.611 109.966C132.241 108.876 132.605 107.654 132.675 106.397C132.63 105.233 132.228 104.425 131.574 104.046Z" fill="#80C5DD"/>
<path d="M132.63 106.386C132.559 107.643 132.195 108.865 131.565 109.955C130.936 111.045 130.059 111.971 129.005 112.66C126.998 113.807 125.375 112.878 125.375 110.567C125.443 109.309 125.808 108.085 126.438 106.995C127.069 105.904 127.949 104.979 129.005 104.293C131.007 103.134 132.63 104.069 132.63 106.386Z" fill="#80C5DD"/>
<path opacity="0.3" d="M132.63 106.386C132.559 107.643 132.195 108.865 131.565 109.955C130.936 111.045 130.059 111.971 129.005 112.66C126.998 113.807 125.375 112.878 125.375 110.567C125.443 109.309 125.808 108.085 126.438 106.995C127.069 105.904 127.949 104.979 129.005 104.293C131.007 103.134 132.63 104.069 132.63 106.386Z" fill="black"/>
<path d="M122.686 80.7925C121.042 79.5227 119.028 78.824 116.951 78.8026H116.441C114.337 78.7799 112.237 78.9721 110.173 79.376C110.551 79.376 110.93 79.376 111.32 79.376H110.173V80.4427H111.239C114.915 80.5677 118.399 82.1172 120.953 84.7637C123.508 87.4101 124.933 90.9461 124.928 94.6243V99.1374C124.928 99.3158 124.965 99.4923 125.038 99.6553C125.11 99.8183 125.216 99.9643 125.348 100.084C125.481 100.203 125.637 100.294 125.806 100.349C125.976 100.404 126.155 100.423 126.333 100.405H126.465L127.612 100.049C127.535 100.073 127.456 100.089 127.377 100.095C127.719 100.049 128.031 99.8781 128.256 99.6158C128.48 99.3535 128.6 99.0179 128.592 98.6729V94.4867C128.581 86.9113 125.306 82.8397 122.686 80.7925Z" fill="#80C5DD"/>
<path d="M115.466 117.087C114.993 117.087 114.525 116.985 114.095 116.789L110.511 115.131C110.455 115.111 110.404 115.08 110.36 115.039C110.317 114.998 110.283 114.949 110.26 114.894C110.237 114.839 110.225 114.78 110.226 114.72C110.227 114.661 110.24 114.602 110.265 114.548C110.289 114.494 110.325 114.445 110.369 114.406C110.414 114.366 110.466 114.336 110.522 114.317C110.579 114.299 110.639 114.292 110.698 114.298C110.757 114.304 110.815 114.322 110.867 114.351L114.451 116.009C114.908 116.221 115.42 116.286 115.915 116.193C116.411 116.101 116.865 115.856 117.215 115.493L120.656 111.937C120.736 111.857 120.846 111.811 120.96 111.811C121.074 111.811 121.183 111.857 121.263 111.937C121.343 112.018 121.387 112.127 121.387 112.241C121.387 112.355 121.343 112.464 121.263 112.545L117.823 116.1C117.516 116.415 117.15 116.664 116.745 116.834C116.34 117.003 115.905 117.089 115.466 117.087Z" fill="#80C5DD"/>
<path opacity="0.5" d="M115.466 117.087C114.993 117.087 114.525 116.985 114.095 116.789L110.511 115.131C110.455 115.111 110.404 115.08 110.36 115.039C110.317 114.998 110.283 114.949 110.26 114.894C110.237 114.839 110.225 114.78 110.226 114.72C110.227 114.661 110.24 114.602 110.265 114.548C110.289 114.494 110.325 114.445 110.369 114.406C110.414 114.366 110.466 114.336 110.522 114.317C110.579 114.299 110.639 114.292 110.698 114.298C110.757 114.304 110.815 114.322 110.867 114.351L114.451 116.009C114.908 116.221 115.42 116.286 115.915 116.193C116.411 116.101 116.865 115.856 117.215 115.493L120.656 111.937C120.736 111.857 120.846 111.811 120.96 111.811C121.074 111.811 121.183 111.857 121.263 111.937C121.343 112.018 121.387 112.127 121.387 112.241C121.387 112.355 121.343 112.464 121.263 112.545L117.823 116.1C117.516 116.415 117.15 116.664 116.745 116.834C116.34 117.003 115.905 117.089 115.466 117.087Z" fill="black"/>
<path d="M111.452 113.927C111.452 114.258 111.353 114.582 111.169 114.857C110.985 115.133 110.724 115.347 110.418 115.474C110.112 115.601 109.775 115.634 109.451 115.569C109.126 115.505 108.827 115.345 108.593 115.111C108.359 114.877 108.199 114.578 108.135 114.254C108.07 113.929 108.103 113.592 108.23 113.286C108.357 112.98 108.572 112.719 108.847 112.535C109.122 112.351 109.446 112.252 109.777 112.252C110.221 112.252 110.647 112.429 110.961 112.743C111.275 113.057 111.452 113.483 111.452 113.927Z" fill="#80C5DD"/>
<path opacity="0.5" d="M111.452 113.927C111.452 114.258 111.353 114.582 111.169 114.857C110.985 115.133 110.724 115.347 110.418 115.474C110.112 115.601 109.775 115.634 109.451 115.569C109.126 115.505 108.827 115.345 108.593 115.111C108.359 114.877 108.199 114.578 108.135 114.254C108.07 113.929 108.103 113.592 108.23 113.286C108.357 112.98 108.572 112.719 108.847 112.535C109.122 112.351 109.446 112.252 109.777 112.252C110.221 112.252 110.647 112.429 110.961 112.743C111.275 113.057 111.452 113.483 111.452 113.927Z" fill="black"/>
<path d="M128.581 94.4867V98.6729C128.588 99.0179 128.468 99.3535 128.244 99.6158C128.02 99.8781 127.707 100.049 127.365 100.095C127.176 100.115 126.985 100.095 126.805 100.037C126.624 99.9782 126.457 99.8822 126.316 99.7551C126.175 99.628 126.062 99.4726 125.985 99.299C125.908 99.1254 125.868 98.9375 125.868 98.7475V94.4867C125.872 92.4532 125.463 90.44 124.668 88.5684C123.873 86.6967 122.708 85.0052 121.242 83.5957C119.776 82.1862 118.041 81.0878 116.139 80.3666C114.238 79.6454 112.21 79.3162 110.179 79.399C112.243 78.995 114.343 78.8029 116.447 78.8255H116.945C119.023 78.847 121.036 79.5456 122.68 80.8154C125.306 82.8397 128.581 86.9113 128.581 94.4867Z" fill="#80C5DD"/>
<path opacity="0.5" d="M128.581 94.4867V98.6729C128.588 99.0179 128.468 99.3535 128.244 99.6158C128.02 99.8781 127.707 100.049 127.365 100.095C127.176 100.115 126.985 100.095 126.805 100.037C126.624 99.9782 126.457 99.8822 126.316 99.7551C126.175 99.628 126.062 99.4726 125.985 99.299C125.908 99.1254 125.868 98.9375 125.868 98.7475V94.4867C125.872 92.4532 125.463 90.44 124.668 88.5684C123.873 86.6967 122.708 85.0052 121.242 83.5957C119.776 82.1862 118.041 81.0878 116.139 80.3666C114.238 79.6454 112.21 79.3162 110.179 79.399C112.243 78.995 114.343 78.8029 116.447 78.8255H116.945C119.023 78.847 121.036 79.5456 122.68 80.8154C125.306 82.8397 128.581 86.9113 128.581 94.4867Z" fill="black"/>
<path d="M122.135 173.377C122.135 173.377 119.36 181.022 129.28 184.462C129.28 184.462 132.52 179.703 129.28 175.809C126.04 171.915 122.135 173.377 122.135 173.377Z" fill="#80C5DD"/>
<path opacity="0.7" d="M122.135 173.377C122.135 173.377 119.36 181.022 129.28 184.462C129.28 184.462 132.52 179.703 129.28 175.809C126.04 171.915 122.135 173.377 122.135 173.377Z" fill="black"/>
<path d="M125.616 173.727C125.616 173.727 115.925 177.277 115.976 178.653C116.028 180.029 120.094 179.089 120.094 179.089L118.608 180.064C117.044 181.084 115.833 182.562 115.139 184.296C114.988 184.678 114.982 185.103 115.124 185.489C115.266 185.875 115.545 186.195 115.907 186.389L119.589 188.339C119.797 188.449 120.025 188.517 120.259 188.537C120.494 188.558 120.73 188.531 120.954 188.459C121.178 188.387 121.385 188.271 121.563 188.117C121.742 187.963 121.887 187.776 121.992 187.565C122.197 187.159 122.481 186.798 122.826 186.503C123.172 186.208 123.572 185.984 124.005 185.844C126.006 185.179 129.739 183.264 131.236 178.022L125.616 173.727Z" fill="#945959"/>
<path d="M128.524 124.484C128.524 124.484 123.362 127.352 126.104 136.057C128.845 144.762 133.989 158.267 133.989 158.267L122.135 173.377C123.402 173.53 124.622 173.948 125.715 174.604C126.809 175.26 127.752 176.14 128.483 177.185C129.184 178.248 129.621 179.462 129.76 180.728C129.898 181.993 129.734 183.273 129.281 184.462L143.995 165.538C145.356 163.789 146.26 161.729 146.624 159.543C146.989 157.357 146.803 155.115 146.083 153.02L139.775 134.6C139.004 132.35 137.722 130.309 136.031 128.637C134.34 126.964 132.285 125.706 130.026 124.96L128.524 124.484Z" fill="#80C5DD"/>
<path d="M41.4038 73.062L18.5973 59.8725C18.3349 59.6906 18.0312 59.577 17.7138 59.5419C17.3964 59.5069 17.0753 59.5515 16.7794 59.6718C16.7171 59.7006 16.6576 59.7351 16.6017 59.775L11.6413 62.6824H11.6757C11.0506 63.038 10.6549 63.8638 10.6549 65.0451V90.4149C10.6549 92.5596 11.9567 95.0542 13.5681 95.9832L36.3745 109.173C36.6639 109.382 37.0084 109.502 37.3652 109.517C37.722 109.532 38.0754 109.443 38.3816 109.259C38.3661 109.265 38.3524 109.275 38.3415 109.287L43.2675 106.42C43.9098 106.076 44.3169 105.239 44.3169 104.04V78.6303C44.3169 76.4856 43.0381 73.991 41.4038 73.062Z" fill="#081956"/>
<path d="M43.5026 75.4648C43.0412 74.4835 42.3141 73.6512 41.4037 73.062L18.5973 59.8725C18.3348 59.6906 18.0312 59.577 17.7138 59.5419C17.3964 59.5069 17.0752 59.5515 16.7794 59.6718C16.7171 59.7006 16.6576 59.7351 16.6016 59.775L11.6412 62.6824C11.9447 62.5273 12.2849 62.4587 12.6247 62.484C12.9646 62.5093 13.2909 62.6275 13.568 62.8258L36.3745 76.0154C37.3158 76.6308 38.0619 77.5022 38.525 78.5271L43.5026 75.4648Z" fill="#80C5DD"/>
<path d="M39.2877 106.942C39.2877 108.089 38.9207 108.886 38.3415 109.236L43.2675 106.369C43.9097 106.025 44.3169 105.187 44.3169 103.989V78.6305C44.2927 77.5267 44.014 76.4434 43.5026 75.465L38.525 78.5272C39.0029 79.4769 39.2634 80.521 39.2877 81.5838V106.942Z" fill="#80C5DD"/>
<path opacity="0.3" d="M43.5026 75.4648C43.0412 74.4835 42.3141 73.6512 41.4037 73.062L18.5973 59.8725C18.3348 59.6906 18.0312 59.577 17.7138 59.5419C17.3964 59.5069 17.0752 59.5515 16.7794 59.6718C16.7171 59.7006 16.6576 59.7351 16.6016 59.775L11.6412 62.6824C11.9447 62.5273 12.2849 62.4587 12.6247 62.484C12.9646 62.5093 13.2909 62.6275 13.568 62.8258L36.3745 76.0154C37.3158 76.6308 38.0619 77.5022 38.525 78.5271L43.5026 75.4648Z" fill="#081956"/>
<path opacity="0.6" d="M39.2877 106.942C39.2877 108.089 38.9207 108.886 38.3415 109.236L43.2675 106.369C43.9097 106.025 44.3169 105.187 44.3169 103.989V78.6305C44.2927 77.5267 44.014 76.4434 43.5026 75.465L38.525 78.5272C39.0029 79.4769 39.2634 80.521 39.2877 81.5838V106.942Z" fill="#081956"/>
<path d="M32.6011 88.8497C32.6011 92.1356 31.2994 93.2538 29.3496 92.1241C28.8117 91.8179 28.3414 91.406 27.9669 90.9132C27.5924 90.4205 27.3215 89.857 27.1705 89.2568C26.597 89.9622 25.7081 90.008 24.458 89.2855C22.405 88.0984 20.7879 85.2713 20.7879 82.5244C20.7879 79.7775 22.3878 78.8313 24.458 80.0241C25.5085 80.6432 26.357 81.5535 26.9009 82.6448V81.561L29.0629 82.8111V88.7522C29.0307 89.0648 29.0847 89.3803 29.2192 89.6644C29.3537 89.9485 29.5634 90.1903 29.8256 90.3636C30.5539 90.7879 31.0012 90.0711 31.0012 87.9436C31.0012 84.2218 28.6156 80.2764 25.0888 78.2407C21.562 76.2049 19.1822 77.6213 19.1822 81.452C19.2284 83.4847 19.7885 85.4726 20.8103 87.2304C21.8321 88.9882 23.2823 90.4587 25.0257 91.5048C25.9724 92.0879 27.0473 92.4305 28.1568 92.5026L28.6672 94.481C27.3753 94.3768 26.127 93.9659 25.0257 93.2825C20.4381 90.6274 17.4045 85.2827 17.4045 80.4427C17.4045 75.6028 20.4667 73.848 25.0888 76.5203C29.556 79.0951 32.6011 84.2505 32.6011 88.8497ZM26.9353 86.0913C26.9465 85.3642 26.7691 84.6465 26.4203 84.0083C26.0716 83.3701 25.5634 82.8332 24.9454 82.4499C23.7985 81.7789 22.9785 82.2491 22.9785 83.8089C22.9637 84.5373 23.137 85.2572 23.4815 85.899C23.8261 86.5409 24.3303 87.0831 24.9454 87.4733C26.0924 88.1214 26.9353 87.7027 26.9353 86.0913Z" fill="#80C5DD"/>
<g opacity="0.9">
<path d="M32.6011 88.8497C32.6011 92.1356 31.2994 93.2538 29.3496 92.1241C28.8117 91.8179 28.3414 91.406 27.9669 90.9132C27.5924 90.4205 27.3215 89.857 27.1705 89.2568C26.597 89.9622 25.7081 90.008 24.458 89.2855C22.405 88.0984 20.7879 85.2713 20.7879 82.5244C20.7879 79.7775 22.3878 78.8313 24.458 80.0241C25.5085 80.6432 26.357 81.5535 26.9009 82.6448V81.561L29.0629 82.8111V88.7522C29.0307 89.0648 29.0847 89.3803 29.2192 89.6644C29.3537 89.9485 29.5634 90.1903 29.8256 90.3636C30.5539 90.7879 31.0012 90.0711 31.0012 87.9436C31.0012 84.2218 28.6156 80.2764 25.0888 78.2407C21.562 76.2049 19.1822 77.6213 19.1822 81.452C19.2284 83.4847 19.7885 85.4726 20.8103 87.2304C21.8321 88.9882 23.2823 90.4587 25.0257 91.5048C25.9724 92.0879 27.0473 92.4305 28.1568 92.5026L28.6672 94.481C27.3753 94.3768 26.127 93.9659 25.0257 93.2825C20.4381 90.6274 17.4045 85.2827 17.4045 80.4427C17.4045 75.6028 20.4667 73.848 25.0888 76.5203C29.556 79.0951 32.6011 84.2505 32.6011 88.8497ZM26.9353 86.0913C26.9465 85.3642 26.7691 84.6465 26.4203 84.0083C26.0716 83.3701 25.5634 82.8332 24.9454 82.4499C23.7985 81.7789 22.9785 82.2491 22.9785 83.8089C22.9637 84.5373 23.137 85.2572 23.4815 85.899C23.8261 86.5409 24.3303 87.0831 24.9454 87.4733C26.0924 88.1214 26.9353 87.7027 26.9353 86.0913Z" fill="white"/>
</g>
<path d="M41.4038 118.239L18.5973 105.05C18.3352 104.867 18.0312 104.753 17.7134 104.719C17.3956 104.685 17.0744 104.732 16.7794 104.855C16.7171 104.884 16.6576 104.918 16.6017 104.958L11.6413 107.865H11.6757C11.0506 108.221 10.6549 109.047 10.6549 110.222V135.581C10.6549 137.731 11.9567 140.22 13.5681 141.149L36.3745 154.338C36.6633 154.549 37.0079 154.67 37.3651 154.685C37.7222 154.7 38.0759 154.61 38.3816 154.425L38.3415 154.459L43.2675 151.563C43.9098 151.225 44.3169 150.416 44.3169 149.183V123.802C44.3169 121.657 43.0381 119.168 41.4038 118.239Z" fill="#FBBC05"/>
<path d="M43.5026 120.642C43.0427 119.66 42.3153 118.827 41.4037 118.239L18.5973 105.05C18.3352 104.867 18.0312 104.753 17.7134 104.719C17.3956 104.685 17.0743 104.732 16.7794 104.855C16.7171 104.884 16.6576 104.918 16.6016 104.958L11.6412 107.865C11.944 107.709 12.284 107.639 12.624 107.663C12.964 107.687 13.2906 107.805 13.568 108.003L36.3745 121.193C37.3173 121.809 38.0636 122.683 38.525 123.71L43.5026 120.642Z" fill="#80C5DD"/>
<path d="M39.2877 152.114C39.2877 153.26 38.9207 154.058 38.3415 154.436L43.2675 151.54C43.9097 151.202 44.3169 150.393 44.3169 149.16V123.802C44.2926 122.7 44.0139 121.619 43.5026 120.642L38.525 123.704C39.0028 124.652 39.2633 125.694 39.2877 126.755V152.114Z" fill="#80C5DD"/>
<path opacity="0.3" d="M43.5026 120.642C43.0427 119.66 42.3153 118.827 41.4037 118.239L18.5973 105.05C18.3352 104.867 18.0312 104.753 17.7134 104.719C17.3956 104.685 17.0743 104.732 16.7794 104.855C16.7171 104.884 16.6576 104.918 16.6016 104.958L11.6412 107.865C11.944 107.709 12.284 107.639 12.624 107.663C12.964 107.687 13.2906 107.805 13.568 108.003L36.3745 121.193C37.3173 121.809 38.0636 122.683 38.525 123.71L43.5026 120.642Z" fill="#FBBC05"/>
<path opacity="0.6" d="M39.2877 152.114C39.2877 153.26 38.9207 154.058 38.3415 154.436L43.2675 151.54C43.9097 151.202 44.3169 150.393 44.3169 149.16V123.802C44.2926 122.7 44.0139 121.619 43.5026 120.642L38.525 123.704C39.0028 124.652 39.2633 125.694 39.2877 126.755V152.114Z" fill="#FBBC05"/>
<path d="M22.4223 129.577L16.9228 120.642V132.748L22.4223 129.577Z" fill="#80C5DD"/>
<path d="M27.5319 132.152L33.0199 141.654V129.565L27.5319 132.152Z" fill="#80C5DD"/>
<path d="M17.7543 120.235L23.4028 129.41C23.4267 129.43 23.4479 129.453 23.4659 129.479C23.4709 129.502 23.4709 129.525 23.4659 129.548L25.1461 132.277L26.5683 131.607C26.5905 131.582 26.6155 131.561 26.6429 131.543C26.6989 131.511 26.7617 131.491 26.8264 131.486L32.561 128.797L17.7543 120.235Z" fill="#80C5DD"/>
<path d="M26.7003 132.541L25.1634 133.264C25.1042 133.291 25.0395 133.305 24.9742 133.304C24.8951 133.305 24.817 133.285 24.7477 133.247C24.6783 133.209 24.6201 133.153 24.5785 133.086L22.8983 130.356L17.3816 133.545L32.2285 142.112L26.7003 132.541Z" fill="#80C5DD"/>
<g opacity="0.9">
<path d="M22.4223 129.577L16.9228 120.642V132.748L22.4223 129.577Z" fill="white"/>
<path d="M27.5317 132.152L33.0197 141.654V129.565L27.5317 132.152Z" fill="white"/>
<path d="M17.7543 120.235L23.4028 129.41C23.4267 129.43 23.4479 129.454 23.4659 129.479C23.4709 129.502 23.4709 129.525 23.4659 129.548L25.1461 132.278L26.5683 131.607C26.5905 131.583 26.6155 131.561 26.6429 131.544C26.6989 131.511 26.7617 131.491 26.8264 131.486L32.561 128.797L17.7543 120.235Z" fill="white"/>
<path d="M26.7003 132.541L25.1634 133.264C25.1042 133.292 25.0395 133.305 24.9742 133.304C24.8951 133.305 24.817 133.285 24.7477 133.247C24.6783 133.209 24.6201 133.154 24.5785 133.086L22.8983 130.357L17.3816 133.545L32.2285 142.112L26.7003 132.541Z" fill="white"/>
</g>
<path d="M41.4038 27.9081L18.5973 14.7186C18.3352 14.5356 18.0312 14.4219 17.7134 14.3878C17.3956 14.3537 17.0744 14.4004 16.7794 14.5236C16.7171 14.5524 16.6576 14.5869 16.6017 14.6268L11.6413 17.5342H11.6757C11.0506 17.884 10.6549 18.7156 10.6549 19.8911V45.2495C10.6549 47.3942 11.9567 49.8888 13.5681 50.8178L36.3745 64.0073C36.6633 64.218 37.0079 64.3386 37.3651 64.3539C37.7222 64.3692 38.0759 64.2786 38.3816 64.0933L38.3415 64.122L43.2675 61.2547C43.9098 60.9164 44.3169 60.1078 44.3169 58.8749V33.4534C44.3169 31.3087 43.0381 28.8142 41.4038 27.9081Z" fill="#80C5DD"/>
<path d="M43.5026 30.2937C43.0429 29.3098 42.3155 28.4751 41.4037 27.8852L18.5973 14.7186C18.3352 14.5356 18.0312 14.4219 17.7134 14.3878C17.3956 14.3537 17.0743 14.4004 16.7794 14.5236C16.7171 14.5524 16.6576 14.5869 16.6016 14.6268L11.6412 17.5342C11.944 17.3777 12.284 17.3077 12.624 17.332C12.964 17.3563 13.2906 17.4739 13.568 17.6719L36.3745 30.8614C37.3173 31.4777 38.0636 32.3514 38.525 33.3789L43.5026 30.2937Z" fill="#80C5DD"/>
<path d="M39.2877 61.7422C39.2877 62.8891 38.9207 63.6862 38.3415 64.036L43.2675 61.1687C43.9097 60.8304 44.3169 60.0218 44.3169 58.7888V33.4534C44.2926 32.3515 44.0139 31.2701 43.5026 30.2937L38.525 33.356C39.0028 34.3036 39.2633 35.3458 39.2877 36.4068V61.7422Z" fill="#80C5DD"/>
<path opacity="0.3" d="M43.5026 30.2937C43.0429 29.3098 42.3155 28.4751 41.4037 27.8852L18.5973 14.7186C18.3352 14.5356 18.0312 14.4219 17.7134 14.3878C17.3956 14.3537 17.0743 14.4004 16.7794 14.5236C16.7171 14.5524 16.6576 14.5869 16.6016 14.6268L11.6412 17.5342C11.944 17.3777 12.284 17.3077 12.624 17.332C12.964 17.3563 13.2906 17.4739 13.568 17.6719L36.3745 30.8614C37.3173 31.4777 38.0636 32.3514 38.525 33.3789L43.5026 30.2937Z" fill="black"/>
<path opacity="0.6" d="M39.2877 61.7422C39.2877 62.8891 38.9207 63.6862 38.3415 64.036L43.2675 61.1687C43.9097 60.8304 44.3169 60.0218 44.3169 58.7888V33.4534C44.2926 32.3515 44.0139 31.2701 43.5026 30.2937L38.525 33.356C39.0028 34.3036 39.2633 35.3458 39.2877 36.4068V61.7422Z" fill="black"/>
<path d="M31.827 50.8467C30.9497 49.4016 30.0665 47.9794 29.1891 46.5228C29.05 46.2469 28.8554 46.0027 28.6176 45.8053C28.3798 45.608 28.1039 45.4618 27.8071 45.3759C27.3827 45.2899 26.9584 45.1924 26.5226 45.0662C26.3673 45.0015 26.2368 44.889 26.1498 44.7451C24.7141 42.2879 23.5727 39.6702 22.7492 36.946C22.7317 36.8878 22.7267 36.8265 22.7346 36.7662C22.7425 36.7059 22.7631 36.648 22.7951 36.5962C23.0646 36.3267 23.3685 36.0801 23.6438 35.8393C23.9191 35.5984 24.0624 35.0422 23.8617 34.3196C23.4373 32.7885 23.0302 31.2573 22.6058 29.7319C22.5237 29.2985 22.3289 28.8944 22.041 28.5601C21.7531 28.2259 21.3822 27.9734 20.9657 27.8281C20.041 27.5709 19.0592 27.607 18.1558 27.9313C17.806 28.0632 17.6225 28.3786 17.6167 28.9234C17.7658 29.9728 17.8633 31.0107 18.064 32.0774C19.4786 39.7694 22.8811 46.842 28.2716 53.2953C28.4123 53.5093 28.6014 53.6873 28.8235 53.8148C29.0457 53.9423 29.2947 54.0158 29.5504 54.0294C30.4429 54.0082 31.3002 53.6778 31.9761 53.0946C32.4865 52.6359 32.4349 51.8216 31.827 50.8467Z" fill="#80C5DD"/>
<path d="M31.7582 43.0303C31.6382 41.3808 31.1836 39.773 30.422 38.305C29.8534 37.1581 29.1298 36.0949 28.2715 35.1452C28.0479 34.8929 27.8587 34.8126 27.744 35.0018C27.6293 35.1911 27.744 35.4606 27.9619 35.7072L28.1855 35.9652C29.7706 37.7949 30.7695 40.0584 31.0528 42.4625C31.05 42.6379 31.0673 42.813 31.1044 42.9844C31.1765 43.1816 31.2921 43.36 31.4428 43.5062C31.5632 43.5922 31.7008 43.5062 31.7983 43.5062C31.7639 43.2711 31.7696 43.1507 31.7582 43.0303Z" fill="#80C5DD"/>
<path d="M26.5627 38.3223C27.2828 39.1143 27.7204 40.1226 27.8071 41.1896C27.8449 41.3518 27.9047 41.5081 27.9849 41.6541C28.3347 41.9408 28.5067 41.8433 28.5067 41.482C28.3841 40.114 27.8183 38.8233 26.8953 37.8062C26.6774 37.5825 26.4996 37.5137 26.3964 37.7029C26.3593 37.811 26.3553 37.9277 26.3849 38.038C26.4145 38.1484 26.4764 38.2474 26.5627 38.3223Z" fill="#80C5DD"/>
<g opacity="0.9">
<path d="M31.827 50.8467C30.9497 49.4016 30.0665 47.9794 29.1891 46.5228C29.05 46.2469 28.8554 46.0027 28.6176 45.8053C28.3798 45.608 28.1039 45.4618 27.8071 45.3759C27.3827 45.2899 26.9584 45.1924 26.5226 45.0662C26.3673 45.0015 26.2368 44.889 26.1498 44.7451C24.7141 42.2879 23.5727 39.6702 22.7492 36.946C22.7317 36.8878 22.7267 36.8265 22.7346 36.7662C22.7425 36.7059 22.7631 36.648 22.7951 36.5962C23.0646 36.3267 23.3685 36.0801 23.6438 35.8393C23.9191 35.5984 24.0624 35.0422 23.8617 34.3196C23.4373 32.7885 23.0302 31.2573 22.6058 29.7319C22.5237 29.2985 22.3289 28.8944 22.041 28.5601C21.7531 28.2259 21.3822 27.9734 20.9657 27.8281C20.041 27.5709 19.0592 27.607 18.1558 27.9313C17.806 28.0632 17.6225 28.3786 17.6167 28.9234C17.7658 29.9728 17.8633 31.0107 18.064 32.0774C19.4786 39.7694 22.8811 46.842 28.2716 53.2953C28.4123 53.5093 28.6014 53.6873 28.8235 53.8148C29.0457 53.9423 29.2947 54.0158 29.5504 54.0294C30.4429 54.0082 31.3002 53.6778 31.9761 53.0946C32.4865 52.6359 32.4349 51.8216 31.827 50.8467Z" fill="white"/>
<path d="M31.7582 43.0302C31.6383 41.3808 31.1836 39.773 30.4221 38.3049C29.8535 37.1581 29.1299 36.0949 28.2716 35.1452C28.0479 34.8929 27.8587 34.8126 27.744 35.0018C27.6293 35.1911 27.744 35.4606 27.9619 35.7072L28.1856 35.9652C29.7706 37.7949 30.7695 40.0584 31.0529 42.4625C31.0501 42.6379 31.0674 42.813 31.1045 42.9844C31.1765 43.1816 31.2922 43.36 31.4428 43.5062C31.5632 43.5922 31.7009 43.5062 31.7984 43.5062C31.764 43.2711 31.7697 43.1507 31.7582 43.0302Z" fill="white"/>
<path d="M26.5627 38.3223C27.2829 39.1143 27.7204 40.1226 27.8071 41.1896C27.8449 41.3518 27.9047 41.5081 27.9849 41.6541C28.3347 41.9408 28.5068 41.8433 28.5068 41.482C28.3842 40.114 27.8184 38.8233 26.8953 37.8062C26.6774 37.5825 26.4997 37.5137 26.3964 37.7029C26.3593 37.811 26.3553 37.9277 26.3849 38.038C26.4146 38.1484 26.4765 38.2473 26.5627 38.3223Z" fill="white"/>
</g>
<path d="M158.418 12.6999L163.791 15.7564V13.8525C163.791 13.7206 163.791 13.583 163.791 13.4511C163.791 13.3192 163.791 13.1931 163.791 13.0669V12.9981C163.986 10.4806 165.896 9.51145 168.224 10.8591C169.278 11.5074 170.181 12.3736 170.873 13.3995C171.395 9.95875 174.188 8.74301 177.566 10.687C181.316 12.8547 184.355 18.142 184.355 22.4544V26.526C184.35 26.8517 184.43 27.173 184.588 27.4579C184.746 27.7427 184.977 27.981 185.256 28.1488L188.421 30.0011C189.104 30.4062 189.671 30.9816 190.065 31.6712C190.459 32.3608 190.667 33.1408 190.669 33.935C190.669 34.2645 190.583 34.5883 190.418 34.8736C190.253 35.1589 190.016 35.3957 189.73 35.5603C189.445 35.7248 189.121 35.8112 188.792 35.8108C188.462 35.8104 188.139 35.7232 187.854 35.5579L158.498 18.5893C157.719 18.137 157.073 17.4889 156.622 16.7092C156.171 15.9296 155.932 15.0455 155.929 14.145C155.929 13.8535 156.005 13.567 156.15 13.3144C156.296 13.0617 156.505 12.8516 156.757 12.7052C157.009 12.5589 157.295 12.4813 157.587 12.4804C157.878 12.4794 158.165 12.5551 158.418 12.6999Z" fill="#E6E6E6"/>
<path d="M199.38 11.9029L203.285 14.1452V12.7459C203.285 12.6484 203.285 12.5509 203.285 12.4534C203.285 12.356 203.285 12.2642 203.285 12.1725V12.138C203.429 10.3087 204.816 9.60336 206.508 10.584C207.274 11.0534 207.931 11.681 208.435 12.4248C208.819 9.93597 210.849 9.03564 213.304 10.4521C216.033 12.0291 218.241 15.8598 218.241 19.0081V21.9729C218.243 22.2053 218.306 22.4332 218.422 22.6342C218.539 22.8353 218.706 23.0026 218.906 23.1198L221.2 24.4674C221.699 24.7609 222.113 25.1801 222.4 25.6832C222.686 26.1862 222.836 26.7556 222.834 27.3347C222.834 27.5719 222.772 27.8048 222.654 28.0107C222.536 28.2165 222.367 28.388 222.163 28.5084C221.958 28.6288 221.726 28.6939 221.489 28.6973C221.252 28.7006 221.018 28.6421 220.81 28.5275L199.437 16.1867C198.871 15.859 198.401 15.3883 198.074 14.8217C197.747 14.255 197.574 13.6124 197.574 12.9581C197.573 12.7463 197.628 12.5382 197.734 12.3544C197.839 12.1707 197.99 12.0177 198.173 11.9109C198.356 11.8041 198.564 11.7472 198.776 11.7458C198.987 11.7444 199.196 11.7986 199.38 11.9029Z" fill="#E6E6E6"/>
</svg>
