<svg width="26" height="26" viewBox="0 0 26 26" fill="none" xmlns="http://www.w3.org/2000/svg">
<path d="M13 26C9.38889 26 6.31944 24.7361 3.79167 22.2083C1.26389 19.6806 0 16.6111 0 13C0 9.38889 1.26389 6.31944 3.79167 3.79167C6.31944 1.26389 9.38889 0 13 0C13.337 0 13.6683 0.0120372 13.9938 0.0361112C14.3183 0.0601853 14.637 0.0962962 14.95 0.144444C13.963 0.842592 13.1748 1.75115 12.5854 2.87011C11.9951 3.99004 11.7 5.2 11.7 6.5C11.7 8.66667 12.4583 10.5083 13.975 12.025C15.4917 13.5417 17.3333 14.3 19.5 14.3C20.8241 14.3 22.0398 14.0049 23.1472 13.4146C24.2546 12.8252 25.1574 12.037 25.8556 11.05C25.9037 11.363 25.9398 11.6817 25.9639 12.0062C25.988 12.3317 26 12.663 26 13C26 16.6111 24.7361 19.6806 22.2083 22.2083C19.6806 24.7361 16.6111 26 13 26Z" fill="#80C5DD"/>
</svg>
