<svg width="306" height="264" viewBox="0 0 306 264" fill="none" xmlns="http://www.w3.org/2000/svg">
<path d="M44.812 243.055C104.558 270.981 201.435 270.981 261.188 243.055C320.941 215.13 320.934 169.86 261.188 141.934C201.442 114.008 104.558 114.008 44.812 141.934C-14.934 169.86 -14.9407 215.13 44.812 243.055Z" fill="#F5F5F5"/>
<path d="M279.903 208.225C265.479 214.845 242.134 214.768 227.757 208.051C213.38 201.334 213.42 190.532 227.843 183.912C242.267 177.292 265.612 177.376 279.989 184.087C294.366 190.797 294.326 201.592 279.903 208.225Z" fill="#E0E0E0"/>
<path d="M197.828 10.3636L202.352 12.8994C202.352 12.7058 202.312 12.5123 202.312 12.3187V11.0282C202.312 8.76343 203.953 7.84074 205.973 8.97636C206.841 9.49358 207.585 10.1869 208.152 11.0089C208.484 8.16336 210.809 7.09872 213.58 8.66664C216.603 10.3636 219.054 14.4738 219.054 17.8742V19.8099C219.073 20.5695 218.916 21.3235 218.596 22.0166L222.349 24.1201C222.941 24.495 223.433 25 223.786 25.5941C224.14 26.1882 224.344 26.8548 224.382 27.5398C224.382 28.7916 223.472 29.3013 222.349 28.6755L197.828 14.9125C197.236 14.5394 196.743 14.0357 196.39 13.4425C196.037 12.8494 195.833 12.1835 195.795 11.4992C195.795 10.2475 196.705 9.73774 197.828 10.3636Z" fill="#EBEBEB"/>
<path d="M178.455 23.1713L181.87 25.107C181.87 24.9586 181.87 24.8102 181.87 24.6682V23.6875C181.87 21.9776 183.106 21.2807 184.634 22.1389C185.288 22.5295 185.848 23.0535 186.275 23.6746C186.527 21.5259 188.268 20.7258 190.374 21.9066C191.577 22.667 192.579 23.6927 193.297 24.9003C194.015 26.108 194.429 27.4633 194.506 28.8558V30.2947C194.522 30.8685 194.401 31.4381 194.154 31.9594L196.991 33.5532C197.439 33.8346 197.811 34.2153 198.078 34.664C198.345 35.1127 198.498 35.6166 198.525 36.1341C198.525 37.0826 197.861 37.4697 196.991 36.9923L178.455 26.6039C178.009 26.321 177.638 25.9398 177.373 25.4913C177.107 25.0428 176.954 24.5397 176.927 24.023C176.927 23.081 177.611 22.6938 178.455 23.1713Z" fill="#EBEBEB"/>
<path d="M57.0429 186.282L61.441 183.843C61.441 183.843 63.5537 172.538 61.9791 162.821C59.7535 149.155 50.1801 144.444 46.6988 145.799C43.2176 147.154 42.4004 151.206 48.6919 159.104C52.3924 163.756 57.1559 173.603 57.0429 186.282Z" fill="#081956"/>
<g opacity="0.1">
<path d="M57.0429 186.282L61.441 183.843C61.441 183.843 63.5537 172.538 61.9791 162.821C59.7535 149.155 50.1801 144.444 46.6988 145.799C43.2176 147.154 42.4004 151.206 48.6919 159.104C52.3924 163.756 57.1559 173.603 57.0429 186.282Z" fill="black"/>
</g>
<path d="M58.6374 180.855H58.5909C58.509 180.844 58.435 180.801 58.3852 180.737C58.3354 180.673 58.3138 180.593 58.3251 180.513C60.1455 167.718 54.8505 153.71 48.8979 148.058C48.8388 148.001 48.8053 147.924 48.8047 147.844C48.8041 147.763 48.8364 147.686 48.8945 147.629C48.9527 147.571 49.0319 147.539 49.1147 147.538C49.1976 147.537 49.2773 147.569 49.3363 147.625C55.3953 153.374 60.7966 167.628 58.9496 180.597C58.9372 180.669 58.899 180.734 58.8419 180.781C58.7848 180.828 58.7124 180.854 58.6374 180.855Z" fill="white"/>
<path d="M44.8253 193.14C44.1609 193.527 42.6927 192.676 42.1679 192.321C41.2272 191.696 40.4676 190.848 39.9622 189.856C39.3934 188.733 39.2006 187.465 39.4108 186.23C39.5173 185.574 39.675 184.927 39.8825 184.294C40.0685 183.649 40.2479 183.042 40.4339 182.416C40.6602 181.811 40.7574 181.168 40.7195 180.526C40.5468 179.235 39.3908 178.351 38.3146 177.577C37.1386 176.719 35.9096 175.59 35.9162 174.048C36.006 172.852 36.4986 171.718 37.318 170.821C38.0754 169.892 38.9789 169.066 39.6632 168.079C40.2025 167.39 40.4838 166.544 40.4604 165.679C40.3893 165.15 40.2085 164.641 39.929 164.182C39.282 163.228 38.7154 162.224 38.2348 161.181C37.8495 160.104 37.9093 158.762 38.773 157.988C39.161 157.709 39.6024 157.509 40.0713 157.398C40.5401 157.287 41.0271 157.268 41.5035 157.342C42.3966 157.445 43.2559 157.736 44.0214 158.194C46.546 159.556 48.0076 162.459 50.665 163.504C51.7258 163.826 52.8065 164.083 53.9005 164.272C54.4468 164.373 54.9655 164.583 55.4232 164.89C55.8808 165.196 56.2674 165.593 56.5579 166.053C57.5412 167.956 55.7208 170.305 56.4118 172.325C57.023 174.119 58.8101 174.802 59.8199 176.416C60.2293 177.128 60.3923 177.949 60.285 178.758C60.1999 180.126 59.8553 181.467 59.2685 182.713C58.6183 183.956 57.8721 185.148 57.0363 186.281C56.9964 186.32 44.9316 193.076 44.8253 193.14Z" fill="#081956"/>
<path d="M51.9937 189.437C51.9521 189.436 51.9111 189.427 51.8731 189.411C51.8351 189.394 51.8009 189.37 51.7724 189.341C51.744 189.312 51.7218 189.277 51.7074 189.239C51.6929 189.201 51.6863 189.161 51.6881 189.121C52.2063 177.016 46.3334 163.653 42.0615 159.769C42.0314 159.741 42.0072 159.708 41.9902 159.671C41.9733 159.635 41.9639 159.595 41.9627 159.555C41.9615 159.515 41.9684 159.475 41.9831 159.438C41.9977 159.4 42.0199 159.366 42.0482 159.336C42.0766 159.307 42.1106 159.284 42.1483 159.267C42.186 159.251 42.2267 159.242 42.268 159.24C42.3094 159.239 42.3505 159.246 42.3892 159.26C42.4279 159.274 42.4633 159.296 42.4934 159.323C46.8516 163.285 52.8441 176.867 52.3193 189.146C52.3176 189.186 52.3078 189.225 52.2905 189.261C52.2732 189.298 52.2487 189.33 52.2185 189.357C52.1883 189.384 52.1528 189.405 52.1143 189.419C52.0757 189.432 52.0347 189.438 51.9937 189.437Z" fill="white"/>
<path d="M50.1004 175.138H50.0073C47.056 174.345 44.0238 173.869 40.9654 173.719C40.9244 173.717 40.8841 173.708 40.8469 173.691C40.8096 173.674 40.7762 173.65 40.7484 173.621C40.7206 173.591 40.6991 173.557 40.685 173.52C40.671 173.482 40.6646 173.442 40.6664 173.403C40.6663 173.362 40.6748 173.322 40.6914 173.285C40.7081 173.248 40.7325 173.215 40.7632 173.188C40.7938 173.16 40.83 173.139 40.8694 173.126C40.9088 173.113 40.9505 173.109 40.992 173.112C44.1036 173.259 47.1892 173.737 50.1934 174.538C50.2753 174.55 50.349 174.593 50.3982 174.658C50.4474 174.723 50.4681 174.804 50.4558 174.883C50.4435 174.963 50.3991 175.034 50.3324 175.082C50.2658 175.13 50.1823 175.15 50.1004 175.138Z" fill="white"/>
<path d="M43.1909 201.457V196.702H44.4001C45.8085 193.927 48.4394 191.314 52.3259 189.139C64.5169 182.3 84.2817 182.3 96.4727 189.139C100.366 191.314 102.997 193.927 104.405 196.702H105.601V201.302C105.701 205.819 102.665 210.419 96.4727 213.891C84.2817 220.724 64.5169 220.724 52.3259 213.891C46.2071 210.458 43.1643 205.954 43.1909 201.457Z" fill="#263238"/>
<path d="M96.5059 184.32C84.3149 177.486 64.5501 177.486 52.3591 184.32C40.168 191.153 40.168 202.238 52.3591 209.077C64.5501 215.917 84.3149 215.91 96.5059 209.077C108.697 202.244 108.664 191.159 96.5059 184.32Z" fill="#FBBC05"/>
<path d="M82.4413 111.356V194.592C82.4413 195.74 81.6573 196.895 80.0894 197.773C76.9536 199.534 71.8646 199.534 68.7288 197.773C67.161 196.895 66.377 195.74 66.377 194.592V111.356H82.4413Z" fill="#FBBC05"/>
<path d="M66.3705 131.036V136.675L82.4414 145.67V140.069L66.3705 131.036Z" fill="#263238"/>
<path d="M157.84 57.5497L156.471 60.2146L141.756 88.8631L134.773 102.478L111.122 148.509L108.518 153.58C108.363 153.58 108.21 153.58 108.059 153.58C107.131 153.592 106.215 153.369 105.402 152.935L11.1953 100.026C10.4229 99.5375 9.77976 98.8794 9.31806 98.1048C8.85636 97.3301 8.58907 96.4608 8.53784 95.5671V56.1431C8.53784 36.4311 21.8982 12.9638 38.3943 3.71114C46.2404 -0.670017 53.3225 -1.0249 58.6374 1.87222V1.8335L157.84 57.5497Z" fill="#FBBC05"/>
<path d="M137.942 59.6338C131.299 62.0276 107.063 81.4557 107.063 112.046C107.063 137.766 107.096 151.116 107.103 153.516C107.425 153.57 107.752 153.598 108.079 153.6C108.234 153.6 108.387 153.6 108.538 153.6L111.142 148.528L134.773 102.497L141.756 88.8888L143.357 85.7723L137.942 59.6338Z" fill="#37474F"/>
<path d="M166.503 121.273C166.225 121.695 165.85 122.049 165.407 122.306L165.134 122.473L110.737 152.974C110.061 153.33 109.312 153.535 108.544 153.574C108.389 153.574 108.236 153.574 108.086 153.574V112.021C108.086 104.923 109.826 97.3608 112.816 90.1276L115.473 91.6375L134.74 102.452L164.683 119.228L166.217 120.086C166.329 120.133 166.428 120.206 166.506 120.297C166.584 120.388 166.639 120.495 166.666 120.61C166.694 120.725 166.694 120.845 166.665 120.96C166.637 121.076 166.581 121.183 166.503 121.273Z" fill="#081956"/>
<path d="M157.84 57.556C152.565 54.8654 145.589 55.3364 137.942 59.6337C129.365 64.4278 121.625 73.0998 116.191 83.0751C114.933 85.3802 113.804 87.7495 112.809 90.1728C109.82 97.4059 108.079 104.974 108.079 112.066V153.619C108.234 153.619 108.387 153.619 108.537 153.619C109.305 153.581 110.054 153.376 110.73 153.019L165.128 122.518L165.4 122.351C165.816 122.061 166.186 121.713 166.496 121.318C167.263 120.402 167.71 119.272 167.772 118.092V78.5714C167.779 68.0089 163.939 60.6661 157.84 57.556ZM163.925 119.692L111.939 148.844C111.5 149.089 111.142 148.889 111.142 148.399V112.046C111.142 105.704 112.65 98.6705 115.493 91.6632C115.54 91.5274 115.593 91.3939 115.653 91.2632C116.704 88.6981 117.914 86.1966 119.274 83.772C124.555 74.2935 131.777 66.5055 139.477 62.2082C143.43 59.9821 147.177 58.8594 150.605 58.8594C152.646 58.8359 154.661 59.3037 156.471 60.2208C161.673 62.9115 164.716 69.4477 164.716 78.5714V118.402C164.694 118.661 164.612 118.913 164.475 119.136C164.338 119.36 164.15 119.55 163.925 119.692Z" fill="#455A64"/>
<path d="M218.184 164.711V161.078H217.832V161.594C217.605 160.585 217.278 159.6 216.855 158.652C214.862 154.2 210.75 149.928 204.425 146.392L169.247 126.667C168.423 126.261 167.513 126.049 166.589 126.049C165.666 126.049 164.755 126.261 163.932 126.667L110.119 156.826C109.449 156.311 108.872 155.692 108.411 154.993V158.658C108.441 158.979 108.559 159.286 108.751 159.548C108.944 159.81 109.205 160.017 109.507 160.149L144.719 179.867C154.133 185.152 166.443 187.746 178.369 187.61C188.686 187.481 198.718 185.287 206.365 180.996C214.271 176.583 218.17 170.724 218.17 164.743L218.184 164.711Z" fill="#263238"/>
<path d="M216.855 158.652C214.862 154.2 210.75 149.928 204.425 146.392L169.247 126.667C168.423 126.261 167.513 126.049 166.589 126.049C165.666 126.049 164.755 126.261 163.932 126.667L110.119 156.826L144.665 176.183C154.079 181.467 166.39 184.061 178.315 183.926C188.633 183.79 198.665 181.603 206.312 177.312C213.407 173.344 217.287 168.221 217.998 162.885C217.83 161.427 217.445 160.001 216.855 158.652Z" fill="#FBBC05"/>
<path d="M218.084 162.878C217.897 161.42 217.492 159.997 216.882 158.652C214.888 154.2 210.776 149.928 204.451 146.393L169.273 126.668C168.45 126.261 167.539 126.05 166.616 126.05C165.692 126.05 164.782 126.261 163.958 126.668L110.145 156.826L109.534 156.491C108.072 155.665 108.072 154.335 109.534 153.516L163.932 123.009C164.755 122.603 165.666 122.391 166.589 122.391C167.513 122.391 168.423 122.603 169.247 123.009L204.425 142.734C210.749 146.283 214.888 150.554 216.855 154.994C217.501 156.43 217.92 157.952 218.097 159.51C218.231 160.629 218.226 161.76 218.084 162.878Z" fill="#37474F"/>
<path d="M164.716 78.5714V119.273L115.493 91.6633C115.54 91.5274 115.593 91.3939 115.653 91.2633C120.928 78.4553 129.83 67.596 139.477 62.2276C143.43 60.0015 147.177 58.8788 150.605 58.8788C159.308 58.8594 164.716 66.4087 164.716 78.5714Z" fill="#081956"/>
<path d="M76.0902 109.782L80.4218 107.356H80.455C81.9365 106.543 83.9761 106.665 86.2283 107.93C90.7593 110.472 94.4332 116.653 94.4332 121.738C94.4332 124.274 93.5164 126.061 92.0415 126.9L88.0155 129.139L87.2847 127.958C86.4587 127.779 85.6656 127.479 84.9328 127.068C80.4019 124.525 76.7213 118.344 76.7213 113.259C76.7231 112.574 76.8101 111.892 76.9804 111.227L76.0902 109.782Z" fill="#E0E0E0"/>
<path d="M82.0626 110.24C86.5936 112.782 90.2742 118.964 90.2742 124.048C90.2742 129.133 86.5936 131.191 82.0626 128.649C77.5317 126.106 73.8511 119.925 73.8511 114.84C73.8511 109.756 77.5251 107.698 82.0626 110.24Z" fill="#FAFAFA"/>
<path d="M82.0626 121.628C81.4318 121.628 80.8269 121.385 80.3808 120.952C79.9348 120.519 79.6842 119.931 79.6842 119.318V53.9687C79.6842 53.3561 79.9348 52.7685 80.3808 52.3353C80.8269 51.9021 81.4318 51.6588 82.0626 51.6588C82.6934 51.6588 83.2984 51.9021 83.7444 52.3353C84.1904 52.7685 84.441 53.3561 84.441 53.9687V119.325C84.4393 119.936 84.1879 120.522 83.7421 120.954C83.2962 121.386 82.6923 121.628 82.0626 121.628Z" fill="#EBEBEB"/>
<path d="M79.6843 60.4276L55.8337 47.0583L63.3012 61.0019L55.8337 66.5832L79.6843 79.9525V60.4276Z" fill="#FF0000"/>
<path d="M204.213 120.789C204.189 120.353 204.059 119.929 203.834 119.551C203.609 119.173 203.295 118.852 202.917 118.615L136.687 81.475C136.287 81.2777 135.844 81.1749 135.395 81.1749C134.946 81.1749 134.503 81.2777 134.103 81.475L132.641 82.2944C132.263 82.5326 131.949 82.8545 131.723 83.2336C131.498 83.6127 131.369 84.0382 131.346 84.4753V133.778C131.371 134.214 131.502 134.639 131.727 135.018C131.952 135.396 132.265 135.719 132.641 135.959L198.871 173.092C199.273 173.29 199.717 173.392 200.167 173.392C200.617 173.392 201.061 173.29 201.462 173.092L202.917 172.273C203.293 172.034 203.606 171.713 203.831 171.335C204.056 170.957 204.187 170.534 204.213 170.098V120.789Z" fill="#80C5DD"/>
<path opacity="0.4" d="M203.834 119.551L200.146 121.628L131.717 83.2368C131.935 82.8522 132.251 82.5279 132.634 82.2948L134.096 81.4818C134.495 81.2815 134.938 81.1769 135.388 81.1769C135.837 81.1769 136.28 81.2815 136.68 81.4818L202.91 118.615C203.295 118.846 203.613 119.168 203.834 119.551Z" fill="white"/>
<path opacity="0.1" d="M204.212 120.789V170.092C204.189 170.529 204.06 170.955 203.835 171.334C203.609 171.713 203.295 172.035 202.917 172.273L201.475 173.092C201.361 173.154 201.241 173.206 201.116 173.247C200.944 173.303 200.766 173.342 200.585 173.363C200.244 173.407 199.899 173.397 199.562 173.331L199.309 173.266L199.157 173.208C199.254 173.249 199.359 173.269 199.465 173.269C199.572 173.269 199.677 173.249 199.774 173.208C199.912 173.119 200.023 172.995 200.093 172.85C200.163 172.704 200.191 172.542 200.173 172.383V123.061C200.187 122.838 200.131 122.616 200.012 122.425C199.894 122.234 199.718 122.082 199.509 121.989L200.173 121.609L203.847 119.551C204.075 119.927 204.2 120.353 204.212 120.789Z" fill="black"/>
<path opacity="0.2" d="M200.146 121.628L169.479 132.759C168.418 133.144 167.254 133.166 166.178 132.823C165.102 132.479 164.178 131.79 163.56 130.868L158.637 123.538L131.471 83.114L157.654 123.816L131.332 133.817C131.355 134.263 131.494 134.696 131.737 135.075L157.727 123.932L163.447 132.823C164.083 133.811 165.065 134.544 166.212 134.886C167.359 135.229 168.594 135.158 169.692 134.688L173.765 132.939L199.748 173.215C199.886 173.126 199.996 173.002 200.066 172.856C200.137 172.711 200.164 172.549 200.146 172.389V171.563L173.904 132.868L200.146 121.628Z" fill="black"/>
<path d="M273.804 182.926L272.668 181.294C272.668 181.294 262.703 164.711 260.656 161.452C258.61 158.194 251.236 153.174 251.236 153.174L252.013 122.667L234.693 125.113C234.554 128.752 235.138 142.663 237.849 149.632C239.344 153.591 241.236 157.399 243.496 161.001C244.307 162.356 268.536 185.404 268.536 185.404L269.24 186.152C269.706 186.671 270.345 187.015 271.046 187.124C271.746 187.232 272.464 187.098 273.073 186.746L273.133 186.707C273.733 186.288 274.14 185.657 274.266 184.95C274.391 184.243 274.225 183.516 273.804 182.926Z" fill="#FFA8A7"/>
<path d="M271.824 179.874L268.715 174.712C268.715 174.712 268.762 177.138 267.087 178.583C265.991 179.482 264.695 180.121 263.301 180.448L267.566 184.52C267.566 184.52 271.778 184.429 271.824 179.874Z" fill="#F0F0F0"/>
<path d="M277.877 186.952C277.737 186.197 276.8 185.152 276.196 184.487C274.98 183.01 272.176 178.474 271.638 177.893C271.585 177.814 271.513 177.75 271.427 177.705C271.342 177.661 271.247 177.637 271.15 177.637C271.053 177.637 270.958 177.661 270.873 177.705C270.787 177.75 270.715 177.814 270.662 177.893L271.067 178.57C271.067 178.57 271.645 179.771 270.104 181.797C269.439 182.661 267.413 183.655 266.403 183.397L265.845 182.868C265.427 183.7 266.104 184.158 267.353 185.352C268.602 186.546 268.15 188.914 267.758 189.972C266.969 191.725 265.781 193.283 264.284 194.527C261.294 197.108 261.181 198.037 262.51 198.876C263.639 199.586 266.955 199.928 269.439 198.876C271.711 197.934 272.562 196.676 272.987 194.553C273.412 192.43 274.741 191.746 275.89 190.785C277.04 189.823 278.056 188.088 277.877 186.952Z" fill="#263238"/>
<path d="M260.869 125.197L238.048 122.203H236.494C236.494 122.203 235.896 126.719 239.669 131.817C240.979 133.667 242.494 135.372 244.187 136.901C244.187 136.901 241.476 152.697 240.526 160.298C239.756 166.434 237.204 188.527 236.54 193.972C236.445 194.788 236.303 195.598 236.115 196.399L235.105 200.644L240.055 201.754L241.47 198.528C241.854 196.912 242.38 195.332 243.044 193.805C245.619 187.594 247.817 181.243 249.628 174.783C250.957 169.731 250.405 164.021 250.292 162.666C250.292 162.666 258.491 145.889 260.53 136.082C261.368 132.509 261.483 128.812 260.869 125.197Z" fill="#FFA8A7"/>
<path d="M236.494 194.54L237.204 188.443C237.204 188.443 240.088 190.494 244.904 189.243C244.174 191.178 243.303 193.346 242.36 195.624C242.36 195.624 239.935 198.392 237.968 197.727C236.002 197.063 236.494 194.54 236.494 194.54Z" fill="#F0F0F0"/>
<path d="M242.964 194.159L242.699 194.804C242.699 194.804 241.483 196.36 238.307 195.617C237.791 195.52 237.332 195.238 237.021 194.826C236.709 194.415 236.568 193.905 236.626 193.398C236.626 193.398 235.902 193.398 235.829 193.966C235.516 196.217 234.577 198.343 233.112 200.115C232.179 201.044 231.117 201.841 229.956 202.483C227.119 204.18 224.495 205.251 224.17 206.257C223.638 207.922 225.91 209.406 229.485 209.606C231.155 209.731 232.831 209.465 234.374 208.832C235.752 208.128 236.982 207.18 238.002 206.038C238.872 205.193 241.523 204.341 242.181 203.322C242.46 202.883 242.606 201.147 242.606 200.192V199.495C242.75 198.07 243.078 196.667 243.582 195.321C243.808 194.54 242.964 194.159 242.964 194.159Z" fill="#263238"/>
<path d="M234.693 125.113C234.693 125.113 234.554 133.862 234.693 137.721C234.833 141.579 235.57 151.458 235.57 151.458C237.488 152.279 239.567 152.683 241.662 152.639L241.43 154.181C246.336 156.738 252.025 157.501 257.461 156.33C257.461 156.33 260.982 144.154 261.527 135.566C262.072 126.978 260.916 125.197 260.916 125.197L234.693 125.113Z" fill="#081956"/>
<path d="M241.735 151.877C246.829 154.268 252.607 154.912 258.125 153.703L257.926 154.464C257.926 154.464 250.532 156.955 241.616 152.638L241.735 151.877Z" fill="#37474F"/>
<path d="M235.358 148.915C235.358 148.915 239.051 150.206 242.001 150.141L241.901 150.786C241.901 150.786 238.015 150.664 235.358 149.599V148.915Z" fill="#37474F"/>
<path d="M241.164 155.639C241.164 155.639 243.616 139.153 244.187 136.927C244.187 136.927 239.975 135.359 238.686 133.92C238.686 133.92 239.603 135.927 242.612 137.714L241.164 155.639Z" fill="#F28F8F"/>
<path d="M238.679 133.888C238.679 133.888 239.596 135.894 242.606 137.682L241.403 152.632H241.609C242.347 147.78 243.762 138.546 244.18 136.888C244.187 136.895 240.008 135.327 238.679 133.888Z" fill="#263238"/>
<path d="M250.319 162.678C250.983 161.794 252.312 158.807 253.096 156.832H253.255L251.262 163.13C251.688 165.205 251.879 167.318 251.834 169.434L250.505 168.305C250.558 167.356 250.319 162.678 250.319 162.678Z" fill="#F28F8F"/>
<path d="M237.244 118.234C240.566 107.44 239.902 98.2966 240.566 95.4963L232.016 107.111C231.652 110.935 231.069 114.737 230.268 118.499C229.279 122.629 227.93 127.771 226.316 130.971C226.023 131.537 225.526 131.977 224.92 132.21C223.306 132.856 222.562 133.656 221.266 134.585C220.25 135.314 219.479 135.411 219.546 135.707C219.655 136.042 219.89 136.323 220.205 136.496C220.519 136.668 220.889 136.718 221.24 136.637C222.022 136.476 222.783 136.227 223.505 135.895C222.763 137.083 221.83 138.148 220.742 139.05C218.27 141.14 217.911 142.618 222.03 143.347C224.608 143.799 226.947 142.599 229.876 137.398C230.994 135.5 231.971 133.527 232.8 131.494C234.753 126.203 236.234 121.499 237.244 118.234Z" fill="#FFA8A7"/>
<path d="M243.456 90.6571C239.47 90.6571 235.484 91.5475 234.155 95.6835C232.826 99.8195 231.059 111.453 231.059 111.453C231.059 111.453 232.74 113.634 238.367 113.292L243.456 90.6571Z" fill="#E0E0E0"/>
<path d="M251.688 90.9473C254.498 91.5925 257.753 92.1603 260.47 93.4701C262.364 94.3799 259.593 109.601 259.593 109.601L260.869 125.177C257.122 129.113 242.805 130.907 234.667 125.093C234.667 125.093 234.74 103.897 234.753 99.8709C234.766 95.8446 237.092 91.0053 243.456 90.6634L251.688 90.9473Z" fill="#F5F5F5"/>
<path d="M240.825 95.948C241.343 97.1353 242.287 97.6127 244.001 97.7999C244.862 97.8584 245.726 97.7467 246.541 97.4717C247.357 97.1967 248.106 96.7639 248.744 96.1997L246.612 94.1349L243.908 96.1158L243.675 93.9155L240.825 95.948Z" fill="#081956"/>
<path opacity="0.1" d="M240.825 95.948C241.343 97.1353 242.287 97.6127 244.001 97.7999C244.862 97.8584 245.726 97.7467 246.541 97.4717C247.357 97.1967 248.106 96.7639 248.744 96.1997L246.612 94.1349L243.908 96.1158L243.675 93.9155L240.825 95.948Z" fill="black"/>
<path d="M259.607 109.324L257.162 102.697L259.999 114.602L259.607 109.324Z" fill="#E0E0E0"/>
<path d="M256.172 76.9393L254.385 83.7014C254.199 84.405 253.776 85.0282 253.184 85.4723C252.592 85.9164 251.864 86.1561 251.116 86.1533H249.05L249.083 76.7134L256.172 76.9393Z" fill="#263238"/>
<path d="M249.468 74.4392C249.488 70.4338 246.161 67.1709 242.037 67.1514C237.913 67.1318 234.553 70.3629 234.533 74.3683C234.513 78.3737 237.84 81.6365 241.964 81.6561C246.088 81.6757 249.448 78.4446 249.468 74.4392Z" fill="#263238"/>
<path d="M253.548 70.3257C253.977 70.2772 254.412 70.3247 254.82 70.4645C255.227 70.6043 255.597 70.8327 255.9 71.1322C256.903 72.1388 256.69 73.9906 255.9 78.2298L252.777 78.5654L253.548 70.3257Z" fill="#263238"/>
<path d="M252.06 78.5911C252.518 78.8621 253.182 77.9975 253.76 77.4168C254.338 76.8361 256.199 76.0553 257.122 77.9588C258.046 79.8622 256.571 82.4755 255.129 83.0239C254.623 83.2645 254.041 83.3055 253.505 83.1383C252.968 82.971 252.519 82.6086 252.252 82.127L251.668 90.9474C251.668 90.9474 248.346 95.5415 243.888 96.1093C242.871 93.9671 241.961 92.4315 243.436 90.6764V87.9793C242.311 88.17 241.167 88.2242 240.028 88.1406C239.121 87.9399 238.291 87.4931 237.634 86.8524C236.978 86.2116 236.523 85.4031 236.321 84.5209C235.321 80.6229 235.212 76.5594 236.002 72.6162C237.218 65.8993 244.978 65.809 249.349 68.4996C253.721 71.1903 252.06 78.5911 252.06 78.5911Z" fill="#FFA8A7"/>
<path d="M252.06 79.3458C252.292 79.3458 253.182 77.9263 253.76 77.4101C254.558 76.7133 253.548 70.3125 253.548 70.3125C253.162 65.0732 245.21 64.6473 243.011 64.5054C237.975 64.1376 234.54 66.8347 235.896 70.2544C236.806 71.803 238.659 72.2353 240.407 72.4482C243.37 72.8096 248.419 71.2804 249.043 71.1965C249.907 71.0868 250.086 71.8998 250.545 74.1065C250.95 76.0422 251.302 79.3265 252.06 79.3458Z" fill="#263238"/>
<path d="M253.548 70.8222L256.351 69.364C256.262 69.1805 256.136 69.0164 255.98 68.8816C255.824 68.7468 255.641 68.6441 255.443 68.5796C255.245 68.5151 255.036 68.4902 254.828 68.5063C254.62 68.5225 254.417 68.5794 254.232 68.6736C253.854 68.8759 253.571 69.213 253.443 69.6137C253.316 70.0145 253.353 70.4477 253.548 70.8222Z" fill="#263238"/>
<path d="M243.476 87.9857C243.476 87.9857 247.628 87.1921 249.083 86.4436C249.933 86.0081 250.628 85.3334 251.076 84.5079C250.872 85.332 250.497 86.107 249.973 86.7856C248.91 88.076 243.496 89.0568 243.496 89.0568L243.476 87.9857Z" fill="#F28F8F"/>
<path d="M243.376 78.3976C243.374 78.5057 243.393 78.6133 243.434 78.7141C243.474 78.8149 243.535 78.907 243.612 78.985C243.689 79.063 243.781 79.1253 243.883 79.1685C243.986 79.2116 244.095 79.2347 244.207 79.2364C244.432 79.2313 244.646 79.1405 244.802 78.9835C244.959 78.8266 245.046 78.6161 245.044 78.3976C245.054 78.2851 245.04 78.1719 245.003 78.0649C244.966 77.958 244.906 77.8598 244.828 77.7765C244.749 77.6932 244.654 77.6267 244.548 77.5812C244.441 77.5357 244.326 77.5122 244.21 77.5122C244.094 77.5122 243.979 77.5357 243.873 77.5812C243.766 77.6267 243.671 77.6932 243.592 77.7765C243.514 77.8598 243.454 77.958 243.417 78.0649C243.38 78.1719 243.366 78.2851 243.376 78.3976Z" fill="#263238"/>
<path d="M244.267 75.3646L246.047 76.326C246.175 76.0896 246.203 75.8144 246.126 75.5582C246.049 75.302 245.873 75.0846 245.635 74.9516C245.518 74.8892 245.389 74.8504 245.256 74.8374C245.123 74.8245 244.988 74.8376 244.861 74.8762C244.733 74.9147 244.615 74.9778 244.513 75.0617C244.411 75.1456 244.327 75.2486 244.267 75.3646Z" fill="#263238"/>
<path d="M243.868 83.8175L242.001 84.5015C242.038 84.628 242.101 84.7458 242.187 84.8477C242.272 84.9496 242.378 85.0333 242.498 85.0938C242.619 85.1543 242.75 85.1901 242.885 85.1993C243.02 85.2084 243.156 85.1905 243.283 85.1467C243.539 85.0422 243.744 84.8451 243.853 84.5971C243.962 84.349 243.967 84.0694 243.868 83.8175Z" fill="#F28F8F"/>
<path d="M236.401 76.0165L238.028 74.8034C237.952 74.697 237.855 74.6066 237.742 74.5379C237.629 74.4691 237.503 74.4234 237.371 74.4035C237.239 74.3835 237.105 74.3899 236.976 74.422C236.847 74.4542 236.725 74.5115 236.62 74.5905C236.402 74.7554 236.257 74.9955 236.217 75.2609C236.176 75.5264 236.242 75.7969 236.401 76.0165Z" fill="#263238"/>
<path d="M236.879 77.9523C236.879 78.054 236.9 78.1547 236.94 78.2486C236.98 78.3426 237.038 78.4279 237.112 78.4998C237.187 78.5717 237.274 78.6288 237.371 78.6677C237.468 78.7066 237.572 78.7266 237.676 78.7266C237.781 78.7266 237.885 78.7066 237.981 78.6677C238.078 78.6288 238.166 78.5717 238.24 78.4998C238.314 78.4279 238.373 78.3426 238.413 78.2486C238.453 78.1547 238.473 78.054 238.473 77.9523C238.477 77.8487 238.459 77.7455 238.421 77.6486C238.383 77.5517 238.326 77.4632 238.252 77.3881C238.179 77.313 238.09 77.2529 237.993 77.2113C237.895 77.1697 237.79 77.1474 237.683 77.1458C237.467 77.1509 237.261 77.2383 237.111 77.3892C236.96 77.5401 236.877 77.7423 236.879 77.9523Z" fill="#263238"/>
<path d="M240.38 78.0747L241.144 82.8882L238.407 82.5656L240.38 78.0747Z" fill="#F28F8F"/>
<path d="M242.174 95.3029C242.114 96.0508 242.125 96.8025 242.207 97.5484C242.289 98.2185 242.552 98.8554 242.971 99.3937C243.241 99.5628 243.548 99.6683 243.868 99.7019C244.187 99.7355 244.51 99.6963 244.811 99.5873C245.314 99.1036 245.703 98.5196 245.951 97.8757C246.199 97.2318 246.299 96.5433 246.246 95.8578L243.908 96.1159L242.174 95.3029Z" fill="#081956"/>
<path d="M242.971 99.3934C242.971 99.3934 240.207 109.33 240.101 110.53C239.995 111.73 242.4 118.131 243.456 118.163C244.512 118.196 246.439 113.84 246.472 112.743C246.506 111.646 244.811 99.587 244.811 99.587L242.971 99.3934Z" fill="#081956"/>
<path opacity="0.1" d="M244.811 99.587C244.514 99.7155 244.188 99.7653 243.864 99.7313C243.541 99.6973 243.233 99.5807 242.971 99.3934L242.918 99.5676C243.184 99.7836 243.5 99.9334 243.84 100.004C244.179 100.075 244.53 100.065 244.865 99.9741L244.811 99.587Z" fill="black"/>
<path d="M243.908 96.1157L251.721 90.3924L251.834 88.6954C251.834 88.6954 253.528 89.3407 253.94 92.4378C252.695 95.1194 250.565 97.3216 247.887 98.6966L246.246 95.8576L243.908 96.1157Z" fill="#E0E0E0"/>
<path d="M243.463 89.4118C242.441 89.5647 241.522 90.1025 240.905 90.9087C240.121 92.1992 240.3 96.9546 240.3 96.9546L242.174 95.3028L243.908 96.1158C243.742 94.522 243.456 91.8314 243.456 91.8314L243.463 89.4118Z" fill="#E0E0E0"/>
<path d="M250.385 72.9905C250.385 72.9905 244.712 77.1459 238.028 75.8102C230.946 74.3907 235.756 70.2547 235.756 70.2547L250.385 72.9905Z" fill="#37474F"/>
<path d="M232.388 65.1956C234.288 62.8985 242.247 60.0337 249.05 61.5887C255.853 63.1437 257.687 66.5957 257.687 66.5957C254.952 68.2327 251.765 69.0142 248.558 68.8347C243.137 68.5443 232.388 65.1956 232.388 65.1956Z" fill="#081956"/>
<path opacity="0.4" d="M232.388 65.1956C234.288 62.8985 242.247 60.0337 249.05 61.5887C255.853 63.1437 257.687 66.5957 257.687 66.5957C254.952 68.2327 251.765 69.0142 248.558 68.8347C243.137 68.5443 232.388 65.1956 232.388 65.1956Z" fill="white"/>
<path d="M256.81 68.6737C257.203 68.0275 257.492 67.3269 257.667 66.596C257.667 66.596 256.863 67.351 252.252 66.667C247.881 66.0218 243.33 63.5505 238.473 63.3505C233.617 63.1505 232.388 65.1959 232.388 65.1959C233.007 66.7696 234.002 68.1782 235.291 69.306C235.291 69.306 237.45 72.1451 243.137 72.287C248.824 72.429 256.81 68.6737 256.81 68.6737Z" fill="#081956"/>
<path d="M240.918 67.6608C240.918 68.9513 240.015 69.8481 238.925 69.6804C238.334 69.5222 237.816 69.1749 237.454 68.6946C237.093 68.2144 236.909 67.6295 236.932 67.0349C236.932 65.7444 237.836 64.8476 238.925 65.0218C239.515 65.1786 240.033 65.5248 240.395 66.0039C240.757 66.4831 240.941 67.067 240.918 67.6608Z" fill="#F5F5F5"/>
<path d="M256.81 68.6735L256.75 69.5575C256.723 69.852 256.627 70.1365 256.469 70.3892C256.311 70.642 256.096 70.8563 255.84 71.0158C251.987 72.9966 247.627 73.8568 243.283 73.4935C239.244 73.2031 237.271 72.4353 236.407 71.7965C236.107 71.6269 235.854 71.3881 235.671 71.1011C235.488 70.8142 235.38 70.488 235.358 70.1511L235.291 69.3059C235.291 69.3059 236.866 70.7641 243.483 71.2997C250.1 71.8352 256.81 68.6735 256.81 68.6735Z" fill="#455A64"/>
<path d="M240.951 90.8313C240.951 90.8313 237.769 93.1348 239.702 102.846C242.127 114.97 249.422 127.648 249.422 127.648C249.422 127.648 246.233 129.042 245.742 128.552C245.25 128.061 240.752 118.144 238.859 112.466C236.965 106.788 234.208 97.6256 237.756 91.683C237.756 91.683 239.423 90.4054 240.951 90.8313Z" fill="#081956"/>
<path opacity="0.1" d="M240.951 90.8313C240.951 90.8313 237.769 93.1348 239.702 102.846C242.127 114.97 249.422 127.648 249.422 127.648C249.422 127.648 246.233 129.042 245.742 128.552C245.25 128.061 240.752 118.144 238.859 112.466C236.965 106.788 234.208 97.6256 237.756 91.683C237.756 91.683 239.423 90.4054 240.951 90.8313Z" fill="black"/>
<path d="M265.36 122.415C265.36 122.415 246.499 127.332 245.821 128.313C245.144 129.294 246.539 143.521 248.877 145.25C250.433 146.249 252.236 146.824 254.099 146.915C261.135 146.825 271.605 143.198 271.924 140.611C272.967 132.107 265.36 122.415 265.36 122.415Z" fill="#081956"/>
<path opacity="0.1" d="M265.36 122.415C265.36 122.415 246.499 127.332 245.821 128.313C245.144 129.294 246.539 143.521 248.877 145.25C250.433 146.249 252.236 146.824 254.099 146.915C261.135 146.825 271.605 143.198 271.924 140.611C272.967 132.107 265.36 122.415 265.36 122.415Z" fill="#FBBC05" fill-opacity="0.6"/>
<path d="M265.36 122.416C267.287 122.926 270.363 128.546 270.369 129.733C270.369 132.256 267.406 134.998 258.471 136.83C252.113 138.121 250.007 137.063 249.123 135.243C247.794 132.494 246.99 129.139 245.801 128.313C247.117 126.791 263.58 121.945 265.36 122.416Z" fill="#081956"/>
<path d="M270.908 117.589C270.602 113.014 268.582 107.343 267.413 104.536L259.613 107.388C259.613 107.388 262.49 114.169 263.168 117.26C263.168 120.815 261.66 126.984 260.191 130.249C259.925 130.822 259.453 131.281 258.863 131.539C257.281 132.249 256.571 133.088 255.322 134.075C254.338 134.849 253.574 134.978 253.654 135.269C253.779 135.598 254.028 135.87 254.352 136.028C254.675 136.186 255.047 136.219 255.395 136.12C256.166 135.928 256.911 135.647 257.614 135.282C256.937 136.508 256.06 137.619 255.016 138.572C252.644 140.766 252.359 142.263 256.498 142.812C259.095 143.153 261.381 141.857 264.065 136.533C264.842 134.998 266.297 132.378 267.087 130.358C269.705 123.7 270.688 120.557 270.908 117.589Z" fill="#FFA8A7"/>
<path d="M258.424 92.7022C261.586 92.8506 263.693 94.0959 265.779 98.1222C267.865 102.148 270.243 110.382 270.243 110.382C267.711 112.472 264.454 113.546 261.135 113.382C261.135 113.382 257.075 102.852 256.385 100.355C255.64 97.6189 256.311 93.6314 258.424 92.7022Z" fill="#F5F5F5"/>
</svg>
