<svg width="344" height="295" viewBox="0 0 344 295" fill="none" xmlns="http://www.w3.org/2000/svg">
<path d="M50.3725 269.427C117.547 303.524 226.424 303.524 293.614 269.427C360.803 235.33 360.788 180.042 293.614 145.937C226.439 111.833 117.562 111.84 50.3725 145.937C-16.8168 180.035 -16.7648 235.33 50.3725 269.427Z" fill="#F5F5F5"/>
<path d="M288.176 178.083C288.258 173.526 293.086 161.61 297.981 155.769C302.877 149.929 310.476 145.739 315.809 147.64C320.764 149.408 320.11 155.85 313.989 160.025C307.868 164.2 298.687 169.417 295.901 176.762L290.167 185.743L288.176 178.083Z" fill="#80C5DD"/>
<path opacity="0.1" d="M288.176 178.083C288.258 173.526 293.086 161.61 297.981 155.769C302.877 149.929 310.476 145.739 315.809 147.64C320.764 149.408 320.11 155.85 313.989 160.025C307.868 164.2 298.687 169.417 295.901 176.762L290.167 185.743L288.176 178.083Z" fill="black"/>
<path d="M289.052 181.781C289.124 181.776 289.193 181.749 289.248 181.702C289.303 181.656 289.341 181.594 289.357 181.524C292.722 166.013 305.699 153.583 313.365 150.919C313.408 150.905 313.447 150.883 313.48 150.854C313.514 150.825 313.541 150.79 313.56 150.75C313.58 150.71 313.591 150.667 313.593 150.623C313.595 150.579 313.589 150.535 313.573 150.494C313.558 150.453 313.535 150.415 313.506 150.383C313.476 150.35 313.44 150.324 313.4 150.306C313.36 150.288 313.316 150.277 313.272 150.275C313.228 150.274 313.184 150.281 313.143 150.296C305.32 153.011 292.113 165.638 288.696 181.385C288.68 181.471 288.698 181.56 288.746 181.634C288.795 181.707 288.87 181.76 288.956 181.781H289.052Z" fill="white"/>
<path d="M291.221 191.782C292.009 189.236 295.255 185.061 300.44 181.656C306.175 177.892 313.38 176.241 315.089 173.255C317.139 169.681 314.116 166.211 308.284 166.827C302.453 167.443 292.068 175.111 290.226 186.902L291.221 191.782Z" fill="#80C5DD"/>
<path d="M290.144 189.074C290.209 189.07 290.271 189.047 290.324 189.01C290.376 188.972 290.417 188.921 290.442 188.861C295.508 175.617 305.885 171.112 310.661 170.584C310.705 170.579 310.748 170.566 310.787 170.545C310.826 170.524 310.86 170.496 310.888 170.462C310.915 170.428 310.936 170.388 310.948 170.346C310.96 170.304 310.964 170.26 310.959 170.217C310.955 170.173 310.942 170.13 310.921 170.092C310.901 170.053 310.872 170.019 310.837 169.991C310.802 169.964 310.762 169.943 310.719 169.932C310.676 169.92 310.631 169.917 310.587 169.923C305.306 170.503 294.988 175.104 289.788 188.627C289.756 188.708 289.759 188.799 289.795 188.879C289.832 188.959 289.898 189.021 289.981 189.052C290.031 189.079 290.089 189.086 290.144 189.074Z" fill="white"/>
<path d="M62.8298 221.183L68.4531 218.006C68.4531 218.006 71.1496 203.331 69.1365 190.711C66.2989 172.969 54.0718 166.849 49.6297 168.617C45.1875 170.386 44.1401 175.632 52.1627 185.882C56.8946 191.936 62.9858 204.725 62.8298 221.183Z" fill="#80C5DD"/>
<g opacity="0.1">
<path d="M62.8298 221.183L68.4531 218.006C68.4531 218.006 71.1496 203.331 69.1365 190.711C66.2989 172.969 54.0718 166.849 49.6297 168.617C45.1875 170.386 44.1401 175.632 52.1627 185.882C56.8946 191.936 62.9858 204.725 62.8298 221.183Z" fill="black"/>
</g>
<path d="M64.8652 214.139H64.8132C64.7606 214.133 64.7098 214.116 64.6639 214.09C64.6179 214.064 64.5778 214.029 64.5459 213.987C64.514 213.945 64.4909 213.898 64.4782 213.847C64.4654 213.796 64.4631 213.743 64.4715 213.692C66.7966 197.087 60.0145 178.89 52.4376 171.552C52.3998 171.516 52.3698 171.473 52.3494 171.425C52.3289 171.377 52.3183 171.326 52.3183 171.274C52.3183 171.222 52.3289 171.17 52.3494 171.122C52.3698 171.074 52.3998 171.031 52.4376 170.995C52.5127 170.921 52.6141 170.88 52.7198 170.88C52.8256 170.88 52.927 170.921 53.0021 170.995C60.7425 178.464 67.6285 196.955 65.2737 213.809C65.2562 213.903 65.2055 213.987 65.1307 214.048C65.0559 214.108 64.9618 214.141 64.8652 214.139Z" fill="white"/>
<path d="M47.2303 230.083C46.3464 230.59 44.5116 229.489 43.8133 229.019C42.6104 228.213 41.6382 227.114 40.9905 225.828C40.2535 224.369 39.9939 222.72 40.2477 221.11C40.3884 220.263 40.5895 219.427 40.8494 218.608L41.5922 216.172C41.8789 215.387 42.0002 214.553 41.9488 213.721C41.7334 212.055 40.2403 210.889 38.8809 209.883C37.3952 208.768 35.813 207.301 35.8204 205.297C35.9314 203.745 36.5581 202.272 37.6032 201.108C38.5763 199.897 39.7277 198.826 40.5746 197.542C41.2722 196.661 41.6443 195.571 41.6294 194.453C41.5394 193.765 41.3067 193.103 40.946 192.508C40.1201 191.268 39.3995 189.962 38.7918 188.605C38.2941 187.203 38.3683 185.464 39.4752 184.459C39.9702 184.094 40.5339 183.83 41.1334 183.683C41.7328 183.535 42.356 183.507 42.9665 183.6C44.1159 183.742 45.2208 184.127 46.2052 184.73C49.4291 186.499 51.2639 190.263 54.681 191.628C56.0384 192.043 57.4201 192.376 58.8186 192.626C59.5179 192.754 60.1824 193.025 60.7695 193.422C61.3567 193.819 61.8535 194.332 62.2282 194.93C63.4836 197.402 61.1511 200.455 62.035 203.082C62.7779 205.408 65.1029 206.295 66.388 208.387C66.9087 209.313 67.1193 210.379 66.9897 211.432C66.8752 213.207 66.4348 214.948 65.6898 216.568C64.8528 218.178 63.8969 219.726 62.8299 221.198C62.7779 221.234 47.3641 230.01 47.2303 230.083Z" fill="#80C5DD"/>
<path d="M56.3597 225.27C56.307 225.268 56.2552 225.256 56.2073 225.234C56.1594 225.213 56.1162 225.182 56.0803 225.144C56.0445 225.106 56.0166 225.061 55.9982 225.012C55.9799 224.963 55.9715 224.911 55.9734 224.859C56.6346 209.142 49.1319 191.782 43.6795 186.741C43.6069 186.666 43.5663 186.566 43.5663 186.462C43.5663 186.358 43.6069 186.258 43.6795 186.183C43.7547 186.11 43.8561 186.069 43.9618 186.069C44.0675 186.069 44.169 186.11 44.2441 186.183C49.8079 191.32 57.4591 208.974 56.7906 224.918C56.7793 225.02 56.728 225.115 56.6475 225.18C56.5671 225.246 56.4638 225.278 56.3597 225.27Z" fill="white"/>
<path d="M53.9753 206.706H53.8565C50.0856 205.678 46.2122 205.061 42.3054 204.865C42.2527 204.863 42.2009 204.85 42.153 204.829C42.105 204.807 42.0619 204.776 42.026 204.738C41.9901 204.7 41.9622 204.655 41.9439 204.606C41.9256 204.558 41.9171 204.506 41.9191 204.454C41.92 204.401 41.9317 204.35 41.9533 204.302C41.9749 204.254 42.006 204.211 42.0449 204.175C42.0837 204.14 42.1295 204.112 42.1793 204.094C42.2292 204.077 42.2822 204.069 42.3351 204.072C46.3119 204.278 50.2545 204.907 54.0942 205.95C54.1828 205.981 54.2578 206.041 54.3063 206.12C54.3548 206.199 54.3736 206.293 54.3594 206.385C54.3453 206.476 54.2992 206.56 54.229 206.621C54.1588 206.683 54.0691 206.718 53.9753 206.721V206.706Z" fill="white"/>
<path d="M49.1913 224.25L130.257 270.476C131.254 270.976 132.356 271.236 133.473 271.236C134.591 271.236 135.693 270.976 136.69 270.476L290.182 182.933C291.957 181.92 291.957 180.277 290.182 179.264L209.109 133.038C208.112 132.538 207.01 132.278 205.892 132.278C204.774 132.278 203.673 132.538 202.676 133.038L49.1913 220.581C47.416 221.601 47.416 223.238 49.1913 224.25Z" fill="#081956"/>
<path d="M93.0037 245.727C94.3852 246.418 95.9121 246.778 97.4607 246.778C99.0093 246.778 100.536 246.418 101.918 245.727C104.384 244.318 104.384 242.058 101.918 240.635C100.536 239.944 99.0093 239.584 97.4607 239.584C95.9121 239.584 94.3852 239.944 93.0037 240.635C90.5375 242.044 90.5375 244.348 93.0037 245.727Z" fill="#80C5DD"/>
<path d="M130.257 270.484L49.1913 224.258C47.6017 223.355 47.4382 221.946 48.6862 220.934C47.8939 221.553 47.2429 222.331 46.7757 223.216C46.3085 224.101 46.0356 225.074 45.9749 226.07V229.056C46.0347 230.159 46.3571 231.232 46.9161 232.188C47.475 233.144 48.2545 233.957 49.1913 234.559L130.257 280.786C131.249 281.295 132.356 281.548 133.473 281.519V271.239C132.354 271.261 131.247 271.001 130.257 270.484Z" fill="#081956"/>
<path d="M290.182 193.257C291.118 192.653 291.896 191.841 292.455 190.885C293.014 189.929 293.337 188.856 293.398 187.754V184.767C293.335 183.771 293.061 182.798 292.593 181.913C292.124 181.028 291.472 180.251 290.679 179.631C291.935 180.644 291.771 182.052 290.182 182.962L136.69 270.484C135.698 270.995 134.591 271.248 133.473 271.217V281.549C134.591 281.579 135.698 281.326 136.69 280.815L290.182 193.257Z" fill="#081956"/>
<path d="M143.62 260.901L67.1085 217.258C66.0388 216.649 66.0388 215.665 67.1085 215.056L192.959 143.244C193.558 142.944 194.22 142.788 194.891 142.788C195.562 142.788 196.224 142.944 196.822 143.244L273.371 186.88C274.441 187.482 274.441 188.473 273.371 189.082L147.476 260.901C146.879 261.201 146.218 261.358 145.548 261.358C144.878 261.358 144.218 261.201 143.62 260.901Z" fill="#FAFAFA"/>
<path d="M123.72 202.179L168.981 227.985L140.411 244.282C139.912 244.528 139.361 244.656 138.803 244.656C138.245 244.656 137.694 244.528 137.195 244.282L95.1505 220.303C94.9565 220.238 94.7879 220.114 94.6686 219.95C94.5492 219.785 94.485 219.588 94.485 219.385C94.485 219.183 94.5492 218.986 94.6686 218.821C94.7879 218.657 94.9565 218.533 95.1505 218.468L123.72 202.179Z" fill="#FBBC05"/>
<path d="M168.944 227.985L163.61 207.044C163.489 206.544 163.208 206.096 162.808 205.767C162.403 205.428 161.903 205.22 161.374 205.173L123.69 202.179L168.944 227.985Z" fill="#FBBC05"/>
<path d="M168.944 227.985L128.437 226.334C127.952 226.315 127.489 226.126 127.133 225.8C126.776 225.475 126.549 225.035 126.491 224.558L123.683 202.172L168.944 227.985Z" fill="#FBBC05" fill-opacity="0.41"/>
<path d="M168.944 227.985L128.437 226.334C127.952 226.315 127.489 226.126 127.133 225.8C126.776 225.475 126.549 225.035 126.491 224.558L123.683 202.172L128.682 224.184C128.727 224.38 128.834 224.557 128.988 224.689C129.141 224.821 129.333 224.901 129.536 224.918L168.944 227.985Z" fill="#FAFAFA"/>
<path d="M132.768 226.268L138.807 245.199L140.411 244.282L132.768 226.268Z" fill="#FAFAFA"/>
<path d="M93.546 219.385L95.1505 218.468L126.736 222.827L93.546 219.385Z" fill="#FAFAFA"/>
<path d="M149.466 192.765L185.472 213.31C185.97 213.56 186.521 213.69 187.08 213.69C187.639 213.69 188.19 213.56 188.688 213.31L239.788 184.18C239.982 184.115 240.15 183.992 240.27 183.827C240.389 183.663 240.453 183.465 240.453 183.263C240.453 183.061 240.389 182.863 240.27 182.699C240.15 182.534 239.982 182.411 239.788 182.346L203.782 161.801C203.284 161.551 202.733 161.421 202.174 161.421C201.615 161.421 201.064 161.551 200.566 161.801L149.466 190.931C149.272 190.996 149.104 191.119 148.985 191.284C148.865 191.448 148.801 191.646 148.801 191.848C148.801 192.05 148.865 192.248 148.985 192.412C149.104 192.577 149.272 192.7 149.466 192.765Z" fill="#081956"/>
<path d="M178.095 190.05C177.666 189.392 177.412 188.637 177.356 187.856C177.301 187.075 177.445 186.293 177.776 185.582C178.445 184.114 179.9 182.705 182.136 181.436C184.588 180.012 187.294 179.068 190.107 178.655C192.851 178.265 195.644 178.364 198.352 178.949C201.146 179.549 203.826 180.582 206.293 182.008C208.68 183.363 210.305 184.762 211.166 186.205C211.587 186.82 211.839 187.532 211.896 188.272C211.953 189.012 211.815 189.754 211.493 190.424C210.84 191.797 209.465 193.081 207.385 194.269C205.391 195.46 203.147 196.183 200.826 196.382C198.894 196.568 196.95 196.174 195.247 195.252C194.942 195.122 194.669 194.929 194.445 194.686C194.221 194.443 194.051 194.156 193.947 193.844C193.898 193.574 193.922 193.295 194.017 193.037C194.113 192.78 194.276 192.551 194.49 192.376C193.293 192.472 192.089 192.391 190.917 192.134C189.768 191.89 188.665 191.469 187.648 190.887C185.935 189.908 185.038 188.847 184.959 187.702C184.88 186.558 185.7 185.506 187.418 184.547C189.491 183.346 191.864 182.744 194.267 182.808C196.721 182.862 199.12 183.536 201.235 184.767C202.11 185.249 202.89 185.883 203.537 186.638C204.052 187.198 204.388 187.894 204.503 188.641L197.818 192.472C197.275 192.78 196.978 193.051 196.934 193.286C196.889 193.521 197.082 193.77 197.506 194.02C198.431 194.464 199.489 194.552 200.477 194.269C201.932 193.933 203.323 193.371 204.6 192.604C206.279 191.65 207.341 190.623 207.786 189.544C208.01 189.021 208.095 188.45 208.034 187.885C207.973 187.32 207.768 186.78 207.437 186.315C206.541 185.051 205.348 184.019 203.961 183.307C201.11 181.641 197.888 180.696 194.579 180.556C191.222 180.462 187.909 181.323 185.033 183.036C183.206 184.078 182.032 185.178 181.512 186.337C181.252 186.877 181.137 187.474 181.178 188.071C181.22 188.667 181.417 189.243 181.75 189.742C182.65 191.05 183.865 192.117 185.286 192.846C186.23 193.379 187.225 193.819 188.257 194.159C189.22 194.488 190.216 194.709 191.229 194.82C191.337 194.828 191.442 194.855 191.541 194.9C191.593 194.9 191.593 194.996 191.541 195.091L190.56 196.449C190.52 196.501 190.472 196.548 190.419 196.588C190.275 196.637 190.118 196.637 189.973 196.588C188.748 196.435 187.543 196.155 186.378 195.751C185.16 195.352 183.985 194.833 182.872 194.203C180.569 192.985 178.979 191.554 178.095 190.05ZM193.584 190.689C194.608 190.817 195.647 190.624 196.555 190.138L200.44 187.937C199.98 187.166 199.3 186.546 198.486 186.154C197.246 185.436 195.838 185.049 194.401 185.031C192.969 185.007 191.558 185.372 190.322 186.088C189.238 186.704 188.71 187.313 188.74 187.915C188.74 188.517 189.349 189.14 190.486 189.786C191.439 190.308 192.496 190.619 193.584 190.696V190.689Z" fill="#FAFAFA"/>
<path d="M243.42 159.893C243.726 160.049 244.064 160.13 244.408 160.13C244.752 160.13 245.091 160.049 245.396 159.893C245.514 159.853 245.616 159.777 245.689 159.676C245.761 159.576 245.8 159.455 245.8 159.332C245.8 159.208 245.761 159.088 245.689 158.988C245.616 158.887 245.514 158.811 245.396 158.771C245.089 158.62 244.751 158.542 244.408 158.542C244.065 158.542 243.727 158.62 243.42 158.771C243.302 158.811 243.2 158.887 243.128 158.988C243.055 159.088 243.016 159.208 243.016 159.332C243.016 159.455 243.055 159.576 243.128 159.676C243.2 159.777 243.302 159.853 243.42 159.893Z" fill="#263238"/>
<path d="M246.57 168.728C247.181 169.035 247.857 169.195 248.542 169.195C249.228 169.195 249.903 169.035 250.514 168.728C251.606 168.111 251.606 167.099 250.514 166.482C249.903 166.175 249.228 166.015 248.542 166.015C247.857 166.015 247.181 166.175 246.57 166.482C245.456 167.099 245.456 168.111 246.57 168.728Z" fill="#263238"/>
<path d="M243.792 164.817C244.534 164.398 244.482 163.709 243.702 163.268L230.733 155.865C230.316 155.644 229.851 155.525 229.379 155.518C228.906 155.51 228.438 155.614 228.014 155.821C227.271 156.232 227.33 156.929 228.103 157.369L241.073 164.765C241.49 164.983 241.954 165.101 242.426 165.11C242.898 165.119 243.366 165.018 243.792 164.817Z" fill="#80C5DD"/>
<path d="M75.6288 71.5057C75.6699 70.7177 75.8993 69.9505 76.2983 69.267C76.6972 68.5834 77.2544 68.0028 77.9242 67.5729L195.463 0.544968C196.175 0.186742 196.963 0 197.762 0C198.561 0 199.349 0.186742 200.061 0.544968L202.646 2.01246C203.315 2.44172 203.871 3.02111 204.27 3.70333C204.669 4.38555 204.899 5.15128 204.941 5.93802V94.9417C204.896 95.7286 204.664 96.494 204.266 97.1769C203.867 97.8598 203.313 98.4411 202.646 98.8745L85.1074 165.902C84.3955 166.257 83.6094 166.442 82.812 166.442C82.0147 166.442 81.2285 166.257 80.5167 165.902L77.9242 164.435C77.2577 164.002 76.703 163.42 76.3045 162.737C75.9059 162.054 75.6746 161.289 75.6288 160.502V71.5057Z" fill="#80C5DD"/>
<path opacity="0.4" d="M76.2974 69.2678L82.8195 72.9806L204.273 3.71475C203.886 3.02433 203.329 2.44139 202.653 2.01979L200.054 0.552295C199.343 0.194132 198.556 0.00740051 197.758 0.00740051C196.96 0.00740051 196.174 0.194132 195.463 0.552295L77.9316 67.5728C77.2466 67.9874 76.6832 68.5717 76.2974 69.2678Z" fill="white"/>
<path opacity="0.1" d="M75.6289 71.4984V160.487C75.6714 161.276 75.9022 162.043 76.3024 162.727C76.7026 163.41 77.2609 163.991 77.9317 164.42L80.5167 165.888C80.7166 166.003 80.9283 166.096 81.1482 166.167C81.4552 166.267 81.771 166.338 82.0916 166.379C82.6953 166.457 83.3078 166.434 83.9041 166.313C84.0549 166.283 84.2037 166.244 84.3498 166.196C84.4446 166.171 84.5367 166.136 84.6246 166.093C84.4509 166.167 84.2639 166.205 84.0749 166.205C83.886 166.205 83.6989 166.167 83.5252 166.093C83.2845 165.934 83.0918 165.714 82.9675 165.456C82.8433 165.197 82.7922 164.91 82.8195 164.626V75.5854C82.7967 75.1818 82.8989 74.7809 83.1125 74.4361C83.3262 74.0913 83.6412 73.8191 84.0155 73.6556L82.8195 72.9659L76.2975 69.2531C75.8857 69.9336 75.6557 70.7061 75.6289 71.4984Z" fill="black"/>
<path opacity="0.2" d="M82.8194 72.9806L137.254 93.0706C139.137 93.7623 141.202 93.8006 143.109 93.1791C145.017 92.5577 146.654 91.3136 147.751 89.6513L156.494 76.4439L204.704 3.47995L158.232 76.9208L204.941 94.9783C204.894 95.7844 204.638 96.565 204.199 97.2456L158.106 77.1263L147.944 93.1953C146.816 94.9788 145.076 96.3006 143.041 96.9179C141.006 97.5353 138.814 97.4067 136.868 96.5559L129.64 93.4008L83.5177 166.086C83.277 165.927 83.0843 165.707 82.96 165.448C82.8358 165.19 82.7846 164.903 82.812 164.618V163.151L129.41 93.3421L82.8194 72.9806Z" fill="black"/>
<path d="M96.287 52.2008L88.2496 47.6296L88.1753 47.5856C84.6097 45.5971 79.7218 45.8979 74.3066 48.9797C63.4092 55.1945 54.5769 70.3097 54.5769 82.7321C54.5769 88.9323 56.8054 93.2981 60.3339 95.3379L67.6434 99.4542L69.389 96.5706C71.3777 96.1239 73.2862 95.3817 75.0494 94.3693C85.9468 88.1545 94.7791 73.0393 94.7791 60.6169C94.7783 58.9401 94.5712 57.2696 94.1625 55.6421L96.287 52.2008Z" fill="#FF0000"/>
<path d="M81.9281 53.3161C71.0233 59.531 62.191 74.6462 62.191 87.0685C62.191 99.4909 71.0233 104.539 81.9207 98.3242C92.818 92.1094 101.658 76.9868 101.658 64.5718C101.658 52.1568 92.8255 47.094 81.9281 53.3161Z" fill="#FF0000"/>
<path d="M75.7922 77.3024C75.722 77.2307 75.6711 77.1428 75.6438 77.0468C75.6166 76.9507 75.614 76.8495 75.6362 76.7521C75.6736 76.4874 75.7756 76.2356 75.9333 76.0184L82.032 67.074C82.188 66.8612 82.3366 66.6484 82.5 66.443C82.6359 66.251 82.8104 66.0887 83.0125 65.966L85.241 64.7187C85.3149 64.6645 85.4034 64.633 85.4953 64.6281C85.5873 64.6233 85.6786 64.6454 85.7579 64.6916C85.8372 64.7378 85.9009 64.8061 85.9411 64.8879C85.9813 64.9698 85.9962 65.0615 85.9839 65.1516V85.7993C85.972 86.0593 85.8927 86.3119 85.7536 86.533C85.6306 86.7616 85.4487 86.954 85.2262 87.0906L82.9531 88.382C82.8775 88.4387 82.7875 88.4734 82.693 88.4825C82.5986 88.4916 82.5035 88.4746 82.4183 88.4334C82.3405 88.3799 82.2788 88.3067 82.2395 88.2215C82.2003 88.1363 82.1851 88.0422 82.1954 87.9491V72.1662L78.2213 77.9848C78.0899 78.1977 77.899 78.3684 77.6716 78.4765C77.5892 78.5174 77.4971 78.5349 77.4053 78.5272C77.3134 78.5194 77.2256 78.4866 77.1516 78.4324L75.7922 77.3024Z" fill="#FAFAFA"/>
<path d="M257.794 148.468V147.155H258.121C258.614 146.263 259.363 145.535 260.275 145.064C262.133 144.134 264.187 143.65 266.27 143.65C268.353 143.65 270.406 144.134 272.265 145.064C273.176 145.535 273.926 146.263 274.419 147.155H274.746V148.424C274.746 149.679 273.943 150.941 272.265 151.902C270.411 152.825 268.363 153.305 266.288 153.304C264.212 153.302 262.165 152.82 260.312 151.895C258.611 150.956 257.787 149.694 257.794 148.468Z" fill="#263238"/>
<path d="M272.264 143.736C270.407 142.803 268.353 142.316 266.27 142.316C264.186 142.316 262.132 142.803 260.275 143.736C256.962 145.622 256.962 148.681 260.275 150.574C262.133 151.504 264.187 151.988 266.27 151.988C268.353 151.988 270.406 151.504 272.264 150.574C275.578 148.681 275.578 145.622 272.264 143.736Z" fill="#FBBC05"/>
<path d="M268.483 96.8639V146.597C268.466 146.787 268.397 146.969 268.285 147.123C268.173 147.278 268.021 147.4 267.845 147.478C267.367 147.72 266.837 147.846 266.3 147.846C265.762 147.846 265.233 147.72 264.754 147.478C264.578 147.4 264.426 147.278 264.314 147.123C264.202 146.969 264.133 146.787 264.116 146.597V96.8639H268.483Z" fill="#FBBC05"/>
<path d="M264.086 102.279V103.835L268.454 106.322V104.774L264.086 102.279Z" fill="#263238"/>
<path d="M291.95 83.6932L291.578 84.4269L287.582 92.3367L285.688 96.1302L279.27 108.846L278.564 110.248H278.438C278.179 110.256 277.923 110.198 277.695 110.079L249.088 93.7455C248.875 93.6122 248.697 93.4311 248.567 93.2169C248.438 93.0028 248.362 92.7615 248.345 92.5128V81.5947C248.345 76.1502 251.978 69.6639 256.457 67.1105C258.582 65.8998 260.506 65.8044 261.954 66.6042L291.95 83.6932Z" fill="#FBBC05"/>
<path d="M286.549 84.2728C284.737 84.9332 278.163 90.2969 278.163 98.7497C278.163 105.852 278.163 109.536 278.163 110.203H278.43H278.556L279.262 108.802L285.688 96.1302L287.582 92.3734L288.02 91.5149L286.549 84.2728Z" fill="#37474F"/>
<path d="M294.304 101.266C294.233 101.386 294.13 101.485 294.007 101.553L293.933 101.597L279.158 110.071C278.974 110.168 278.771 110.223 278.564 110.233H278.437V98.7497C278.474 96.6721 278.91 94.6203 279.723 92.7036L280.465 93.1145L285.702 96.1009L293.829 100.745L294.245 100.98C294.29 101.011 294.321 101.058 294.332 101.112C294.343 101.165 294.333 101.22 294.304 101.266Z" fill="#37474F"/>
<path d="M291.95 83.6932C290.516 82.9594 288.622 83.0842 286.549 84.2728C284.006 85.8518 281.95 88.0904 280.607 90.7445C280.266 91.3805 279.961 92.0345 279.693 92.7036C278.881 94.6203 278.444 96.6721 278.408 98.7497V110.226H278.534C278.742 110.216 278.945 110.16 279.128 110.064L293.896 101.633L293.97 101.589C294.087 101.513 294.188 101.416 294.267 101.303C294.475 101.046 294.595 100.73 294.609 100.401V89.5265C294.646 86.5915 293.606 84.559 291.95 83.6932ZM293.599 100.863L279.485 108.934C279.366 109 279.269 108.934 279.269 108.809V98.7497C279.307 96.8153 279.708 94.9046 280.451 93.1145C280.459 93.0755 280.474 93.0383 280.495 93.0044C280.78 92.2959 281.107 91.6049 281.476 90.9353C282.727 88.4978 284.624 86.4412 286.965 84.9846C287.872 84.4161 288.915 84.0946 289.989 84.0527C290.542 84.0466 291.089 84.1778 291.578 84.4343C292.99 85.168 293.807 86.9804 293.807 89.4971V100.503C293.803 100.575 293.782 100.645 293.746 100.707C293.71 100.77 293.659 100.823 293.599 100.863Z" fill="#455A64"/>
<path d="M293.814 89.5265V100.775L280.443 93.1438C280.451 93.1049 280.467 93.0676 280.488 93.0338C281.921 89.4971 284.336 86.4961 286.958 85.0139C287.865 84.4454 288.908 84.1239 289.981 84.0821C292.351 84.0527 293.814 86.1439 293.814 89.5265Z" fill="#263238"/>
<path d="M269.345 95.103L270.526 94.4279C270.778 94.3154 271.056 94.2704 271.331 94.2975C271.606 94.3245 271.869 94.4227 272.094 94.582C272.742 95.0004 273.282 95.5639 273.669 96.2268C274.057 96.8897 274.28 97.6333 274.322 98.3975C274.349 98.6659 274.304 98.9366 274.192 99.1825C274.08 99.4284 273.905 99.641 273.683 99.7989L272.591 100.423L272.391 100.092C272.167 100.044 271.951 99.9622 271.752 99.8503C271.103 99.4319 270.563 98.8684 270.176 98.2055C269.789 97.5426 269.565 96.799 269.523 96.0348C269.525 95.8447 269.548 95.6553 269.59 95.4698L269.345 95.103Z" fill="#E0E0E0"/>
<path d="M270.972 95.2277C271.62 95.6449 272.16 96.2072 272.547 96.8688C272.934 97.5304 273.158 98.2728 273.2 99.0359C273.2 100.445 272.198 101.01 270.972 100.313C270.324 99.8937 269.784 99.3302 269.397 98.6674C269.01 98.0046 268.786 97.2611 268.743 96.4971C268.736 95.0956 269.739 94.5233 270.972 95.2277Z" fill="#FAFAFA"/>
<path d="M270.972 98.3755C270.801 98.3755 270.636 98.3082 270.515 98.1885C270.394 98.0688 270.326 97.9064 270.326 97.7371V79.6796C270.326 79.5103 270.394 79.3479 270.515 79.2282C270.636 79.1085 270.801 79.0412 270.972 79.0412C271.143 79.0412 271.308 79.1085 271.429 79.2282C271.55 79.3479 271.618 79.5103 271.618 79.6796V97.7371C271.618 97.9064 271.55 98.0688 271.429 98.1885C271.308 98.3082 271.143 98.3755 270.972 98.3755Z" fill="#081956"/>
<path d="M270.326 81.4626L263.848 77.7718L265.876 81.624L263.848 83.1649L270.326 86.863V81.4626Z" fill="#80C5DD"/>
<mask id="mask0_91_275" style="mask-type:luminance" maskUnits="userSpaceOnUse" x="279" y="84" width="15" height="27">
<path d="M293.814 89.5265C293.814 86.1732 292.329 84.0821 289.989 84.0821C288.915 84.1239 287.872 84.4454 286.965 85.0139C284.343 86.4814 281.929 89.4971 280.495 93.0338C280.474 93.0677 280.459 93.1049 280.451 93.1438C279.708 94.9314 279.307 96.8397 279.27 98.7717V110.783L293.814 102.492V89.5265Z" fill="white"/>
</mask>
<g mask="url(#mask0_91_275)">
<path d="M290.442 93.1953C290.437 93.0972 290.409 93.0015 290.36 92.9161C290.311 92.8307 290.242 92.7579 290.159 92.7037L275.511 84.3536C275.422 84.3103 275.324 84.2877 275.225 84.2877C275.126 84.2877 275.028 84.3103 274.939 84.3536L274.612 84.5371C274.529 84.5913 274.46 84.664 274.411 84.7495C274.362 84.8349 274.334 84.9306 274.33 85.0287V96.1303C274.336 96.228 274.364 96.323 274.413 96.4082C274.462 96.4934 274.53 96.5665 274.612 96.6219L289.283 104.935C289.372 104.979 289.47 105.001 289.569 105.001C289.668 105.001 289.766 104.979 289.855 104.935L290.182 104.752C290.265 104.698 290.333 104.625 290.382 104.539C290.431 104.454 290.459 104.358 290.464 104.26L290.442 93.1953Z" fill="#F0F0F0"/>
<path d="M290.36 92.9017L289.55 93.364L274.426 84.7351C274.475 84.6494 274.544 84.5764 274.627 84.5223L274.954 84.3389C275.041 84.292 275.14 84.2674 275.24 84.2674C275.339 84.2674 275.438 84.292 275.526 84.3389L290.174 92.6889C290.252 92.7448 290.316 92.8176 290.36 92.9017Z" fill="#FAFAFA"/>
<path d="M290.442 93.1952V104.282C290.437 104.38 290.409 104.476 290.36 104.561C290.311 104.647 290.242 104.72 290.159 104.774L289.833 104.957L289.758 104.994H289.639C289.563 105.009 289.485 105.009 289.409 104.994H289.357H289.32C289.342 105.005 289.366 105.011 289.391 105.011C289.415 105.011 289.439 105.005 289.461 104.994C289.491 104.974 289.516 104.947 289.531 104.914C289.547 104.882 289.554 104.846 289.55 104.81V93.6868C289.552 93.6365 289.538 93.5869 289.51 93.5448C289.482 93.5027 289.442 93.4703 289.394 93.452L289.55 93.364L290.36 92.9017C290.413 92.9906 290.441 93.0919 290.442 93.1952Z" fill="#081956"/>
<path d="M289.55 93.364L282.761 95.866C282.526 95.9513 282.269 95.9557 282.032 95.8784C281.795 95.8012 281.591 95.6468 281.453 95.4405L280.369 93.7969L274.359 84.6984L280.146 93.8556L274.33 96.1302C274.335 96.2291 274.366 96.325 274.419 96.409L280.168 93.8996L281.431 95.9027C281.571 96.1256 281.789 96.2907 282.043 96.3676C282.297 96.4445 282.57 96.4279 282.813 96.321L283.712 95.9321L289.461 104.935C289.491 104.915 289.516 104.888 289.531 104.856C289.547 104.823 289.554 104.787 289.55 104.752V104.568L283.741 95.866L289.55 93.364Z" fill="#081956"/>
</g>
<path d="M303.568 91.3755L302.015 92.6522C301.609 93.2427 301.165 93.8064 300.685 94.3399L296.228 99.4247L294.654 101.222L284.521 107.004L279.678 110.974H279.626C279.481 110.997 279.333 110.974 279.203 110.908L278.75 110.651C278.712 110.629 278.679 110.6 278.654 110.564C278.629 110.528 278.612 110.487 278.605 110.445C278.598 110.402 278.601 110.358 278.613 110.316C278.625 110.275 278.646 110.236 278.675 110.203L282.211 106.168L284.44 103.607C288.579 99.1392 293.329 95.2642 298.554 92.0946C300.648 90.9059 301.956 90.495 302.424 90.7812L303.486 91.3902C303.486 91.3902 303.56 91.3755 303.568 91.3755Z" fill="#455A64"/>
<path d="M301.777 94.9709L298.806 98.3241L298.747 98.3975L295.968 101.575C295.803 101.754 295.613 101.91 295.404 102.037L279.804 110.915C279.752 110.946 279.694 110.966 279.634 110.974H279.626L285.242 104.568L285.569 104.201C289.71 99.7378 294.46 95.8656 299.683 92.6963C301.725 91.5296 303.033 91.1114 303.53 91.3535C304.14 91.6837 303.575 92.9237 301.777 94.9709Z" fill="#FBBC05"/>
</svg>
