<svg width="30" height="30" viewBox="0 0 30 30" fill="none" xmlns="http://www.w3.org/2000/svg">
<path fill-rule="evenodd" clip-rule="evenodd" d="M4.74923 29.9465C4.47448 29.9184 4.20093 29.8789 3.92923 29.8281C3.72968 29.7909 3.54308 29.6997 3.3882 29.5637C3.23333 29.4276 3.11566 29.2516 3.04703 29.0532C2.9784 28.8548 2.96124 28.6411 2.99728 28.4337C3.03331 28.2262 3.12128 28.0323 3.25231 27.8714C3.88347 27.0976 4.31449 26.1693 4.50462 25.174C4.54 24.9901 4.47077 24.6669 4.11385 24.3053C1.57538 21.7375 0 18.2546 0 14.3989C0 6.3515 6.81231 0 15 0C23.1877 0 30 6.3515 30 14.3989C30 22.4462 23.1877 28.7978 15 28.7978C13.7185 28.7978 12.4723 28.6426 11.2815 28.3514C9.33515 29.6234 7.03663 30.1847 4.74923 29.9465Z" fill="#66CEA9"/>
<path d="M22.5588 8.51197C22.8304 8.85353 22.9889 9.3246 22.9994 9.82159C23.01 10.3186 22.8718 10.8008 22.6152 11.1623L14.6275 22.4136C14.498 22.5956 14.3425 22.7413 14.17 22.842C13.9975 22.9426 13.8116 22.9963 13.6232 22.9998C13.4349 23.0033 13.2479 22.9566 13.0734 22.8623C12.8989 22.7681 12.7403 22.6282 12.6071 22.4511L8.37832 16.8254C8.12933 16.47 7.99378 15.9998 8.00022 15.514C8.00666 15.0282 8.1546 14.5646 8.41286 14.2211C8.67112 13.8775 9.01954 13.6807 9.38472 13.6721C9.7499 13.6636 10.1033 13.8439 10.3705 14.1751L13.575 18.4356L20.5666 8.58698C20.8233 8.22568 21.1774 8.01482 21.551 8.00075C21.9246 7.98669 22.2871 8.17057 22.5588 8.51197Z" fill="#F8F8F8"/>
</svg>
