<svg width="262" height="240" viewBox="0 0 262 240" fill="none" xmlns="http://www.w3.org/2000/svg">
<path d="M220.946 125.461C170.173 100.165 88.1309 100.165 37.667 125.461C-12.7969 150.758 -12.511 191.762 38.2626 217.074C89.0362 242.386 171.078 242.376 221.548 217.074C272.018 191.772 271.726 150.763 220.946 125.461Z" fill="#F5F5F5"/>
<path d="M20.0198 199.414C18.2867 200.278 18.2867 201.676 20.0198 202.534L27.0835 206.055C28.0499 206.48 29.1194 206.702 30.2043 206.702C31.2893 206.702 32.3588 206.48 33.3252 206.055L110.811 167.451C112.538 166.588 112.556 165.19 110.811 164.327L103.747 160.811C102.78 160.386 101.709 160.164 100.623 160.164C99.5374 160.164 98.4669 160.386 97.4995 160.811L20.0198 199.414Z" fill="#E6E6E6"/>
<path d="M42.9736 203.896C41.2405 204.76 41.2345 206.157 42.9736 207.016L50.0373 210.536C51.0047 210.962 52.0752 211.184 53.1611 211.184C54.247 211.184 55.3175 210.962 56.285 210.536L122.46 177.53C124.188 176.672 124.205 175.274 122.46 174.411L115.391 170.89C114.424 170.467 113.354 170.246 112.27 170.246C111.186 170.246 110.116 170.467 109.149 170.89L42.9736 203.896Z" fill="#E6E6E6"/>
<path d="M200.482 209.508C186.486 202.534 163.86 202.534 149.953 209.508C136.046 216.483 136.117 227.795 150.113 234.769C164.11 241.744 186.736 241.744 200.649 234.769C214.562 227.795 214.466 216.483 200.482 209.508Z" fill="#E6E6E6"/>
<path d="M232.048 184.705C236.295 182.588 243.15 182.588 247.367 184.705C251.583 186.822 251.536 190.245 247.319 192.363C243.102 194.48 236.217 194.475 232 192.363C227.784 190.251 227.796 186.817 232.048 184.705Z" fill="#081956"/>
<path d="M185.825 58.3647L185.753 80.3516L187.171 81.0609L187.242 59.0688L185.825 58.3647Z" fill="#E0E0E0"/>
<path d="M187.248 59.0688H187.242L187.171 81.0609L188.404 80.439L188.475 59.6804L187.248 59.0688Z" fill="#F0F0F0"/>
<path opacity="0.2" d="M187.242 60.0556V59.0688L185.825 58.3647V59.3514L187.242 60.0556Z" fill="black"/>
<path opacity="0.2" d="M187.242 60.0556L188.237 59.5622L187.248 59.0688H187.242V60.0556Z" fill="black"/>
<path d="M185.825 34.7999L185.753 56.7869L187.171 57.491L187.242 35.504L185.825 34.7999Z" fill="#E0E0E0"/>
<path d="M187.248 35.5039H187.242L187.171 57.4909L188.404 56.8741L188.475 36.1155L187.248 35.5039Z" fill="#F0F0F0"/>
<path opacity="0.2" d="M187.242 36.4908V35.504L185.825 34.7999V35.7867L187.242 36.4908Z" fill="black"/>
<path opacity="0.2" d="M187.242 36.4907L188.237 35.9973L187.248 35.5039H187.242V36.4907Z" fill="black"/>
<path d="M185.825 11.2299L185.753 33.222L187.171 33.9261L187.242 11.9392L185.825 11.2299Z" fill="#E0E0E0"/>
<path d="M187.248 11.9391H187.242L187.171 33.9261L188.404 33.3094L188.475 12.5508L187.248 11.9391Z" fill="#F0F0F0"/>
<path opacity="0.2" d="M187.242 12.926V11.9392L185.825 11.2299V12.2167L187.242 12.926Z" fill="black"/>
<path opacity="0.2" d="M187.242 12.9259L188.237 12.4325L187.248 11.9391H187.242V12.9259Z" fill="black"/>
<path d="M232.697 81.9294L232.626 103.916L234.043 104.626L234.115 82.6335L232.697 81.9294Z" fill="#E0E0E0"/>
<path d="M234.121 82.6336H234.115L234.043 104.626L235.276 104.009L235.348 83.2452L234.121 82.6336Z" fill="#F0F0F0"/>
<path opacity="0.2" d="M234.115 83.6255V82.6335L232.697 81.9294V82.9162L234.115 83.6255Z" fill="black"/>
<path opacity="0.2" d="M234.115 83.6255L235.109 83.1321L234.121 82.6336H234.115V83.6255Z" fill="black"/>
<path d="M215.634 49.8639L216.867 49.242L216.795 71.2342L215.562 71.8509L215.634 49.8639Z" fill="#F0F0F0"/>
<path d="M215.562 71.8509L216.795 71.2342L252.34 88.945L251.113 89.5618L215.562 71.8509Z" fill="#F5F5F5"/>
<path d="M214.222 47.7516L252.608 66.8707L252.524 91.6741L214.139 72.5499L214.222 47.7516ZM251.107 89.5617L251.178 67.5696L215.634 49.8639L215.562 71.8509L251.107 89.5617Z" fill="#E0E0E0"/>
<path d="M214.222 47.7516L215.455 47.1297L253.834 66.254L252.608 66.8707L214.222 47.7516Z" fill="#F5F5F5"/>
<path d="M252.608 66.8706L253.834 66.2539L253.757 91.0573L252.524 91.6741L252.608 66.8706Z" fill="#F0F0F0"/>
<path d="M232.697 58.3647L232.626 80.3516L234.043 81.0609L234.115 59.0688L232.697 58.3647Z" fill="#E0E0E0"/>
<path d="M234.121 59.0688H234.115L234.043 81.0609L235.276 80.439L235.348 59.6804L234.121 59.0688Z" fill="#F0F0F0"/>
<path opacity="0.2" d="M234.115 60.0556V59.0688L232.697 58.3647V59.3514L234.115 60.0556Z" fill="black"/>
<path opacity="0.2" d="M234.115 60.0556L235.109 59.5622L234.121 59.0688H234.115V60.0556Z" fill="black"/>
<path d="M215.634 26.2939L216.867 25.6772L216.795 47.6693L215.562 48.286L215.634 26.2939Z" fill="#F0F0F0"/>
<path d="M215.562 48.286L216.795 47.6693L252.34 65.375L251.113 65.9969L215.562 48.286Z" fill="#F5F5F5"/>
<path d="M214.222 24.1816L252.608 43.3058L252.524 68.1093L214.139 48.985L214.222 24.1816ZM251.107 65.9969L251.178 44.0048L215.634 26.294L215.562 48.2861L251.107 65.9969Z" fill="#E0E0E0"/>
<path d="M214.222 24.1815L215.455 23.5647L253.834 42.689L252.608 43.3057L214.222 24.1815Z" fill="#F5F5F5"/>
<path d="M252.608 43.3058L253.834 42.689L253.757 67.4873L252.524 68.1092L252.608 43.3058Z" fill="#F0F0F0"/>
<path d="M232.697 34.7999L232.626 56.7869L234.043 57.491L234.115 35.504L232.697 34.7999Z" fill="#E0E0E0"/>
<path d="M234.121 35.5039H234.115L234.043 57.4909L235.276 56.8741L235.348 36.1155L234.121 35.5039Z" fill="#F0F0F0"/>
<path opacity="0.2" d="M234.115 36.4908V35.504L232.697 34.7999V35.7867L234.115 36.4908Z" fill="black"/>
<path opacity="0.2" d="M234.115 36.4907L235.109 35.9973L234.121 35.5039H234.115V36.4907Z" fill="black"/>
<path d="M168.767 49.8639L169.994 49.242L169.923 71.2341L168.69 71.8509L168.767 49.8639Z" fill="#F0F0F0"/>
<path d="M168.69 71.8509L169.923 71.2341L205.473 88.945L204.24 89.5617L168.69 71.8509Z" fill="#F5F5F5"/>
<path d="M167.35 47.7515L205.735 66.8706L205.652 91.6741L167.272 72.5498L167.35 47.7515ZM204.24 89.5617L204.312 67.5696L168.767 49.8639L168.69 71.8508L204.24 89.5617Z" fill="#E0E0E0"/>
<path d="M167.35 47.7516L168.583 47.1297L206.968 66.2539L205.735 66.8707L167.35 47.7516Z" fill="#F5F5F5"/>
<path d="M205.735 66.8706L206.968 66.2539L206.885 91.0573L205.652 91.6741L205.735 66.8706Z" fill="#F0F0F0"/>
<path d="M168.767 26.2939L169.994 25.6771L169.923 47.6692L168.69 48.286L168.767 26.2939Z" fill="#F0F0F0"/>
<path d="M168.69 48.286L169.923 47.6692L205.473 65.3749L204.24 65.9968L168.69 48.286Z" fill="#F5F5F5"/>
<path d="M167.35 24.1815L205.735 43.3058L205.652 68.1092L167.272 48.985L167.35 24.1815ZM204.24 65.9969L204.312 44.0048L168.767 26.2939L168.69 48.286L204.24 65.9969Z" fill="#E0E0E0"/>
<path d="M167.35 24.1815L168.583 23.5648L206.968 42.689L205.735 43.3057L167.35 24.1815Z" fill="#F5F5F5"/>
<path d="M205.735 43.3059L206.968 42.6891L206.885 67.4874L205.652 68.1093L205.735 43.3059Z" fill="#F0F0F0"/>
<path d="M168.767 2.7291L169.994 2.11235L169.923 24.0993L168.69 24.7212L168.767 2.7291Z" fill="#F0F0F0"/>
<path d="M168.69 24.7213L169.923 24.0994L205.473 41.8102L204.24 42.427L168.69 24.7213Z" fill="#F5F5F5"/>
<path d="M167.35 0.616783L205.735 19.741L205.652 44.5393L167.272 25.4202L167.35 0.616783ZM204.24 42.427L204.312 20.44L168.767 2.72914L168.69 24.7212L204.24 42.427Z" fill="#E0E0E0"/>
<path d="M167.35 0.616745L168.583 0L206.968 19.1242L205.735 19.741L167.35 0.616745Z" fill="#F5F5F5"/>
<path d="M205.735 19.741L206.968 19.1242L206.885 43.9225L205.652 44.5393L205.735 19.741Z" fill="#F0F0F0"/>
<path d="M215.634 73.4286L216.867 72.8119L216.795 94.7988L215.562 95.4156L215.634 73.4286Z" fill="#F0F0F0"/>
<path d="M215.562 95.4156L216.795 94.7989L252.34 112.51L251.113 113.126L215.562 95.4156Z" fill="#F5F5F5"/>
<path d="M214.222 71.2958L252.608 90.4201L252.524 115.218L214.139 96.0941L214.222 71.2958ZM251.107 113.127L251.178 91.1396L215.628 73.4287L215.556 95.4157L251.107 113.127Z" fill="#E0E0E0"/>
<path d="M214.222 71.3162L215.455 70.6995L253.835 89.8186L252.608 90.4405L214.222 71.3162Z" fill="#F5F5F5"/>
<path d="M252.608 90.4405L253.835 89.8186L253.757 114.622L252.524 115.239L252.608 90.4405Z" fill="#F0F0F0"/>
<path d="M229.398 172.545L239.672 172.802L249.945 172.545C250.392 178.532 249.034 184.633 247.17 187.614C246.73 188.379 246.018 189.004 245.139 189.397C242.107 190.908 237.206 190.908 234.192 189.397C233.3 188.997 232.586 188.354 232.161 187.568C230.297 184.566 228.957 178.496 229.398 172.545Z" fill="#FBBC05"/>
<path d="M232.429 168.906C228.403 170.91 228.385 174.164 232.382 176.168C236.378 178.173 242.888 178.178 246.914 176.168C250.94 174.159 250.958 170.91 246.961 168.906C242.965 166.902 236.455 166.891 232.429 168.906Z" fill="#EBEBEB"/>
<path d="M234.025 169.703C230.881 171.244 230.863 173.814 233.984 175.356C237.105 176.898 242.179 176.898 245.3 175.356C248.421 173.814 248.456 171.244 245.336 169.703C242.215 168.161 237.164 168.14 234.025 169.703Z" fill="#E0E0E0"/>
<g opacity="0.15">
<path d="M234.025 169.703C230.881 171.244 230.863 173.814 233.984 175.356C237.105 176.898 242.179 176.898 245.3 175.356C248.421 173.814 248.456 171.244 245.336 169.703C242.215 168.161 237.164 168.14 234.025 169.703Z" fill="black"/>
</g>
<path d="M222.781 134.702C245.931 141.245 246.145 154.613 240.922 164.131C239.606 166.059 235.622 167.092 232.155 155.255L238.236 155.929L231.149 152.845L229.308 148.096L235.217 148.471L227.718 145.752C226.338 141.985 224.689 138.294 222.781 134.702Z" fill="#80C5DD"/>
<path opacity="0.2" d="M222.781 134.702C245.931 141.245 246.145 154.613 240.922 164.131C239.606 166.059 235.622 167.092 232.155 155.255L238.236 155.929L231.149 152.845L229.308 148.096L235.217 148.471L227.718 145.752C226.338 141.985 224.689 138.294 222.781 134.702Z" fill="black"/>
<path opacity="0.2" d="M222.781 134.702C245.931 141.245 246.145 154.613 240.922 164.131C239.606 166.059 235.622 167.092 232.155 155.255L238.236 155.929L231.149 152.845L229.308 148.096L235.217 148.471L227.718 145.752C226.338 141.985 224.689 138.294 222.781 134.702Z" fill="#299220"/>
<path d="M229.326 138.048C241.542 146.045 242.644 155.214 239.189 164.774C240.386 156.355 241.732 147.834 229.326 138.048Z" fill="white"/>
<path d="M262 148.281C239.171 151.056 236.39 163.474 239.433 173.09C240.291 175.074 243.799 176.605 249.308 166.079L243.513 165.833L250.714 163.962L253.34 159.804L247.766 159.29L255.276 157.851C257.284 154.543 259.53 151.347 262 148.281Z" fill="#80C5DD"/>
<path opacity="0.2" d="M262 148.281C239.171 151.056 236.39 163.474 239.433 173.09C240.291 175.074 243.799 176.605 249.308 166.079L243.513 165.833L250.714 163.962L253.34 159.804L247.766 159.29L255.276 157.851C257.284 154.543 259.53 151.347 262 148.281Z" fill="white"/>
<path opacity="0.1" d="M262 148.281C239.171 151.056 236.39 163.474 239.433 173.09C240.291 175.074 243.799 176.605 249.308 166.079L243.513 165.833L250.714 163.962L253.34 159.804L247.766 159.29L255.276 157.851C257.284 154.543 259.53 151.347 262 148.281Z" fill="#299220"/>
<path d="M255.276 150.445C242.369 156.145 239.576 164.522 240.946 173.933C241.405 165.92 241.822 157.794 255.276 150.445Z" fill="white"/>
<path d="M216.098 152.938C237.033 153.23 241.113 164.157 239.654 173.115C239.141 174.986 236.175 176.713 229.844 167.75L235.032 166.968L228.302 165.977L225.395 162.482L230.357 161.5L223.4 160.909C221.16 158.124 218.721 155.461 216.098 152.938Z" fill="#80C5DD"/>
<path d="M222.459 154.243C234.835 158.134 238.439 165.416 238.427 174.03C236.944 166.845 235.52 159.557 222.459 154.243Z" fill="white"/>
<path opacity="0.2" d="M216.098 152.938C237.033 153.23 241.113 164.157 239.654 173.115C239.141 174.986 236.175 176.713 229.844 167.75L235.032 166.968L228.302 165.977L225.395 162.482L230.357 161.5L223.4 160.909C221.16 158.124 218.721 155.461 216.098 152.938Z" fill="#299220"/>
<path d="M108.976 17.0532C108.434 15.4137 104.581 12.2991 100.745 12.3659C100.377 12.3776 100.014 12.4383 99.6674 12.5458L25.1895 49.1136C24.1088 49.6603 23.2113 50.4399 22.5848 51.3761C21.9584 52.3122 21.6245 53.3727 21.616 54.4536V193.489C21.616 197.03 26.3449 200.406 30.788 198.782C30.8874 198.76 30.9834 198.727 31.0739 198.685L105.564 162.055C106.65 161.514 107.552 160.736 108.179 159.798C108.807 158.861 109.137 157.798 109.137 156.715V17.7213C109.143 17.4909 109.088 17.2624 108.976 17.0532Z" fill="#37474F"/>
<path d="M108.976 17.0532C108.434 15.4137 104.581 12.2991 100.745 12.3659C100.377 12.3776 100.014 12.4383 99.6674 12.5458L25.1895 49.1136C24.1088 49.6603 23.2113 50.44 22.5848 51.3761C21.9584 52.3122 21.6245 53.3727 21.616 54.4536V193.489C21.616 197.03 26.3449 200.406 30.788 198.782C30.8874 198.76 30.9834 198.727 31.0739 198.685L105.564 162.055C106.65 161.514 107.552 160.736 108.179 159.798C108.807 158.861 109.137 157.798 109.137 156.715V17.7213C109.143 17.4909 109.088 17.2624 108.976 17.0532Z" fill="#081956"/>
<path d="M31.9791 69.1526C31.9787 68.611 32.1437 68.0788 32.4573 67.6096C32.771 67.1405 33.2223 66.7509 33.7659 66.48L102.943 32.5231C103.214 32.3915 103.521 32.3233 103.832 32.3253C104.143 32.3273 104.448 32.3993 104.717 32.5343C104.986 32.6693 105.209 32.8626 105.365 33.095C105.521 33.3274 105.604 33.5909 105.605 33.8594V145.968C105.606 146.51 105.441 147.042 105.127 147.511C104.814 147.98 104.362 148.37 103.819 148.641L34.6414 182.649C34.3702 182.781 34.0639 182.849 33.7527 182.847C33.4416 182.845 33.1365 182.773 32.8675 182.638C32.5986 182.503 32.3751 182.31 32.2193 182.077C32.0635 181.845 31.9807 181.581 31.9791 181.313V69.1526Z" fill="#80C5DD"/>
<path opacity="0.2" d="M31.9791 69.1526C31.9787 68.611 32.1437 68.0788 32.4573 67.6096C32.771 67.1405 33.2223 66.7509 33.7659 66.48L102.943 32.5231C103.214 32.3915 103.521 32.3233 103.832 32.3253C104.143 32.3273 104.448 32.3993 104.717 32.5343C104.986 32.6693 105.209 32.8626 105.365 33.095C105.521 33.3274 105.604 33.5909 105.605 33.8594V145.968C105.606 146.51 105.441 147.042 105.127 147.511C104.814 147.98 104.362 148.37 103.819 148.641L34.6414 182.649C34.3702 182.781 34.0639 182.849 33.7527 182.847C33.4416 182.845 33.1365 182.773 32.8675 182.638C32.5986 182.503 32.3751 182.31 32.2193 182.077C32.0635 181.845 31.9807 181.581 31.9791 181.313V69.1526Z" fill="black"/>
<path opacity="0.3" d="M21.5922 54.4535V193.488C21.5922 197.03 26.3211 200.406 30.7642 198.782C30.4965 198.864 30.2101 198.889 29.9287 198.857C29.6474 198.824 29.3791 198.733 29.1463 198.593C28.9134 198.453 28.7226 198.267 28.5896 198.05C28.4567 197.834 28.3855 197.593 28.3818 197.348V58.2979C28.3845 57.0893 28.7988 55.9079 29.573 54.9007L22.3307 51.7656C21.8498 52.6011 21.5971 53.5206 21.5922 54.4535Z" fill="#081956"/>
<path opacity="0.1" d="M100.751 12.3607C100.383 12.3724 100.02 12.433 99.6733 12.5406L25.1895 49.1136C23.9483 49.7261 22.9515 50.649 22.3307 51.7604L29.6206 54.9007C30.2274 54.0996 31.0433 53.4325 32.003 52.9528L106.505 16.3849C106.716 16.2834 106.95 16.2201 107.191 16.1988C107.432 16.1776 107.675 16.1988 107.907 16.2613C108.138 16.3238 108.352 16.4263 108.536 16.5624C108.72 16.6985 108.87 16.8654 108.976 17.0531C108.44 15.4084 104.593 12.2939 100.751 12.3607Z" fill="#081956"/>
<path d="M77.9702 39.3433C78.4943 39.0812 78.9291 39.2868 78.9291 39.8059C78.91 40.0909 78.8139 40.3681 78.6484 40.6153C78.4829 40.8625 78.2527 41.0728 77.9762 41.2295L63.3665 48.5071C62.8424 48.7693 62.4195 48.5483 62.4195 48.0292C62.4348 47.7474 62.5283 47.4729 62.692 47.2287C62.8558 46.9846 63.085 46.7779 63.3605 46.6261L77.9702 39.3433Z" fill="#80C5DD"/>
<path d="M59.6084 48.4967C60.1265 48.2346 60.5494 48.4402 60.5553 48.9593C60.5371 49.2426 60.4425 49.5183 60.2792 49.7646C60.1158 50.0108 59.8882 50.2208 59.6143 50.3778C59.0902 50.6399 58.6554 50.4241 58.6554 49.905C58.6726 49.6217 58.768 49.346 58.9338 49.101C59.0996 48.8561 59.3309 48.6489 59.6084 48.4967Z" fill="#80C5DD"/>
<path d="M68.959 38.2845C70.0072 37.7705 70.847 38.1766 70.853 39.2148C70.8202 39.7814 70.6327 40.3333 70.3056 40.8255C69.9785 41.3177 69.5212 41.7361 68.9709 42.0466C67.9286 42.5606 67.0591 42.1443 67.0591 41.1061C67.0956 40.5399 67.2868 39.9891 67.617 39.4987C67.9472 39.0084 68.407 38.5923 68.959 38.2845Z" fill="#80C5DD"/>
<path d="M68.965 169.173C71.0913 168.109 72.8125 168.957 72.8185 171.065C72.7514 172.219 72.3696 173.343 71.7041 174.346C71.0387 175.349 70.1084 176.202 68.9889 176.836C66.8626 177.895 65.0997 177.027 65.0878 174.914C65.1661 173.762 65.558 172.641 66.2316 171.644C66.9053 170.647 67.8417 169.8 68.965 169.173Z" fill="#263238"/>
<path d="M123.354 39.0968C122.998 38.3186 122.428 37.627 121.692 37.0821C120.754 36.3085 119.654 35.6947 118.452 35.273C118.247 35.2022 118.039 35.1404 117.827 35.088C117.198 34.9217 116.543 34.8385 115.885 34.8413C115.588 34.8525 115.294 34.8957 115.01 34.9698L114.908 35.0057L47.3035 68.2123C46.872 68.4251 46.472 68.6822 46.1123 68.9781C45.7027 69.3067 45.3443 69.6799 45.0462 70.0883C44.9161 70.2537 44.7968 70.4253 44.6888 70.6022C44.3747 71.1723 44.1733 71.7838 44.0933 72.4113C44.0642 72.6246 44.0503 72.8391 44.0516 73.0538V199.271C44.0516 201.882 46.8866 204.41 50.1087 204.457C50.8879 204.472 51.6618 204.342 52.3779 204.076L52.5089 204.035L52.6399 203.984L120.263 170.695C121.254 170.208 122.078 169.502 122.652 168.651C123.225 167.8 123.527 166.833 123.526 165.848V39.7033C123.527 39.4921 123.467 39.2839 123.354 39.0968Z" fill="#80C5DD"/>
<path d="M123.354 39.0967C122.865 37.6114 119.369 34.7846 115.885 34.8412C115.552 34.8515 115.222 34.907 114.908 35.0056L47.3035 68.2122C46.177 68.7677 45.2717 69.6045 44.7067 70.6124C44.2717 71.3753 44.0435 72.2137 44.0397 73.0639V199.271C44.0397 202.483 48.3338 205.551 52.3779 204.076C52.4686 204.053 52.5563 204.022 52.6399 203.984L120.263 170.695C121.254 170.207 122.078 169.502 122.652 168.651C123.225 167.8 123.527 166.833 123.526 165.848V39.7032C123.527 39.4919 123.467 39.2838 123.354 39.0967Z" fill="#80C5DD"/>
<path opacity="0.2" d="M44.0397 73.0485V199.271C44.0397 202.483 48.3338 205.551 52.3779 204.076C52.1349 204.152 51.8743 204.176 51.6182 204.147C51.362 204.118 51.1178 204.035 50.9063 203.907C50.6948 203.779 50.5221 203.609 50.403 203.411C50.2838 203.213 50.2217 202.994 50.2218 202.771V76.5331C50.225 75.4349 50.6042 74.3621 51.3118 73.4493L44.6948 70.5918C44.263 71.3571 44.0389 72.1972 44.0397 73.0485Z" fill="white"/>
<path opacity="0.4" d="M115.909 34.8359C115.575 34.8463 115.246 34.9018 114.932 35.0004L47.3035 68.2121C46.177 68.7676 45.2717 69.6044 44.7067 70.6123L51.3237 73.4699C51.8802 72.7403 52.6266 72.1331 53.5035 71.6968L121.114 38.4902C121.306 38.3961 121.517 38.337 121.736 38.3168C121.956 38.2965 122.177 38.3154 122.387 38.3723C122.597 38.4292 122.792 38.5229 122.958 38.6475C123.124 38.7722 123.259 38.925 123.354 39.0966C122.871 37.6062 119.375 34.8051 115.909 34.8359Z" fill="white"/>
<path opacity="0.2" d="M123.354 39.0967C122.865 37.6114 119.369 34.7846 115.885 34.8412C115.552 34.8515 115.222 34.907 114.908 35.0056L47.3035 68.2122C46.177 68.7677 45.2717 69.6045 44.7067 70.6124C44.2717 71.3753 44.0435 72.2137 44.0397 73.0639V199.271C44.0397 202.483 48.3338 205.551 52.3779 204.076C52.4686 204.053 52.5563 204.022 52.6399 203.984L120.263 170.695C121.254 170.207 122.078 169.502 122.652 168.651C123.225 167.8 123.527 166.833 123.526 165.848V39.7032C123.527 39.4919 123.467 39.2838 123.354 39.0967Z" fill="white"/>
<path d="M114.468 46.7957L114.474 48.1371L116.439 47.1555L116.433 45.814L114.468 46.7957Z" fill="#80C5DD"/>
<path d="M118.244 44.4623L114.009 46.5695V48.8104L118.238 46.7032V45.9374L118.541 45.7883V45.0842L118.434 45.1356L118.244 45.2333V44.4623ZM116.457 47.1554L114.485 48.1371V46.7957L116.451 45.814V47.14L116.457 47.1554Z" fill="white"/>
<path d="M82.0022 62.5176L82.0141 64.7584L92.3952 59.588L92.3892 57.3472L82.0022 62.5176Z" fill="white"/>
<path d="M108.262 49.4374L108.268 51.6782L112.109 49.7663L112.097 47.5255L108.262 49.4374Z" fill="white"/>
<path d="M57.1545 75.2224L57.1604 77.1395L57.6845 76.8773L57.6786 74.9603L57.1545 75.2224Z" fill="white"/>
<path d="M65.3855 73.0433L67.6487 71.9126L67.6427 69.6717L66.3324 70.3245L65.3795 70.8024L65.3855 73.0433Z" fill="white"/>
<path d="M59.9895 75.7313L64.2241 73.6189L64.2181 71.3781L59.9835 73.4904L59.9895 75.7313Z" fill="white"/>
<path d="M58.03 76.7079L58.3397 76.5537L58.5541 76.4457L58.5482 74.2049L58.024 74.467L58.03 76.7079Z" fill="white"/>
<path d="M56.2908 77.5764L56.672 77.3811L56.815 77.3143L56.809 75.8032L56.6661 75.87L56.2849 76.0602L56.2908 77.5764Z" fill="white"/>
<path d="M55.4213 78.0081L55.9395 77.746V76.6409L55.4213 76.8979V78.0081Z" fill="white"/>
<path d="M65.9989 84.5867C66.4754 84.5302 66.7731 84.6535 66.7791 85.2086C66.7384 85.6153 66.5737 86.0054 66.3018 86.3394C66.0298 86.6734 65.6602 86.9394 65.2306 87.1102L63.7238 87.8606C63.4736 87.9891 63.2711 87.8914 63.2711 87.6396V84.4479C63.2783 84.3119 63.3232 84.1793 63.4019 84.0613C63.4807 83.9432 63.591 83.8432 63.7238 83.7695L65.1889 83.0397C65.6535 82.8084 66.0287 82.7519 66.2669 82.8649C66.3678 82.9269 66.4476 83.0111 66.4979 83.1087C66.5482 83.2064 66.5672 83.3139 66.5528 83.42C66.5352 83.8534 66.3388 84.2672 65.9989 84.5867ZM65.8738 85.5581C65.8738 85.2857 65.6654 85.2189 65.2008 85.4501L64.1526 85.9641V86.8635L65.2306 86.3496C65.407 86.2827 65.5596 86.1766 65.6726 86.042C65.7857 85.9074 65.8551 85.7492 65.8738 85.5838M64.1466 84.3708V85.2343L64.9864 84.818C65.1634 84.7541 65.3171 84.6502 65.4313 84.5172C65.5456 84.3842 65.6162 84.2271 65.6356 84.0625C65.6356 83.7952 65.4271 83.7489 65.04 83.9391L64.1466 84.3863" fill="white"/>
<path d="M70.5908 80.3055C70.8469 80.1821 71.0494 80.2798 71.0494 80.5316V82.4281C71.0692 82.9826 70.9133 83.5312 70.5984 84.0149C70.2836 84.4985 69.8217 84.8988 69.2627 85.1726C68.1549 85.7277 67.4759 85.4502 67.4759 84.2424V82.3253C67.4826 82.1892 67.5273 82.0564 67.6061 81.9384C67.6849 81.8203 67.7955 81.7203 67.9286 81.6469C68.1847 81.5184 68.3812 81.6469 68.3872 81.873V83.7695C68.3872 84.4377 68.7266 84.6176 69.2746 84.34C69.5607 84.1969 69.7951 83.988 69.9518 83.7366C70.1085 83.4853 70.1813 83.2013 70.162 82.9164V80.9839C70.1688 80.8501 70.211 80.7194 70.2854 80.6018C70.3597 80.4843 70.4642 80.3829 70.5908 80.3055Z" fill="white"/>
<path d="M74.7183 78.2856C74.9446 78.1725 75.1352 78.2856 75.1352 78.4963C75.127 78.6216 75.085 78.7435 75.0127 78.8524C74.9403 78.9612 74.8395 79.054 74.7183 79.1233L73.8487 79.5551V82.3972C73.8415 82.5333 73.7966 82.6658 73.7179 82.7839C73.6392 82.9019 73.5288 83.0019 73.3961 83.0756C73.1459 83.2041 72.9375 83.1065 72.9375 82.8495V80.033L72.062 80.4699C71.8357 80.583 71.6451 80.4699 71.6451 80.2592C71.6528 80.1345 71.6946 80.0131 71.767 79.9051C71.8395 79.797 71.9406 79.7052 72.062 79.6373L74.7183 78.2856Z" fill="white"/>
<path d="M78.536 76.384C78.7682 76.2709 78.9588 76.384 78.9588 76.5896C78.9506 76.7148 78.9087 76.8368 78.8363 76.9456C78.7639 77.0545 78.6631 77.1472 78.5419 77.2166L77.6664 77.6534V80.4956C77.6577 80.6314 77.6123 80.7635 77.5337 80.8813C77.455 80.9991 77.3455 81.0994 77.2138 81.174C76.9577 81.2974 76.7611 81.1997 76.7611 80.9427V78.1006L75.8856 78.5374C75.6533 78.6556 75.4687 78.5374 75.4687 78.3319C75.4764 78.2065 75.5182 78.0844 75.5906 77.9755C75.663 77.8666 75.7641 77.7739 75.8856 77.7048L78.536 76.384Z" fill="white"/>
<path d="M81.4543 74.8576C82.7289 74.2255 83.6461 74.7137 83.6461 75.8855C83.6105 76.5357 83.3924 77.1686 83.0106 77.7299C82.6288 78.2913 82.0947 78.7642 81.4543 79.108C80.1858 79.7402 79.2686 79.2571 79.2626 78.0801C79.3007 77.4305 79.5199 76.7984 79.9014 76.2374C80.283 75.6764 80.8157 75.2031 81.4543 74.8576ZM82.6991 76.3686C82.6991 75.6697 82.181 75.3407 81.4484 75.7108C81.0798 75.9142 80.7746 76.1925 80.5596 76.5214C80.3447 76.8502 80.2265 77.2196 80.2155 77.597C80.2155 78.3011 80.7396 78.6249 81.4663 78.2651C81.8358 78.0601 82.1415 77.78 82.3564 77.4494C82.5713 77.1187 82.689 76.7477 82.6991 76.3686Z" fill="white"/>
<path d="M87.6722 71.8098C87.9164 71.6865 88.1249 71.8098 88.1249 72.0308V75.2842C88.117 75.42 88.0712 75.5522 87.9914 75.6694C87.9115 75.7866 87.8 75.8855 87.6662 75.9574C87.5981 76.0043 87.5122 76.0275 87.4253 76.0228C87.3383 76.018 87.2565 75.9856 87.1957 75.9317L85.3732 74.4773V76.6667C85.3658 76.8007 85.3214 76.9312 85.2437 77.0475C85.166 77.1637 85.0573 77.2622 84.9266 77.3348C84.6824 77.4582 84.4799 77.3605 84.4799 77.1138V73.8605C84.4866 73.7244 84.5313 73.5916 84.6101 73.4735C84.6888 73.3554 84.7995 73.2555 84.9325 73.1821L85.0278 73.1358C85.0961 73.0885 85.1828 73.0654 85.2701 73.0711C85.3575 73.0768 85.439 73.111 85.4983 73.1667L87.2553 74.5749V72.4626C87.2621 72.3335 87.3033 72.2074 87.3756 72.0943C87.4479 71.9811 87.5494 71.8838 87.6722 71.8098Z" fill="white"/>
<path d="M92.2106 69.5124C92.5966 69.2905 93.0589 69.189 93.5209 69.2246C93.6162 69.2246 93.7174 69.3068 93.7174 69.4816C93.712 69.608 93.6705 69.7313 93.5968 69.8407C93.523 69.95 93.4192 70.0421 93.2945 70.1086C93.2281 70.1475 93.1482 70.1657 93.0682 70.16C92.7667 70.129 92.4616 70.1831 92.1987 70.3142C92.0575 70.3717 91.9351 70.4587 91.8425 70.5673C91.75 70.6759 91.6902 70.8026 91.6686 70.9361C91.6686 71.2033 91.8473 71.2033 92.562 71.0337C93.4018 70.8281 93.8723 70.8949 93.8723 71.6093C93.8537 72.0363 93.7045 72.4514 93.4398 72.8124C93.1752 73.1735 92.8045 73.4677 92.3654 73.6652C91.9079 73.9267 91.3519 74.0278 90.811 73.9478C90.7157 73.9478 90.6442 73.8348 90.6382 73.696C90.6448 73.5692 90.6874 73.4457 90.7622 73.3364C90.8369 73.2271 90.9416 73.1353 91.0671 73.069C91.1423 73.0257 91.2341 73.0091 91.3232 73.0227C91.5021 73.0604 91.6881 73.0657 91.8696 73.0383C92.051 73.0109 92.2239 72.9513 92.3773 72.8634C92.5362 72.8031 92.6744 72.7085 92.7787 72.5888C92.883 72.4691 92.9499 72.3283 92.9729 72.1798C92.9729 71.9434 92.83 71.8972 92.1391 72.0668C91.3112 72.2672 90.7693 72.3083 90.7693 71.4963C90.7938 71.087 90.939 70.69 91.1913 70.3428C91.4435 69.9956 91.7944 69.7098 92.2106 69.5124Z" fill="white"/>
<path d="M97.3088 67.03C97.5411 66.9169 97.7317 67.03 97.7317 67.2407C97.7225 67.3651 97.6802 67.486 97.6078 67.5939C97.5355 67.7018 97.4352 67.7938 97.3147 67.8626L96.4392 68.2995V71.1416C96.4306 71.2774 96.3851 71.4095 96.3065 71.5273C96.2279 71.6452 96.1183 71.7454 95.9866 71.82C95.7305 71.9434 95.528 71.8509 95.528 71.5939V68.7517L94.6584 69.1886C94.4262 69.3017 94.2415 69.1886 94.2415 68.9779C94.2491 68.853 94.2901 68.7314 94.3614 68.6226C94.4327 68.5138 94.5324 68.4208 94.6525 68.3509L97.3088 67.03Z" fill="white"/>
<path d="M101.383 64.9639C101.663 64.8251 101.823 64.9331 101.829 65.1798C101.819 65.3105 101.779 65.4381 101.71 65.555L100.382 68.0014V69.1783C100.375 69.3145 100.331 69.4472 100.252 69.5653C100.173 69.6834 100.062 69.7834 99.9294 69.8568C99.6793 69.9801 99.4768 69.8876 99.4768 69.6306V68.4691L98.1367 67.3384C98.0985 67.3026 98.0693 67.2603 98.0509 67.2144C98.0324 67.1684 98.0252 67.1196 98.0295 67.0711C98.0374 66.9386 98.082 66.8096 98.1598 66.6951C98.2375 66.5807 98.346 66.484 98.4762 66.4133C98.5097 66.3909 98.5481 66.3744 98.5891 66.3649C98.6301 66.3553 98.6728 66.3528 98.7149 66.3576C98.757 66.3624 98.7975 66.3743 98.8343 66.3927C98.871 66.4111 98.9031 66.4355 98.9288 66.4647L99.9354 67.3949L100.948 65.447C101.031 65.2507 101.183 65.0817 101.383 64.9639Z" fill="white"/>
<path d="M102.901 64.2084C103.157 64.0851 103.354 64.1827 103.36 64.4345V67.2973L105.04 66.4595C105.272 66.3413 105.456 66.4338 105.456 66.66C105.448 66.7826 105.407 66.9019 105.336 67.0082C105.264 67.1145 105.165 67.2047 105.045 67.2716L102.907 68.3355C102.657 68.464 102.455 68.3663 102.455 68.1145V64.8868C102.461 64.7512 102.505 64.619 102.583 64.501C102.661 64.383 102.77 64.2827 102.901 64.2084Z" fill="white"/>
<path d="M108.839 61.2841C109.06 61.1762 109.25 61.2841 109.25 61.4845C109.242 61.6059 109.201 61.7238 109.131 61.8291C109.061 61.9344 108.963 62.0241 108.845 62.091L107.005 63.0058V63.8333L108.583 63.0727C108.804 62.9596 108.988 63.047 108.988 63.2731C108.98 63.3936 108.938 63.5107 108.868 63.6151C108.798 63.7195 108.7 63.8083 108.583 63.8744L107.011 64.6145V65.478L108.881 64.5477C109.101 64.4346 109.286 64.5477 109.286 64.7482C109.277 64.868 109.236 64.9844 109.166 65.0879C109.096 65.1915 108.998 65.2793 108.881 65.3443L106.57 66.4956C106.308 66.6241 106.112 66.5264 106.112 66.2746V63.0829C106.119 62.9469 106.164 62.8143 106.242 62.6963C106.321 62.5783 106.432 62.4782 106.564 62.4045L108.839 61.2841Z" fill="white"/>
<path d="M56.3504 97.1117C56.3586 97.0512 56.3831 96.9931 56.4219 96.9421C56.4517 96.902 56.4901 96.8671 56.5351 96.8393L117.434 66.9426V165.863C117.433 165.918 117.416 165.972 117.385 166.019C117.354 166.067 117.309 166.107 117.255 166.136L56.3504 196.069V97.1117Z" fill="#80C5DD"/>
<path opacity="0.5" d="M56.3504 97.1117C56.3586 97.0512 56.3831 96.9931 56.4219 96.9421C56.4517 96.902 56.4901 96.8671 56.5351 96.8393L117.434 66.9426V165.863C117.433 165.918 117.416 165.972 117.385 166.019C117.354 166.067 117.309 166.107 117.255 166.136L56.3504 196.069V97.1117Z" fill="white"/>
<path d="M77.7141 98.1448L75.0518 96.8239H75.0101C73.8189 96.2637 72.187 96.3614 70.3943 97.2557C66.7434 99.0751 63.7893 103.48 63.8012 107.103C63.8012 108.871 64.5278 110.12 65.6832 110.701L65.7428 110.732L68.1252 111.893L68.8101 110.917C69.3772 110.776 69.9214 110.574 70.4301 110.315C74.075 108.501 77.0232 104.091 76.9815 100.478C76.9835 100.095 76.9436 99.7134 76.8624 99.3372L77.7141 98.1448Z" fill="#80C5DD"/>
<path opacity="0.2" d="M77.7141 98.1448L75.0518 96.8239H75.0101C73.8189 96.2637 72.187 96.3614 70.3943 97.2557C66.7434 99.0751 63.7893 103.48 63.8012 107.103C63.8012 108.871 64.5278 110.12 65.6832 110.701L65.7428 110.732L68.1252 111.893L68.8101 110.917C69.3772 110.776 69.9214 110.574 70.4301 110.315C74.075 108.501 77.0232 104.091 76.9815 100.478C76.9835 100.095 76.9436 99.7134 76.8624 99.3372L77.7141 98.1448Z" fill="black"/>
<path d="M72.9732 98.5355C76.6182 96.7213 79.5901 98.1809 79.602 101.799C79.6139 105.417 76.6658 109.822 73.0149 111.641C69.3639 113.461 66.3979 112.001 66.386 108.383C66.3741 104.765 69.3222 100.334 72.9732 98.5355Z" fill="black"/>
<path d="M67.4938 122.676L67.5355 135.777L80.7515 129.193L80.7039 116.092L67.4938 122.676Z" fill="black"/>
<path d="M65.0638 121.458L65.1055 134.558L67.5355 135.777L67.4938 122.676L65.0638 121.458Z" fill="#80C5DD"/>
<path opacity="0.2" d="M65.0638 121.458L65.1055 134.558L67.5355 135.777L67.4938 122.676L65.0638 121.458Z" fill="black"/>
<path d="M80.7039 116.092L78.2739 114.874L65.0638 121.458L67.4938 122.676L80.7039 116.092Z" fill="#80C5DD"/>
<path opacity="0.1" d="M80.7039 116.092L78.2739 114.874L65.0638 121.458L67.4938 122.676L80.7039 116.092Z" fill="black"/>
<path d="M118.357 97.2712L91.1088 110.845L91.1504 123.945L118.398 110.372L118.357 97.2712Z" fill="#081956"/>
<path d="M88.6787 109.627L88.7204 122.727L91.1504 123.945L91.1087 110.845L88.6787 109.627Z" fill="#80C5DD"/>
<path opacity="0.2" d="M88.6787 109.627L88.7204 122.727L91.1504 123.945L91.1087 110.845L88.6787 109.627Z" fill="black"/>
<path d="M118.357 97.2711L115.927 96.053L88.6787 109.627L91.1087 110.845L118.357 97.2711Z" fill="#80C5DD"/>
<path opacity="0.1" d="M118.357 97.2711L115.927 96.053L88.6787 109.627L91.1087 110.845L118.357 97.2711Z" fill="black"/>
<path d="M66.2789 153.344L71.0435 145.346C71.3027 144.888 71.7049 144.502 72.2049 144.231L86.5585 137.082C86.7103 136.988 86.8878 136.929 87.0736 136.912C87.2595 136.895 87.4473 136.92 87.6187 136.984L84.9862 135.663C84.8127 135.57 84.6103 135.524 84.4061 135.533C84.2018 135.541 84.0053 135.603 83.8427 135.71L69.4533 142.864C68.944 143.133 68.5315 143.519 68.2622 143.979L63.4975 151.976C63.021 152.773 63.027 153.595 63.4975 153.919L68.2622 157.167L70.9899 158.534L66.2253 155.286C65.8083 154.962 65.8083 154.14 66.2789 153.344Z" fill="#80C5DD"/>
<path opacity="0.2" d="M66.2789 153.344L71.0435 145.346C71.3027 144.888 71.7049 144.502 72.2049 144.231L86.5585 137.082C86.7103 136.988 86.8878 136.929 87.0736 136.912C87.2595 136.895 87.4473 136.92 87.6187 136.984L84.9862 135.663C84.8127 135.57 84.6103 135.524 84.4061 135.533C84.2018 135.541 84.0053 135.603 83.8427 135.71L69.4533 142.864C68.944 143.133 68.5315 143.519 68.2622 143.979L63.4975 151.976C63.021 152.773 63.027 153.595 63.4975 153.919L68.2622 157.167L70.9899 158.534L66.2253 155.286C65.8083 154.962 65.8083 154.14 66.2789 153.344Z" fill="black"/>
<path d="M88.0832 137.822C88.1037 137.658 88.0711 137.491 87.9892 137.342C87.9072 137.192 87.779 137.065 87.6186 136.974C87.4473 136.91 87.2595 136.885 87.0736 136.902C86.8877 136.919 86.7102 136.978 86.5585 137.072L72.193 144.231C71.693 144.502 71.2907 144.889 71.0316 145.346L66.2669 153.344C65.7964 154.14 65.7964 154.963 66.2669 155.286L71.0316 158.535C71.2075 158.63 71.4131 158.677 71.6207 158.668C71.8283 158.66 72.028 158.597 72.193 158.488L86.5645 151.329C87.0063 151.082 87.374 150.749 87.637 150.356C87.9001 149.963 88.051 149.521 88.0772 149.068L88.0832 137.822Z" fill="#FBBC05"/>
<path d="M99.1491 143.506L99.1134 132.261C99.1427 131.807 99.2955 131.365 99.5593 130.971C99.8232 130.578 100.191 130.243 100.632 129.995L114.998 122.84C115.138 122.757 115.298 122.703 115.466 122.679C115.634 122.656 115.805 122.666 115.968 122.707L113.342 121.376C113.171 121.309 112.982 121.282 112.795 121.297C112.608 121.312 112.429 121.369 112.276 121.463L97.9043 128.622C97.4627 128.87 97.0953 129.205 96.8324 129.599C96.5694 129.993 96.4183 130.435 96.3916 130.889L96.4273 142.134C96.4093 142.292 96.4394 142.452 96.5146 142.597C96.5898 142.742 96.7075 142.868 96.8561 142.962H96.8859L99.5958 144.324C99.4462 144.232 99.3264 144.109 99.2482 143.966C99.1699 143.822 99.1358 143.664 99.1491 143.506Z" fill="#80C5DD"/>
<path opacity="0.2" d="M99.1491 143.506L99.1134 132.261C99.1427 131.807 99.2955 131.365 99.5593 130.971C99.8232 130.578 100.191 130.243 100.632 129.995L114.998 122.84C115.138 122.757 115.298 122.703 115.466 122.679C115.634 122.656 115.805 122.666 115.968 122.707L113.342 121.376C113.171 121.309 112.982 121.282 112.795 121.297C112.608 121.312 112.429 121.369 112.276 121.463L97.9043 128.622C97.4627 128.87 97.0953 129.205 96.8324 129.599C96.5694 129.993 96.4183 130.435 96.3916 130.889L96.4273 142.134C96.4093 142.292 96.4394 142.452 96.5146 142.597C96.5898 142.742 96.7075 142.868 96.8561 142.962H96.8859L99.5958 144.324C99.4462 144.232 99.3264 144.109 99.2482 143.966C99.1699 143.822 99.1358 143.664 99.1491 143.506Z" fill="black"/>
<path d="M120.954 126.042L116.189 122.794C116.13 122.755 116.064 122.725 115.992 122.707C115.829 122.666 115.657 122.656 115.49 122.679C115.322 122.702 115.162 122.757 115.022 122.84L100.656 129.995C100.215 130.243 99.847 130.578 99.5832 130.971C99.3194 131.365 99.1666 131.807 99.1373 132.261L99.173 143.506C99.1554 143.668 99.1875 143.83 99.2659 143.977C99.3444 144.124 99.4664 144.251 99.6197 144.344C99.7923 144.409 99.9816 144.433 100.169 144.415C100.356 144.397 100.534 144.337 100.686 144.241L115.045 137.082C115.556 136.812 115.969 136.424 116.237 135.962L121.001 127.964C121.43 127.183 121.43 126.361 120.954 126.042Z" fill="#80C5DD"/>
<path d="M67.4343 180.922V172.848C67.4878 171.956 67.7856 171.087 68.3033 170.314C68.8209 169.54 69.5436 168.883 70.4122 168.397L78.5598 164.337C78.8583 164.152 79.2071 164.037 79.5723 164.003C79.9376 163.969 80.3068 164.017 80.6443 164.142L78.4109 163.114C77.857 162.764 77.053 162.769 76.1536 163.217L68.012 167.277C67.1434 167.763 66.4207 168.42 65.9031 169.193C65.3854 169.967 65.0876 170.836 65.0341 171.728V179.807C65.0044 180.107 65.0599 180.409 65.1959 180.687C65.3318 180.965 65.5441 181.209 65.8143 181.4C65.8949 181.451 65.983 181.493 66.0763 181.524L68.1907 182.521C67.9251 182.326 67.7177 182.08 67.586 181.801C67.4544 181.523 67.4023 181.222 67.4343 180.922Z" fill="#80C5DD"/>
<path opacity="0.2" d="M67.4343 180.922V172.848C67.4878 171.956 67.7856 171.087 68.3033 170.314C68.8209 169.54 69.5436 168.883 70.4122 168.397L78.5598 164.337C78.8583 164.152 79.2071 164.037 79.5723 164.003C79.9376 163.969 80.3068 164.017 80.6443 164.142L78.4109 163.114C77.857 162.764 77.053 162.769 76.1536 163.217L68.012 167.277C67.1434 167.763 66.4207 168.42 65.9031 169.193C65.3854 169.967 65.0876 170.836 65.0341 171.728V179.807C65.0044 180.107 65.0599 180.409 65.1959 180.687C65.3318 180.965 65.5441 181.209 65.8143 181.4C65.8949 181.451 65.983 181.493 66.0763 181.524L68.1907 182.521C67.9251 182.326 67.7177 182.08 67.586 181.801C67.4544 181.523 67.4023 181.222 67.4343 180.922Z" fill="black"/>
<path d="M81.5317 165.812C81.5662 165.497 81.5052 165.18 81.3549 164.892C81.2045 164.604 80.9699 164.354 80.6741 164.168H80.6324C80.2949 164.042 79.9256 163.995 79.5604 164.029C79.1952 164.063 78.8464 164.178 78.5479 164.363L70.4003 168.423C69.5317 168.909 68.809 169.566 68.2913 170.34C67.7737 171.113 67.4759 171.982 67.4223 172.874V180.948C67.393 181.246 67.447 181.546 67.5796 181.822C67.7123 182.099 67.9197 182.343 68.1847 182.536C68.7326 182.875 69.5307 182.865 70.4181 182.423L78.5657 178.363C79.4335 177.877 80.1557 177.221 80.6733 176.449C81.1909 175.676 81.4892 174.808 81.5437 173.917L81.5317 165.812Z" fill="#F0F0F0"/>
<path d="M90.2333 169.559V161.485C90.2868 160.592 90.5846 159.724 91.1023 158.95C91.6199 158.177 92.3426 157.52 93.2112 157.034L116.356 145.501C116.657 145.314 117.009 145.199 117.378 145.166C117.746 145.132 118.119 145.182 118.458 145.31L116.076 144.19H116.034L115.98 144.164C115.648 144.054 115.29 144.015 114.937 144.053C114.583 144.091 114.246 144.203 113.955 144.38L90.811 155.913C89.9424 156.399 89.2197 157.056 88.7021 157.83C88.1844 158.603 87.8866 159.472 87.8331 160.364V168.444C87.8331 169.338 88.244 169.939 88.8813 170.165L91.1028 171.224C90.8007 171.037 90.5611 170.785 90.4084 170.492C90.2557 170.2 90.1953 169.878 90.2333 169.559Z" fill="#80C5DD"/>
<path opacity="0.2" d="M90.2333 169.559V161.485C90.2868 160.592 90.5846 159.724 91.1023 158.95C91.6199 158.177 92.3426 157.52 93.2112 157.034L116.356 145.501C116.657 145.314 117.009 145.199 117.378 145.166C117.746 145.132 118.119 145.182 118.458 145.31L116.076 144.19H116.034L115.98 144.164C115.648 144.054 115.29 144.015 114.937 144.053C114.583 144.091 114.246 144.203 113.955 144.38L90.811 155.913C89.9424 156.399 89.2197 157.056 88.7021 157.83C88.1844 158.603 87.8866 159.472 87.8331 160.364V168.444C87.8331 169.338 88.244 169.939 88.8813 170.165L91.1028 171.224C90.8007 171.037 90.5611 170.785 90.4084 170.492C90.2557 170.2 90.1953 169.878 90.2333 169.559Z" fill="black"/>
<path d="M119.328 146.976C119.364 146.654 119.301 146.331 119.144 146.038C118.987 145.745 118.742 145.494 118.434 145.31C118.095 145.182 117.722 145.132 117.354 145.166C116.985 145.199 116.633 145.314 116.332 145.501L93.1874 157.034C92.3188 157.52 91.5961 158.177 91.0784 158.95C90.5608 159.724 90.263 160.592 90.2094 161.485V169.559C90.1461 169.877 90.1977 170.205 90.3572 170.497C90.5167 170.79 90.7765 171.033 91.1013 171.194C91.4262 171.355 91.8005 171.426 92.1735 171.397C92.5466 171.368 92.9005 171.242 93.1874 171.034L116.326 159.506C117.194 159.02 117.917 158.363 118.435 157.589C118.952 156.816 119.25 155.947 119.304 155.055L119.328 146.976Z" fill="#081956"/>
<path d="M116.207 79.6888L113.866 77.9208C112.645 77.0728 110.817 77.0625 108.768 78.0801L94.7061 85.0596C91.0611 86.879 88.113 91.2836 88.1249 94.9018C88.0825 95.4868 88.1749 96.0733 88.3967 96.6273C88.6185 97.1813 88.9654 97.6919 89.4173 98.1295L89.5781 98.2477L89.6853 98.3299L91.6746 99.8358L91.5554 98.9261C92.6881 98.9464 93.8026 98.6782 94.7597 98.1552L108.762 91.1654C112.413 89.3511 115.361 84.9465 115.349 81.3232C115.351 80.8455 115.287 80.3693 115.158 79.9046L116.207 79.6888Z" fill="#80C5DD"/>
<path opacity="0.2" d="M116.207 79.6888L113.866 77.9208C112.645 77.0728 110.817 77.0625 108.768 78.0801L94.7061 85.0596C91.0611 86.879 88.113 91.2836 88.1249 94.9018C88.0825 95.4868 88.1749 96.0733 88.3967 96.6273C88.6185 97.1813 88.9654 97.6919 89.4173 98.1295L89.5781 98.2477L89.6853 98.3299L91.6746 99.8358L91.5554 98.9261C92.6881 98.9464 93.8026 98.6782 94.7597 98.1552L108.762 91.1654C112.413 89.3511 115.361 84.9465 115.349 81.3232C115.351 80.8455 115.287 80.3693 115.158 79.9046L116.207 79.6888Z" fill="black"/>
<path d="M110.995 79.7711C114.646 77.9517 117.618 79.4113 117.63 83.0295C117.642 86.6478 114.718 91.0524 111.043 92.882L97.0051 99.877C93.3601 101.691 90.3881 100.237 90.3762 96.6133C90.3643 92.99 93.3124 88.5905 96.9634 86.7762L110.995 79.7711Z" fill="#FBBC05"/>
<path d="M59.3284 102.776C59.6679 102.606 59.924 102.745 59.9537 103.084L60.192 187.013C60.1847 187.197 60.1269 187.376 60.0234 187.537C59.9198 187.698 59.7735 187.835 59.5964 187.938C59.251 188.113 59.0008 187.969 59.0008 187.629L58.7566 103.706C58.763 103.523 58.8179 103.345 58.9171 103.183C59.0162 103.022 59.1569 102.882 59.3284 102.776Z" fill="#80C5DD"/>
<g opacity="0.2">
<path d="M59.3284 102.776C59.6679 102.606 59.924 102.745 59.9537 103.084L60.192 187.013C60.1847 187.197 60.1269 187.376 60.0234 187.537C59.9198 187.698 59.7735 187.835 59.5964 187.938C59.251 188.113 59.0008 187.969 59.0008 187.629L58.7566 103.706C58.763 103.523 58.8179 103.345 58.9171 103.183C59.0162 103.022 59.1569 102.882 59.3284 102.776Z" fill="white"/>
</g>
<path d="M59.4237 109.791C60.186 109.411 60.8054 109.714 60.8054 110.475V115.784C60.7845 116.197 60.6486 116.599 60.4091 116.957C60.1696 117.315 59.8336 117.618 59.4296 117.84C58.6732 118.22 58.0479 117.917 58.0479 117.161V111.847C58.0735 111.435 58.2115 111.034 58.4506 110.677C58.6896 110.32 59.023 110.016 59.4237 109.791Z" fill="#80C5DD"/>
<path d="M152.037 49.6788V48.101C152.05 47.9803 152.028 47.8588 151.974 47.7469C151.92 47.635 151.835 47.5361 151.728 47.4585H151.692H151.65L149.446 46.3638C149.307 46.3013 149.149 46.2739 148.992 46.2848C148.836 46.2957 148.685 46.3445 148.559 46.4255L129.012 56.093C128.662 56.2935 128.372 56.5622 128.165 56.8774C127.958 57.1926 127.84 57.5454 127.821 57.9072V59.593L127.898 112.88C127.886 113.002 127.908 113.124 127.963 113.237C128.018 113.35 128.104 113.45 128.214 113.527L130.483 114.653C130.624 114.713 130.78 114.738 130.937 114.728C131.093 114.717 131.243 114.67 131.37 114.591L150.935 104.883C151.286 104.683 151.576 104.414 151.783 104.099C151.99 103.784 152.108 103.43 152.127 103.068L152.037 49.6788Z" fill="#80C5DD"/>
<path d="M127.785 59.593V57.933C127.805 57.5711 127.923 57.2183 128.13 56.9031C128.337 56.5879 128.627 56.3192 128.976 56.1187L148.541 46.4101C148.668 46.3291 148.818 46.2803 148.975 46.2694C149.132 46.2585 149.289 46.2859 149.429 46.3484L151.71 47.4791C151.71 47.4791 150.929 47.9006 150.929 47.916H150.852V50.3007L130.007 60.6466L127.785 59.593Z" fill="#80C5DD"/>
<path opacity="0.7" d="M127.785 59.593V57.933C127.805 57.5711 127.923 57.2183 128.13 56.9031C128.337 56.5879 128.627 56.3192 128.976 56.1187L148.541 46.4101C148.668 46.3291 148.818 46.2803 148.975 46.2694C149.132 46.2585 149.289 46.2859 149.429 46.3484L151.71 47.4791C151.71 47.4791 150.929 47.9006 150.929 47.916H150.852V50.3007L130.007 60.6466L127.785 59.593Z" fill="white"/>
<path d="M131.245 57.2083C130.895 57.4082 130.605 57.6768 130.398 57.9921C130.191 58.3074 130.073 58.6605 130.054 59.0226V60.6056L152.055 49.6789V48.1011C152.055 47.4329 151.507 47.1657 150.864 47.4997L131.245 57.2083Z" fill="#80C5DD"/>
<g opacity="0.5">
<path d="M131.245 57.2083C130.895 57.4082 130.605 57.6768 130.398 57.9921C130.191 58.3074 130.073 58.6605 130.054 59.0226V60.6056L152.055 49.6789V48.1011C152.055 47.4329 151.507 47.1657 150.864 47.4997L131.245 57.2083Z" fill="white"/>
</g>
<path d="M130.108 113.995L130.036 60.6056L127.785 59.5777L127.862 112.864C127.85 112.986 127.873 113.109 127.928 113.222C127.983 113.335 128.069 113.434 128.178 113.512L130.447 114.638C130.333 114.563 130.242 114.466 130.183 114.354C130.124 114.241 130.098 114.118 130.108 113.995Z" fill="#80C5DD"/>
<path d="M152.037 49.6789L130.036 60.6055L130.108 113.995C130.094 114.121 130.118 114.249 130.177 114.365C130.236 114.481 130.33 114.582 130.447 114.658C130.588 114.718 130.745 114.744 130.901 114.733C131.057 114.722 131.207 114.675 131.335 114.596L150.9 104.888C151.25 104.688 151.54 104.419 151.748 104.104C151.955 103.789 152.072 103.436 152.091 103.074L152.037 49.6789Z" fill="#80C5DD"/>
<path opacity="0.3" d="M152.037 49.6789L130.036 60.6055L130.108 113.995C130.094 114.121 130.118 114.249 130.177 114.365C130.236 114.481 130.33 114.582 130.447 114.658C130.588 114.718 130.745 114.744 130.901 114.733C131.057 114.722 131.207 114.675 131.335 114.596L150.9 104.888C151.25 104.688 151.54 104.419 151.748 104.104C151.955 103.789 152.072 103.436 152.091 103.074L152.037 49.6789Z" fill="white"/>
<path d="M134.974 107.247L147.213 101.172L147.201 90.2196L134.962 96.2946L134.974 107.247Z" fill="#80C5DD"/>
<path opacity="0.5" d="M134.974 107.247L147.213 101.172L147.201 90.2196L134.962 96.2946L134.974 107.247Z" fill="#081956"/>
<path d="M134.944 82.4691L134.956 93.4215L147.195 87.3465L147.183 76.3942L134.944 82.4691Z" fill="#80C5DD"/>
<path d="M147.159 62.1936L134.92 68.2737L134.938 79.5961L147.177 73.5211L147.159 62.1936Z" fill="#FBBC05"/>
<path d="M134.771 61.3508C134.889 61.2764 135.023 61.2235 135.166 61.1952C135.308 61.167 135.455 61.164 135.599 61.1864C135.659 61.1864 135.706 61.2532 135.706 61.3508C135.7 61.4302 135.673 61.5072 135.626 61.5759C135.58 61.6446 135.515 61.703 135.438 61.7466C135.415 61.7611 135.389 61.7714 135.362 61.7767C135.334 61.782 135.305 61.7823 135.277 61.7774C135.192 61.7568 135.102 61.753 135.014 61.7664C134.927 61.7797 134.844 61.8098 134.771 61.8545C134.554 61.9777 134.376 62.1445 134.25 62.3406C134.124 62.5366 134.056 62.7561 134.051 62.9801C134.051 63.4015 134.348 63.6071 134.771 63.3964C134.992 63.2819 135.178 63.1232 135.313 62.9338C135.354 62.8764 135.409 62.8273 135.474 62.7899C135.617 62.7231 135.73 62.7899 135.73 62.9132C135.726 62.9992 135.695 63.0827 135.641 63.1548C135.424 63.4643 135.121 63.7222 134.759 63.9052C134.027 64.2701 133.485 63.9771 133.479 63.273C133.497 62.8861 133.625 62.509 133.85 62.1741C134.075 61.8392 134.391 61.5566 134.771 61.3508Z" fill="white"/>
<path d="M137.35 60.071C138.118 59.6855 138.672 59.9785 138.672 60.6775C138.651 61.0688 138.52 61.4499 138.29 61.7882C138.061 62.1264 137.741 62.4119 137.356 62.6202C136.588 63.0005 136.034 62.7076 136.034 62.0086C136.056 61.618 136.187 61.2378 136.416 60.9004C136.646 60.5631 136.966 60.2785 137.35 60.071ZM138.101 60.9756C138.101 60.5541 137.791 60.3588 137.35 60.5747C137.129 60.6981 136.946 60.8659 136.816 61.0637C136.687 61.2615 136.614 61.4834 136.606 61.7105C136.606 62.132 136.921 62.3273 137.362 62.1114C137.584 61.9875 137.767 61.8188 137.895 61.62C138.024 61.4211 138.095 61.1981 138.101 60.9704" fill="white"/>
<path d="M139.423 59.0534C139.578 58.9763 139.697 59.0534 139.697 59.187V60.9088L140.709 60.3948C140.846 60.328 140.959 60.3948 140.959 60.5182C140.955 60.5927 140.93 60.6653 140.887 60.7297C140.843 60.7941 140.782 60.8485 140.709 60.8882L139.435 61.5307C139.28 61.6077 139.161 61.5307 139.161 61.397V59.4748C139.161 59.3915 139.186 59.3096 139.231 59.2362C139.277 59.1628 139.343 59.1 139.423 59.0534Z" fill="white"/>
<path d="M142.419 57.5423C143.187 57.162 143.735 57.4498 143.741 58.1488C143.718 58.5406 143.586 58.922 143.356 59.2603C143.126 59.5986 142.804 59.8838 142.419 60.0915C141.656 60.4718 141.102 60.1789 141.102 59.4799C141.123 59.0891 141.254 58.7086 141.484 58.3711C141.713 58.0336 142.034 57.7491 142.419 57.5423ZM143.169 58.452C143.169 58.0306 142.853 57.8353 142.413 58.0563C142.19 58.1787 142.006 58.3463 141.877 58.5443C141.747 58.7423 141.675 58.9647 141.668 59.1921C141.668 59.6135 141.984 59.814 142.424 59.593C142.646 59.4699 142.829 59.3022 142.959 59.1043C143.089 58.9064 143.161 58.6844 143.169 58.4571" fill="white"/>
<path d="M146.284 56.4683C146.278 56.8453 146.1 57.2052 145.79 57.4705L146.177 57.7326C146.204 57.754 146.225 57.7803 146.24 57.8095C146.254 57.8388 146.261 57.8704 146.26 57.9022C146.253 57.978 146.226 58.0514 146.182 58.1172C146.137 58.183 146.077 58.2394 146.004 58.2825C145.879 58.3391 145.795 58.3236 145.736 58.2825L145.2 57.8816L144.759 58.0975V58.6115C144.754 58.693 144.727 58.7724 144.679 58.8431C144.631 58.9137 144.565 58.9735 144.485 59.0175C144.33 59.0946 144.211 59.0175 144.211 58.8838V56.9565C144.216 56.8749 144.244 56.7955 144.291 56.7249C144.339 56.6543 144.405 56.5945 144.485 56.5505L145.349 56.1188C145.658 55.9646 145.909 55.9286 146.069 56.0057C146.148 56.0608 146.208 56.1321 146.246 56.2131C146.283 56.294 146.297 56.3818 146.284 56.4683ZM145.736 56.7766C145.736 56.5453 145.569 56.5094 145.301 56.643L144.759 56.9103V57.6195L145.313 57.342C145.433 57.2889 145.535 57.2099 145.609 57.1126C145.683 57.0153 145.727 56.9031 145.736 56.7869" fill="white"/>
<path d="M147.588 54.9726C147.821 54.8412 148.097 54.7798 148.374 54.7978C148.434 54.7978 148.493 54.8492 148.493 54.952C148.491 55.0283 148.467 55.1029 148.424 55.1693C148.38 55.2357 148.318 55.2917 148.243 55.3323C148.197 55.3465 148.147 55.3465 148.1 55.3323C147.92 55.3165 147.739 55.3507 147.582 55.43C147.498 55.4662 147.425 55.5191 147.369 55.5843C147.313 55.6495 147.276 55.7252 147.261 55.8052C147.261 55.9696 147.368 55.9645 147.803 55.8617C148.237 55.7589 148.589 55.7795 148.589 56.2061C148.572 56.4591 148.48 56.7041 148.321 56.9175C148.163 57.1308 147.943 57.3053 147.683 57.4241C147.407 57.5794 147.073 57.6382 146.748 57.5886C146.713 57.5782 146.684 57.5577 146.664 57.5306C146.645 57.5034 146.636 57.4713 146.641 57.4396C146.645 57.3631 146.671 57.2886 146.716 57.2225C146.76 57.1563 146.822 57.1003 146.897 57.0592C146.947 57.0421 147.002 57.0421 147.052 57.0592C147.16 57.0827 147.272 57.0866 147.382 57.0707C147.492 57.0547 147.596 57.0193 147.689 56.9667C147.786 56.9313 147.869 56.8746 147.932 56.8025C147.995 56.7303 148.034 56.6451 148.047 56.5556C148.047 56.4168 147.963 56.3911 147.546 56.4887C147.13 56.5864 146.725 56.6378 146.725 56.1495C146.74 55.9059 146.827 55.6698 146.978 55.4637C147.129 55.2576 147.339 55.0885 147.588 54.9726Z" fill="white"/>
<path d="M172.49 96.9935C171.901 97.1309 171.35 97.3698 170.871 97.6958C170.392 98.0217 169.995 98.4279 169.702 98.89L166.641 103.706L156.647 113.574C153.666 116.51 151.586 120.044 150.596 123.853C150.394 124.632 150.42 125.443 150.671 126.212C150.923 126.981 151.392 127.684 152.037 128.257C152.549 128.709 153.159 129.07 153.832 129.318C154.506 129.567 155.229 129.699 155.961 129.706C156.694 129.713 157.421 129.595 158.1 129.36C158.78 129.125 159.399 128.776 159.923 128.334L163.258 125.518L162.531 121.088L171.191 106.532L175.956 104.122C176.453 103.871 176.879 103.528 177.206 103.119C177.532 102.709 177.75 102.243 177.844 101.753L178.207 99.8511L172.49 96.9935Z" fill="#C77070"/>
<path d="M178.219 99.8562L172.49 96.9935L172.257 97.0603C171.936 97.9718 171.854 98.9334 172.017 99.8757C172.18 100.818 172.583 101.717 173.198 102.508C173.408 102.804 173.688 103.058 174.02 103.253C174.337 103.406 174.688 103.495 175.05 103.516C175.412 103.536 175.774 103.487 176.111 103.372C176.596 103.218 177.053 103.005 177.469 102.739C177.66 102.426 177.793 102.087 177.862 101.737L178.219 99.8562Z" fill="#AD5252"/>
<path d="M199.952 126.335L201.792 129.691L197.385 133.875L197.707 143.876L211.923 133.222C212.561 132.745 212.998 132.099 213.169 131.386C213.339 130.673 213.232 129.931 212.864 129.275L208.528 121.494L199.952 126.335Z" fill="#C77070"/>
<path d="M204.336 132.683C204.336 132.683 202.34 131.259 201.792 129.691L200.696 130.719C201.562 131.762 202.87 132.467 204.336 132.683Z" fill="#AD5252"/>
<path d="M199.595 127.142C205.247 126.716 209.088 121.663 209.088 121.663C204.038 112.736 199.63 102.806 190.81 105.181L199.595 127.142Z" fill="#081956"/>
<path opacity="0.1" d="M194.574 114.586L199.595 127.142C201.338 126.984 203.008 126.454 204.455 125.6C202.41 121.208 198.989 117.395 194.574 114.586Z" fill="black"/>
<path d="M177.85 230.421C177.35 231.331 175.753 232.174 174.002 232.42C172.251 232.667 170.482 232.343 168.725 232.133C166.115 231.82 163.472 231.762 160.846 231.958C159.221 232.143 157.584 232.245 155.944 232.261C154.291 232.277 152.676 231.836 151.334 231.002C150.409 230.373 149.792 229.467 149.607 228.463C149.533 229.113 149.652 229.769 149.955 230.368C150.257 230.968 150.732 231.49 151.334 231.886C152.676 232.72 154.291 233.161 155.944 233.145C157.584 233.13 159.22 233.031 160.846 232.847C163.471 232.646 166.115 232.703 168.725 233.017C170.482 233.227 172.382 233.664 174.127 233.418C175.873 233.171 177.475 232.323 177.975 231.413L177.85 230.421Z" fill="#263238"/>
<path d="M158.702 227.733C160.173 227.733 159.631 225.852 161.031 224.598C160.465 224.624 159.893 224.634 159.321 224.634C158.065 226.196 157.713 227.733 158.702 227.733Z" fill="white"/>
<path d="M161.769 227.636C163.246 227.636 162.859 225.395 164.312 224.089C163.982 224.188 163.646 224.272 163.306 224.341C163.014 224.398 162.71 224.439 162.43 224.475C161.126 226.058 160.751 227.636 161.769 227.636Z" fill="white"/>
<path d="M176.307 223.344C176.208 222.932 175.936 222.567 175.545 222.316L167.6 222.146C166.751 223.066 165.601 223.745 164.3 224.094C162.847 225.4 163.234 227.641 161.757 227.641C160.751 227.641 161.126 226.063 162.418 224.48C161.96 224.541 161.495 224.577 161.031 224.603C159.631 225.857 160.173 227.738 158.702 227.738C157.713 227.738 158.065 226.196 159.297 224.655H158.184C157.844 224.655 157.505 224.629 157.165 224.603C154.247 226.597 153.997 228.761 154.372 232.153C154.875 232.235 155.385 232.281 155.897 232.292C157.536 232.275 159.173 232.174 160.798 231.989C163.424 231.792 166.067 231.851 168.678 232.163C170.435 232.374 172.21 232.703 173.955 232.451C175.7 232.199 177.302 231.362 177.802 230.452L176.307 223.344Z" fill="#80C5DD"/>
<path opacity="0.4" d="M176.307 223.344C176.208 222.932 175.936 222.567 175.545 222.316L167.6 222.146C166.751 223.066 165.601 223.745 164.3 224.094C162.847 225.4 163.234 227.641 161.757 227.641C160.751 227.641 161.126 226.063 162.418 224.48C161.96 224.541 161.495 224.577 161.031 224.603C159.631 225.857 160.173 227.738 158.702 227.738C157.713 227.738 158.065 226.196 159.297 224.655H158.184C157.844 224.655 157.505 224.629 157.165 224.603C154.247 226.597 153.997 228.761 154.372 232.153C154.875 232.235 155.385 232.281 155.897 232.292C157.536 232.275 159.173 232.174 160.798 231.989C163.424 231.792 166.067 231.851 168.678 232.163C170.435 232.374 172.21 232.703 173.955 232.451C175.7 232.199 177.302 231.362 177.802 230.452L176.307 223.344Z" fill="black"/>
<path d="M157.189 224.572C155.855 224.48 154.503 224.305 153.216 224.572C151.608 224.912 150.066 225.873 149.643 227.26C149.532 227.654 149.512 228.063 149.583 228.463C149.769 229.467 150.385 230.373 151.311 231.002C152.215 231.591 153.275 231.976 154.396 232.122C154.026 228.73 154.271 226.567 157.189 224.572Z" fill="white"/>
<path d="M167.374 220.188V223.488C167.374 223.848 167.539 224.193 167.834 224.447C168.129 224.702 168.529 224.845 168.946 224.845H172.948C173.618 224.846 174.263 224.622 174.745 224.22C175.226 223.818 175.507 223.269 175.527 222.691L175.622 220.188H167.374Z" fill="#AD5252"/>
<path d="M196.629 218.801C196.412 219.201 196.079 219.546 195.661 219.801C195.243 220.056 194.756 220.212 194.246 220.255C193.176 220.325 192.108 220.098 191.197 219.608C189.815 218.852 189.279 217.665 188.338 216.596C187.357 215.558 186.244 214.619 185.021 213.795C183.764 212.885 182.513 211.909 181.84 210.619C181.655 210.248 181.529 209.857 181.465 209.457C181.35 210.216 181.48 210.988 181.84 211.688C182.513 212.978 183.764 213.959 185.021 214.864C186.242 215.689 187.355 216.629 188.338 217.665C189.279 218.734 189.815 219.926 191.197 220.682C192.109 221.17 193.176 221.397 194.246 221.329C194.755 221.283 195.242 221.125 195.659 220.869C196.076 220.613 196.41 220.269 196.629 219.87C196.788 219.267 196.836 218.646 196.772 218.03C196.773 218.292 196.724 218.552 196.629 218.801Z" fill="#263238"/>
<path d="M187.6 211.533C187.448 211.7 187.37 211.908 187.379 212.119C187.404 212.216 187.457 212.307 187.533 212.381C187.609 212.456 187.706 212.512 187.814 212.546C187.97 212.581 188.135 212.581 188.291 212.546C188.447 212.511 188.591 212.442 188.707 212.345C188.932 212.154 189.132 211.942 189.303 211.713C189.694 211.274 190.187 210.91 190.75 210.645C191.313 210.38 191.933 210.218 192.573 210.171L191.578 209.39C190.96 209.42 190.354 209.549 189.791 209.771C188.872 210.154 188.108 210.769 187.6 211.533Z" fill="white"/>
<path d="M187.814 208.809C186.88 209.187 186.104 209.804 185.592 210.577C185.452 210.74 185.382 210.94 185.396 211.143C185.422 211.239 185.475 211.329 185.551 211.404C185.627 211.478 185.723 211.535 185.831 211.569C185.987 211.604 186.151 211.604 186.308 211.569C186.464 211.534 186.607 211.465 186.724 211.369C186.947 211.175 187.147 210.961 187.32 210.732C187.854 210.152 188.56 209.708 189.362 209.447C190.004 209.244 190.689 209.166 191.37 209.221L190.387 208.444C189.507 208.368 188.619 208.494 187.814 208.809Z" fill="white"/>
<path d="M189.791 207.951C188.886 207.193 187.829 206.583 186.671 206.152C185.253 205.69 183.484 205.756 182.388 206.666C181.989 207.032 181.694 207.474 181.529 207.956C181.363 208.438 181.331 208.947 181.435 209.442C181.499 209.842 181.625 210.232 181.811 210.603C182.07 211.088 182.402 211.541 182.799 211.95C183.21 209 186.152 207.617 189.791 207.951Z" fill="white"/>
<path d="M196.706 215.892C196.722 214.888 196.454 213.897 195.926 213.003L193.996 211.256L192.62 210.171C191.981 210.218 191.36 210.379 190.797 210.645C190.234 210.91 189.741 211.274 189.351 211.713C189.18 211.942 188.98 212.154 188.755 212.345C188.638 212.442 188.495 212.511 188.339 212.546C188.182 212.581 188.018 212.581 187.862 212.546C187.744 212.518 187.638 212.464 187.553 212.389C187.468 212.314 187.408 212.221 187.379 212.119C187.369 211.917 187.438 211.718 187.576 211.554C188.09 210.786 188.863 210.171 189.791 209.791C190.354 209.57 190.96 209.441 191.578 209.411L191.352 209.236C190.672 209.182 189.986 209.259 189.345 209.462C188.542 209.724 187.836 210.168 187.302 210.747C187.129 210.976 186.929 211.19 186.706 211.384C186.589 211.481 186.446 211.55 186.29 211.585C186.133 211.62 185.969 211.62 185.813 211.585C185.705 211.55 185.609 211.493 185.533 211.419C185.457 211.344 185.404 211.255 185.378 211.158C185.365 210.948 185.442 210.742 185.592 210.577C186.067 209.855 186.776 209.268 187.632 208.889C188.488 208.51 189.454 208.356 190.411 208.444H190.375L189.779 207.982C186.14 207.648 183.168 209.01 182.787 211.98C183.447 212.65 184.181 213.263 184.979 213.81C186.202 214.634 187.315 215.574 188.296 216.611C189.237 217.68 189.773 218.867 191.155 219.623C192.066 220.114 193.134 220.34 194.205 220.271C194.714 220.228 195.202 220.071 195.619 219.816C196.037 219.561 196.371 219.216 196.587 218.816C196.682 218.567 196.731 218.307 196.73 218.045C196.764 217.327 196.756 216.609 196.706 215.892Z" fill="#80C5DD"/>
<path opacity="0.4" d="M196.706 215.892C196.722 214.888 196.454 213.897 195.926 213.003L193.996 211.256L192.62 210.171C191.981 210.218 191.36 210.379 190.797 210.645C190.234 210.91 189.741 211.274 189.351 211.713C189.18 211.942 188.98 212.154 188.755 212.345C188.638 212.442 188.495 212.511 188.339 212.546C188.182 212.581 188.018 212.581 187.862 212.546C187.744 212.518 187.638 212.464 187.553 212.389C187.468 212.314 187.408 212.221 187.379 212.119C187.369 211.917 187.438 211.718 187.576 211.554C188.09 210.786 188.863 210.171 189.791 209.791C190.354 209.57 190.96 209.441 191.578 209.411L191.352 209.236C190.672 209.182 189.986 209.259 189.345 209.462C188.542 209.724 187.836 210.168 187.302 210.747C187.129 210.976 186.929 211.19 186.706 211.384C186.589 211.481 186.446 211.55 186.29 211.585C186.133 211.62 185.969 211.62 185.813 211.585C185.705 211.55 185.609 211.493 185.533 211.419C185.457 211.344 185.404 211.255 185.378 211.158C185.365 210.948 185.442 210.742 185.592 210.577C186.067 209.855 186.776 209.268 187.632 208.889C188.488 208.51 189.454 208.356 190.411 208.444H190.375L189.779 207.982C186.14 207.648 183.168 209.01 182.787 211.98C183.447 212.65 184.181 213.263 184.979 213.81C186.202 214.634 187.315 215.574 188.296 216.611C189.237 217.68 189.773 218.867 191.155 219.623C192.066 220.114 193.134 220.34 194.205 220.271C194.714 220.228 195.202 220.071 195.619 219.816C196.037 219.561 196.371 219.216 196.587 218.816C196.682 218.567 196.731 218.307 196.73 218.045C196.764 217.327 196.756 216.609 196.706 215.892Z" fill="black"/>
<path d="M189.762 210.67L189.994 214.211C192.585 215.501 195.312 214.802 196.218 213.985L196.39 210.67H189.762Z" fill="#AD5252"/>
<path d="M197.707 146.657C198.957 149.9 197.421 165.293 196.688 180.064C199.404 185.651 198.671 201.496 197.105 212.751C197.105 212.751 194.395 214.19 189.488 212.751L183.335 181.688L182.478 164.131C182.478 164.131 180.935 179.704 179.16 189.701C180.828 197.353 180.411 198.792 176.289 222.337C174.857 222.957 173.276 223.28 171.674 223.28C170.071 223.28 168.49 222.957 167.058 222.337C164.729 189.264 165.581 159.12 166.027 148.281L197.707 146.657Z" fill="#80C5DD"/>
<path opacity="0.2" d="M197.707 146.657C198.957 149.9 197.421 165.293 196.688 180.064C199.404 185.651 198.671 201.496 197.105 212.751C197.105 212.751 194.395 214.19 189.488 212.751L183.335 181.688L182.478 164.131C182.478 164.131 180.935 179.704 179.16 189.701C180.828 197.353 180.411 198.792 176.289 222.337C174.857 222.957 173.276 223.28 171.674 223.28C170.071 223.28 168.49 222.957 167.058 222.337C164.729 189.264 165.581 159.12 166.027 148.281L197.707 146.657Z" fill="black"/>
<path opacity="0.3" d="M183.002 174.816L182.305 160.498C185.402 159.901 187.522 159.156 190.709 155.538C188.63 160.724 184.997 161.988 184.997 161.988L183.002 174.816Z" fill="black"/>
<path d="M165.372 121.113V149.155C184.503 156.072 196.903 149.823 198.588 146.585C197.707 135.165 200.834 121.817 200.589 116.143C200.345 110.469 199.547 104.076 189.351 105.35L178.511 106.245L173.014 107.401L165.372 121.113Z" fill="#081956"/>
<path opacity="0.1" d="M165.372 124.747L173.21 117.3C171.939 122.414 169.25 127.187 165.372 131.207V124.747Z" fill="black"/>
<path d="M154.312 119.608L164.586 110.87C166.875 108.926 169.848 107.694 173.038 107.37H173.222C177.57 115.594 171.817 119.608 171.817 119.608L162.287 127.183C158.676 125.549 155.851 122.866 154.312 119.608Z" fill="#081956"/>
<path d="M173.312 87.0022C172.591 86.442 173.091 85.5375 173.091 85.5375C172.822 85.6078 172.538 85.6268 172.259 85.593C171.981 85.5593 171.714 85.4737 171.477 85.3422C171.243 85.2202 171.053 85.0447 170.928 84.8351C170.803 84.6255 170.748 84.39 170.768 84.1549C170.797 83.9198 170.915 83.6994 171.103 83.5276C171.292 83.3559 171.54 83.2422 171.811 83.2041C171.307 83.1059 170.865 82.8448 170.578 82.4743C170.266 82.1208 170.127 81.6763 170.191 81.2357C170.278 80.8335 170.49 80.4594 170.805 80.1534C171.12 79.8474 171.525 79.6211 171.977 79.4985C172.894 79.2689 173.86 79.2232 174.8 79.3649C174.652 78.92 174.69 78.4444 174.908 78.0214C175.126 77.5984 175.51 77.2552 175.992 77.0521C176.426 76.9249 176.891 76.8921 177.344 76.9567C177.797 77.0212 178.224 77.1811 178.588 77.4221C179.308 77.911 179.928 78.4998 180.423 79.1644C181.455 78.6817 182.597 78.399 183.769 78.336C184.94 78.273 186.114 78.4312 187.208 78.7996C188.301 79.168 189.289 79.7378 190.101 80.4692C190.914 81.2005 191.531 82.076 191.912 83.0345C192.767 83.2814 193.54 83.705 194.163 84.2684C194.786 84.8318 195.24 85.518 195.485 86.2673C195.922 87.77 195.814 89.3524 195.175 90.8004C194.538 92.2458 193.715 93.6249 192.722 94.912L191.364 96.7674C190.798 97.5434 189.345 99.4708 188.773 100.242C187.502 100.753 186.103 100.982 184.703 100.909C183.303 100.835 181.946 100.461 180.756 99.8203C178.428 98.4789 176.633 96.5543 175.61 94.3055C174.565 91.943 173.795 89.4965 173.312 87.0022Z" fill="black"/>
<path d="M185.36 101.013C183.727 101.009 182.127 100.62 180.733 99.8871C178.377 98.5385 176.563 96.5942 175.539 94.3209C174.477 91.9744 173.693 89.5413 173.198 87.0587C173.006 86.8786 172.875 86.6559 172.821 86.4155C172.766 86.1751 172.789 85.9263 172.889 85.6968C172.376 85.7671 171.851 85.6739 171.412 85.4346C171.158 85.3017 170.952 85.1108 170.817 84.8832C170.681 84.6555 170.621 84.3999 170.643 84.1446C170.67 83.9481 170.751 83.7602 170.881 83.5972C171.011 83.4341 171.185 83.3009 171.388 83.2092C171.024 83.0584 170.71 82.8303 170.477 82.5462C170.145 82.1688 169.996 81.6956 170.06 81.2254C170.151 80.7997 170.376 80.404 170.712 80.0821C171.047 79.7601 171.479 79.5243 171.96 79.4008C172.83 79.1779 173.748 79.1235 174.646 79.2415C174.544 78.7886 174.618 78.3192 174.857 77.9064C175.096 77.4937 175.487 77.1608 175.968 76.9595C176.421 76.8228 176.907 76.7855 177.381 76.851C177.855 76.9165 178.303 77.0827 178.684 77.3347C179.385 77.8118 179.989 78.3868 180.47 79.0359C181.509 78.5749 182.649 78.3065 183.815 78.2481C184.981 78.1897 186.149 78.3425 187.242 78.6967C188.334 79.0837 189.321 79.6616 190.141 80.394C190.961 81.1265 191.596 81.9975 192.007 82.9522C192.874 83.2059 193.656 83.6379 194.286 84.211C194.916 84.7842 195.375 85.4811 195.622 86.2416C196.073 87.7742 195.965 89.3896 195.312 90.8672C194.67 92.3125 193.843 93.6915 192.847 94.9788L191.489 96.829C191.203 97.2248 190.685 97.9135 190.173 98.597C189.66 99.2806 189.178 99.923 188.898 100.308V100.334H188.868C187.777 100.795 186.575 101.027 185.36 101.013ZM173.335 85.3473L173.204 85.5837C173.078 85.7978 173.029 86.0396 173.064 86.278C173.099 86.5163 173.217 86.7399 173.401 86.92H173.431V86.956C173.927 89.436 174.709 91.8671 175.765 94.213C176.611 95.9193 178.183 98.2578 180.858 99.6763C182.023 100.307 183.352 100.678 184.725 100.753C186.098 100.828 187.471 100.607 188.719 100.108L189.982 98.4223C190.494 97.7387 191.006 97.05 191.292 96.6594C191.745 96.0427 192.204 95.4259 192.65 94.804C193.636 93.5312 194.455 92.1677 195.092 90.7387C195.72 89.3119 195.828 87.7536 195.402 86.2724C195.157 85.54 194.71 84.8698 194.099 84.3193C193.488 83.7688 192.731 83.3544 191.894 83.1116H191.834V83.0602C191.439 82.1232 190.821 81.268 190.02 80.5493C189.219 79.8306 188.252 79.2643 187.183 78.8869C186.105 78.5383 184.954 78.3906 183.805 78.4535C182.656 78.5164 181.536 78.7885 180.518 79.2518L180.423 79.2929L180.363 79.2209C179.884 78.5648 179.28 77.9828 178.577 77.4992C178.23 77.27 177.823 77.1178 177.392 77.056C176.961 76.9941 176.519 77.0245 176.105 77.1446C175.653 77.3371 175.294 77.6599 175.09 78.057C174.885 78.4541 174.848 78.9004 174.985 79.3186L175.057 79.4831H174.848C173.927 79.3467 172.983 79.3906 172.085 79.6115C171.648 79.7217 171.256 79.9335 170.95 80.2236C170.644 80.5138 170.437 80.8711 170.351 81.2562C170.297 81.6715 170.429 82.089 170.721 82.4229C170.991 82.7673 171.401 83.0113 171.87 83.1064L172.799 83.2247L171.87 83.3223C171.628 83.3577 171.406 83.4601 171.237 83.614C171.069 83.7679 170.963 83.965 170.935 84.1755C170.915 84.3905 170.966 84.606 171.08 84.7976C171.195 84.9893 171.37 85.1494 171.584 85.2599C171.805 85.383 172.054 85.4632 172.314 85.4952C172.574 85.5271 172.839 85.51 173.091 85.4449L173.335 85.3473Z" fill="#272525"/>
<path d="M172.073 91.8077L170.357 94.3774L172.055 94.9222C171.998 93.8845 172.004 92.8449 172.073 91.8077Z" fill="#AD5252"/>
<path d="M173.312 87.0022C172.681 88.5564 172.265 90.1694 172.073 91.8077C172.01 92.8434 172.01 93.8813 172.073 94.9171C172.146 96.3738 172.345 97.8238 172.668 99.2549C172.778 100.042 173.119 100.792 173.657 101.434C174.369 102.093 175.353 102.483 176.397 102.518C177.429 102.55 178.462 102.465 179.47 102.267V106.476C183.174 107.231 186.242 107.566 189.148 105.633L188.838 100.216C187.058 100.432 185.244 100.185 183.627 99.5067C181.066 98.3143 180.351 96.423 180.709 95.3488C180.937 95.608 181.248 95.8037 181.604 95.9115C181.959 96.0194 182.344 96.0346 182.71 95.9553C183.061 95.8726 183.39 95.7293 183.675 95.5341C183.961 95.3389 184.198 95.0958 184.372 94.8195C184.706 94.2615 184.908 93.6518 184.967 93.0257C185.149 92.2701 185.014 91.4833 184.586 90.8055C184.26 90.4273 183.809 90.1439 183.291 89.9933C182.774 89.8427 182.216 89.832 181.691 89.9626C180.64 90.2471 179.762 90.879 179.25 91.7203C179.084 91.9798 178.94 92.2495 178.821 92.5272C178.766 92.624 178.678 92.7036 178.568 92.7548C178.459 92.806 178.333 92.8262 178.21 92.8125C178.086 92.7989 177.97 92.7521 177.879 92.6788C177.788 92.6055 177.726 92.5093 177.701 92.4039C177.566 91.1929 177.819 89.9731 178.434 88.8781C178.009 89.0638 177.539 89.1589 177.064 89.1557C176.816 89.1553 176.57 89.1093 176.344 89.0207C176.118 88.9321 175.917 88.8029 175.753 88.6417C175.603 88.4719 175.517 88.2658 175.509 88.0521C175.5 87.8384 175.569 87.6277 175.706 87.4493C174.479 87.9633 173.312 87.0022 173.312 87.0022Z" fill="#C77070"/>
</svg>
