<svg width="26" height="27" viewBox="0 0 26 27" fill="none" xmlns="http://www.w3.org/2000/svg">
<path d="M13 20.8286C13.4604 20.8286 13.8466 20.6805 14.1586 20.3842C14.4695 20.089 14.625 19.7229 14.625 19.2857V14.6571C14.625 14.22 14.4695 13.8533 14.1586 13.5571C13.8466 13.2619 13.4604 13.1143 13 13.1143C12.5396 13.1143 12.1539 13.2619 11.843 13.5571C11.531 13.8533 11.375 14.22 11.375 14.6571V19.2857C11.375 19.7229 11.531 20.089 11.843 20.3842C12.1539 20.6805 12.5396 20.8286 13 20.8286ZM13 10.0286C13.4604 10.0286 13.8466 9.88046 14.1586 9.58423C14.4695 9.28903 14.625 8.92286 14.625 8.48571C14.625 8.04857 14.4695 7.68189 14.1586 7.38566C13.8466 7.09046 13.4604 6.94286 13 6.94286C12.5396 6.94286 12.1539 7.09046 11.843 7.38566C11.531 7.68189 11.375 8.04857 11.375 8.48571C11.375 8.92286 11.531 9.28903 11.843 9.58423C12.1539 9.88046 12.5396 10.0286 13 10.0286ZM3.25 27C2.35625 27 1.59142 26.6981 0.9555 26.0943C0.3185 25.4895 0 24.7629 0 23.9143V10.0286C0 9.54 0.115375 9.07714 0.346125 8.64C0.575791 8.20286 0.89375 7.84286 1.3 7.56L11.05 0.617143C11.6187 0.205714 12.2687 0 13 0C13.7312 0 14.3812 0.205714 14.95 0.617143L24.7 7.56C25.1063 7.84286 25.4247 8.20286 25.6555 8.64C25.8852 9.07714 26 9.54 26 10.0286V23.9143C26 24.7629 25.682 25.4895 25.0461 26.0943C24.4091 26.6981 23.6437 27 22.75 27H3.25Z" fill="#80C5DD"/>
</svg>
