<svg width="32" height="40" viewBox="0 0 32 40" fill="none" xmlns="http://www.w3.org/2000/svg">
<path d="M1.98719 34C1.42415 34 0.951866 33.808 0.570328 33.424C0.188789 33.04 -0.00131791 32.5653 6.87604e-06 32C6.87604e-06 31.4333 0.190776 30.958 0.572315 30.574C0.953853 30.19 1.42548 29.9987 1.98719 30H3.97437V16C3.97437 13.2333 4.80236 10.7747 6.45834 8.624C8.11432 6.47334 10.2671 5.06534 12.9167 4.4V3C12.9167 2.16667 13.2068 1.458 13.7871 0.874004C14.3673 0.290005 15.0708 -0.00132878 15.8974 4.55581e-06C16.7254 4.55581e-06 17.4296 0.292004 18.0098 0.876004C18.5901 1.46 18.8795 2.168 18.8782 3V4.4C21.5278 5.06667 23.6806 6.47534 25.3365 8.626C26.9925 10.7767 27.8205 13.2347 27.8205 16V30H29.8077C30.3707 30 30.843 30.192 31.2246 30.576C31.6061 30.96 31.7962 31.4347 31.7949 32C31.7949 32.5667 31.6041 33.042 31.2226 33.426C30.841 33.81 30.3694 34.0013 29.8077 34H1.98719ZM15.8974 40C14.8045 40 13.8685 39.608 13.0896 38.824C12.3106 38.04 11.9218 37.0987 11.9231 36H19.8718C19.8718 37.1 19.4823 38.042 18.7033 38.826C17.9244 39.61 16.9891 40.0013 15.8974 40Z" fill="#80C5DD"/>
</svg>
