<svg width="26" height="27" viewBox="0 0 26 27" fill="none" xmlns="http://www.w3.org/2000/svg">
<path d="M10.3575 10.4589C9.82128 8.70823 9.88994 6.82619 10.5523 5.11987C11.2146 3.41355 12.4315 1.98369 14.0043 1.06361C15.5866 0.147096 17.4342 -0.191745 19.2355 0.104233C21.0369 0.400212 22.6819 1.3129 23.8929 2.68836C25.0995 4.05059 25.807 5.78764 25.8979 7.61091C25.9887 9.43417 25.4575 11.2339 24.3925 12.711C23.3275 14.1881 21.7928 15.2537 20.0433 15.7307C18.2939 16.2077 16.4351 16.0674 14.7758 15.3332" fill="#82C6DE"/>
<path d="M18.0667 10.8524C19.5773 10.8524 20.8019 9.61891 20.8019 8.09736C20.8019 6.57581 19.5773 5.34235 18.0667 5.34235C16.5562 5.34235 15.3316 6.57581 15.3316 8.09736C15.3316 9.61891 16.5562 10.8524 18.0667 10.8524Z" fill="#F2F1F1"/>
<path d="M10.4496 11L0 22.7265V26.5411H4.27804L4.76896 23.5742L9.32753 23.2916L9.67819 19.4063L13.5354 19.3357L14.7978 15.9449" fill="#82C6DE"/>
</svg>
