<svg width="26" height="26" viewBox="0 0 26 26" fill="none" xmlns="http://www.w3.org/2000/svg">
<path d="M13 26C11.2233 26 9.54417 25.6585 7.9625 24.9756C6.38083 24.2935 4.9998 23.3619 3.8194 22.1806C2.63813 21.0002 1.70647 19.6192 1.0244 18.0375C0.341467 16.4558 0 14.7767 0 13C0 11.2017 0.341467 9.5173 1.0244 7.9469C1.70647 6.37563 2.63813 4.9998 3.8194 3.8194C4.9998 2.63813 6.38083 1.70603 7.9625 1.0231C9.54417 0.341033 11.2233 0 13 0C14.7983 0 16.4827 0.341033 18.0531 1.0231C19.6244 1.70603 21.0002 2.63813 22.1806 3.8194C23.3619 4.9998 24.2935 6.37563 24.9756 7.9469C25.6585 9.5173 26 11.2017 26 13C26 14.7767 25.6585 16.4558 24.9756 18.0375C24.2935 19.6192 23.3619 21.0002 22.1806 22.1806C21.0002 23.3619 19.6244 24.2935 18.0531 24.9756C16.4827 25.6585 14.7983 26 13 26ZM13 23.335C13.5633 22.555 14.0508 21.7425 14.4625 20.8975C14.8742 20.0525 15.21 19.1533 15.47 18.2H10.53C10.79 19.1533 11.1258 20.0525 11.5375 20.8975C11.9492 21.7425 12.4367 22.555 13 23.335ZM9.62 22.815C9.23 22.1 8.88897 21.3577 8.5969 20.5881C8.30397 19.8194 8.06 19.0233 7.865 18.2H4.03C4.65833 19.2833 5.44353 20.2258 6.3856 21.0275C7.32853 21.8292 8.40667 22.425 9.62 22.815ZM16.38 22.815C17.5933 22.425 18.671 21.8292 19.6131 21.0275C20.556 20.2258 21.3417 19.2833 21.97 18.2H18.135C17.94 19.0233 17.6965 19.8194 17.4044 20.5881C17.1115 21.3577 16.77 22.1 16.38 22.815ZM2.925 15.6H7.345C7.28 15.1667 7.23103 14.7385 7.1981 14.3156C7.16603 13.8935 7.15 13.455 7.15 13C7.15 12.545 7.16603 12.1065 7.1981 11.6844C7.23103 11.2615 7.28 10.8333 7.345 10.4H2.925C2.81667 10.8333 2.7352 11.2615 2.6806 11.6844C2.62687 12.1065 2.6 12.545 2.6 13C2.6 13.455 2.62687 13.8935 2.6806 14.3156C2.7352 14.7385 2.81667 15.1667 2.925 15.6ZM9.945 15.6H16.055C16.12 15.1667 16.169 14.7385 16.2019 14.3156C16.234 13.8935 16.25 13.455 16.25 13C16.25 12.545 16.234 12.1065 16.2019 11.6844C16.169 11.2615 16.12 10.8333 16.055 10.4H9.945C9.88 10.8333 9.83147 11.2615 9.7994 11.6844C9.76647 12.1065 9.75 12.545 9.75 13C9.75 13.455 9.76647 13.8935 9.7994 14.3156C9.83147 14.7385 9.88 15.1667 9.945 15.6ZM18.655 15.6H23.075C23.1833 15.1667 23.2648 14.7385 23.3194 14.3156C23.3731 13.8935 23.4 13.455 23.4 13C23.4 12.545 23.3731 12.1065 23.3194 11.6844C23.2648 11.2615 23.1833 10.8333 23.075 10.4H18.655C18.72 10.8333 18.7685 11.2615 18.8006 11.6844C18.8335 12.1065 18.85 12.545 18.85 13C18.85 13.455 18.8335 13.8935 18.8006 14.3156C18.7685 14.7385 18.72 15.1667 18.655 15.6ZM18.135 7.8H21.97C21.3417 6.71667 20.556 5.77417 19.6131 4.9725C18.671 4.17083 17.5933 3.575 16.38 3.185C16.77 3.9 17.1115 4.64187 17.4044 5.4106C17.6965 6.1802 17.94 6.97667 18.135 7.8ZM10.53 7.8H15.47C15.21 6.84667 14.8742 5.9475 14.4625 5.1025C14.0508 4.2575 13.5633 3.445 13 2.665C12.4367 3.445 11.9492 4.2575 11.5375 5.1025C11.1258 5.9475 10.79 6.84667 10.53 7.8ZM4.03 7.8H7.865C8.06 6.97667 8.30397 6.1802 8.5969 5.4106C8.88897 4.64187 9.23 3.9 9.62 3.185C8.40667 3.575 7.32853 4.17083 6.3856 4.9725C5.44353 5.77417 4.65833 6.71667 4.03 7.8Z" fill="#80C5DD"/>
</svg>
