<svg width="26" height="21" viewBox="0 0 26 21" fill="none" xmlns="http://www.w3.org/2000/svg">
<path d="M2.6 21C1.885 21 1.2727 20.7427 0.763102 20.2282C0.253502 19.7137 -0.000864459 19.096 2.20713e-06 18.375V2.625C2.20713e-06 1.90313 0.254802 1.28494 0.764402 0.770439C1.274 0.255939 1.88587 -0.000872771 2.6 2.22835e-06H23.4C24.115 2.22835e-06 24.7273 0.257252 25.2369 0.771752C25.7465 1.28625 26.0009 1.904 26 2.625V18.375C26 19.0969 25.7452 19.7151 25.2356 20.2296C24.726 20.7441 24.1141 21.0009 23.4 21H2.6ZM13 11.5828C13.1083 11.5828 13.2223 11.5662 13.3419 11.5329C13.4615 11.4997 13.575 11.4507 13.6825 11.3859L22.88 5.57813C23.0533 5.46875 23.1833 5.33181 23.27 5.16731C23.3567 5.00281 23.4 4.82256 23.4 4.62656C23.4 4.18906 23.2158 3.86094 22.8475 3.64219C22.4792 3.42344 22.1 3.43438 21.71 3.675L13 9.1875L4.29 3.675C3.9 3.43438 3.52083 3.42913 3.1525 3.65925C2.78417 3.88938 2.6 4.21181 2.6 4.62656C2.6 4.84531 2.64333 5.03694 2.73 5.20144C2.81667 5.36594 2.94667 5.4915 3.12 5.57813L12.3175 11.3859C12.4258 11.4516 12.5398 11.501 12.6594 11.5342C12.779 11.5675 12.8925 11.5837 13 11.5828Z" fill="#80C5DD"/>
</svg>
