<svg width="47" height="40" viewBox="0 0 47 40" fill="none" xmlns="http://www.w3.org/2000/svg">
<path d="M14.853 0.125156C13.2745 0.367126 11.9216 0.834377 10.6275 1.58532C9.82355 2.04422 8.63727 3.05382 8.09806 3.73801C7.22551 4.83104 6.54903 6.31623 6.37256 7.52608L6.30394 7.99333L3.37256 8.01836C0.480393 8.04339 0.441177 8.04339 0.225491 8.2353L0 8.4272V14.6767V20.9262L0.225491 21.1181C0.441177 21.31 0.490197 21.31 3.08824 21.335C4.54903 21.3517 5.73531 21.3767 5.73531 21.3934C5.73531 21.4101 5.37256 22.0526 4.93138 22.8118C4.20589 24.0634 4.11766 24.2553 4.11766 24.6809C4.11766 25.607 4.89217 26.4164 5.9608 26.6083C6.57845 26.7167 22.1177 26.6834 22.4706 26.5749L22.6961 26.5081L22.7157 33.0663L22.7451 39.6162L22.9706 39.8081L23.1961 40H27.402H31.6079L31.8334 39.8081L32.0589 39.6162L32.0883 30.4881L32.1079 21.3517L39.3138 21.335L46.5099 21.31L46.7354 21.1181L46.9609 20.9262L46.9903 14.902C47.0099 11.0972 46.9805 8.53567 46.9119 7.94326C46.6766 5.84064 45.6864 4.02169 43.9805 2.56988C42.3138 1.15144 40.1766 0.292034 37.7942 0.0750961C37.2256 0.025032 32.6667 0 26.2255 0C17.6961 0.00834656 15.4412 0.0333748 14.853 0.125156ZM18.4902 1.52691C20.1471 1.88569 21.3628 2.46976 22.5393 3.46266C23.7059 4.46391 24.3922 5.49854 24.8138 6.90864L25.0491 7.69295V13.8506V20.0167H23.4804H21.9118L21.8922 14.2178L21.8628 8.4272L21.6373 8.2353L21.4118 8.04339L14.5981 8.01836L7.77453 8.00167L7.84315 7.64289C8.39218 4.63079 10.9804 2.21944 14.4412 1.49353C15.5883 1.25991 17.3138 1.26825 18.4902 1.52691ZM38.5589 1.46016C40.1962 1.74385 41.6079 2.403 42.8923 3.49604C43.8726 4.33041 44.2746 4.8227 44.804 5.8907C45.4413 7.15061 45.4413 7.16729 45.4413 13.9257V20.0167H36.0295H26.6177V14.2345C26.6177 11.0638 26.5785 8.15186 26.5197 7.76804C26.1961 5.38173 24.7844 3.2207 22.6471 1.84397C22.3236 1.63538 22.0197 1.43513 21.9706 1.39341C21.9118 1.36003 25.4608 1.32666 29.8334 1.32666C36.6864 1.32666 37.9118 1.34335 38.5589 1.46016ZM19.0687 9.45349C17.5393 10.68 11.2647 15.3525 11.0883 15.3942C10.9608 15.4193 10.7549 15.3942 10.6275 15.3442C10.5098 15.2858 8.951 14.126 7.16668 12.766C5.37256 11.4059 3.62746 10.0793 3.28432 9.82061L2.64706 9.33667H10.9314C17.9804 9.33667 19.1863 9.35336 19.0687 9.45349ZM4.57844 12.5323C6.07844 13.6754 7.30394 14.635 7.30394 14.6767C7.30394 14.7351 2.28432 18.5982 1.68628 19.0071C1.52942 19.1156 1.51961 18.8736 1.51961 14.6767C1.51961 10.4631 1.52942 10.2378 1.68628 10.3463C1.78432 10.413 3.08824 11.3976 4.57844 12.5323ZM20.3236 16.8961L20.2942 19.1072L17.4314 16.9295C15.853 15.728 14.5589 14.7184 14.5589 14.6767C14.5589 14.6433 15.853 13.6254 17.4314 12.4239L20.2942 10.2378L20.3236 12.4572C20.3334 13.6754 20.3334 15.6779 20.3236 16.8961ZM9.21571 16.0451C9.93139 16.5624 10.4314 16.7209 11.1863 16.6542C11.8138 16.5957 12.1275 16.4622 12.7745 15.97C13.0589 15.753 13.3236 15.5945 13.3726 15.6112C13.4216 15.6195 14.6275 16.5207 16.0393 17.6053C17.4608 18.69 18.7647 19.6746 18.9216 19.7914L19.2157 20.0083H10.9314L2.64706 20.0167L3.13726 19.6496C3.41177 19.4493 4.70589 18.4564 6.02943 17.4468C7.35296 16.4289 8.47061 15.6028 8.50982 15.6028C8.54904 15.5945 8.87257 15.8031 9.21571 16.0451ZM24.5589 21.3934C24.5589 21.5186 22.451 25.0063 22.2746 25.1648L22.0785 25.3567H14.0785H6.08825L5.86276 25.1731C5.4706 24.8644 5.55884 24.5724 6.53923 22.8953L7.451 21.3517H16C20.7059 21.3517 24.5589 21.3684 24.5589 21.3934ZM30.5393 30.0292V38.7067H27.402H24.2648V31.7397V24.7726L25.2648 23.0622L26.2746 21.3517H28.402H30.5393V30.0292Z" fill="#80C5DD"/>
</svg>
