<svg width="26" height="37" viewBox="0 0 26 37" fill="none" xmlns="http://www.w3.org/2000/svg">
<path d="M22.6837 16.2828V10.1584C22.6837 7.54379 21.6451 5.03628 19.7963 3.18749C17.9475 1.33869 15.44 0.300049 12.8254 0.300049C10.2108 0.300049 7.7033 1.33869 5.8545 3.18749C4.00571 5.03628 2.96706 7.54379 2.96706 10.1584V16.2828C1.46306 18.1439 0.516596 20.3927 0.237136 22.7692C-0.0423237 25.1457 0.356634 27.5527 1.38787 29.712C2.41911 31.8712 4.0405 33.6944 6.06453 34.9708C8.08855 36.2471 10.4325 36.9245 12.8254 36.9245C15.2183 36.9245 17.5622 36.2471 19.5863 34.9708C21.6103 33.6944 23.2317 31.8712 24.2629 29.712C25.2942 27.5527 25.6931 25.1457 25.4137 22.7692C25.1342 20.3927 24.1877 18.1439 22.6837 16.2828Z" fill="#92CAE2"/>
<path d="M12.8247 11.5667C14.7805 11.5679 16.7092 12.0244 18.4581 12.8999V10.1584C18.4581 8.6643 17.8646 7.23144 16.8081 6.17499C15.7517 5.11853 14.3188 4.52502 12.8247 4.52502C11.3307 4.52502 9.89783 5.11853 8.84137 6.17499C7.78492 7.23144 7.19141 8.6643 7.19141 10.1584V12.8999C8.94027 12.0243 10.8689 11.5679 12.8247 11.5667ZM16.1108 22.3639C16.1129 21.7753 15.9569 21.197 15.659 20.6894C15.3612 20.1818 14.9324 19.7635 14.4176 19.4782C13.9028 19.1929 13.3209 19.0511 12.7325 19.0676C12.1442 19.0841 11.5711 19.2583 11.0731 19.572C10.5752 19.8858 10.1706 20.3275 9.90167 20.851C9.63277 21.3746 9.50941 21.9607 9.54449 22.5482C9.57957 23.1358 9.77179 23.7031 10.1011 24.1909C10.4304 24.6787 10.8846 25.0692 11.4164 25.3214V29.875H14.2331V25.3214C14.7938 25.0566 15.2679 24.6381 15.6002 24.1146C15.9326 23.5911 16.1097 22.984 16.1108 22.3639Z" fill="#F5F5F5"/>
</svg>
