<svg width="30" height="29" viewBox="0 0 30 29" fill="none" xmlns="http://www.w3.org/2000/svg">
<path d="M1.843 0.0755653C1.00379 0.285368 0.306339 0.97715 0.0795254 1.83337C0.0171516 2.07153 0.000140587 4.01079 0.000140587 13.2931C0.000140587 25.5241 -0.0168705 24.8096 0.32335 25.3993C0.533153 25.7509 0.952759 26.1592 1.28164 26.3236C1.43474 26.3973 3.26626 27.0324 5.35862 27.7298L9.15775 29H9.66808C10.2918 29 10.6434 28.8866 11.114 28.5407C11.4939 28.2629 11.8001 27.8432 11.9646 27.3669C12.0553 27.1061 12.078 26.902 12.078 26.2215V25.3993H14.0796C16.3591 25.3993 16.5859 25.371 17.3514 24.9967C18.27 24.5488 19.0128 23.6132 19.2453 22.6209C19.3757 22.0708 19.3757 16.7634 19.251 16.4515C18.8711 15.5443 17.5555 15.4876 17.0792 16.3551C16.9942 16.5026 16.9772 16.8598 16.9545 19.3037L16.9261 22.0822L16.7844 22.3373C16.705 22.4734 16.5292 22.6662 16.3988 22.7626L16.1493 22.9327L14.1136 22.9497L12.078 22.9668L12.0666 13.5937L12.0496 4.22059L11.8682 3.84068C11.5733 3.21694 11.1764 2.84837 10.496 2.56485L10.1784 2.43443L13.1667 2.45144L16.1493 2.46278L16.3988 2.63289C16.5292 2.72929 16.705 2.92208 16.7844 3.05817L16.9261 3.31333L16.9545 5.50776L16.9828 7.69651L17.1529 7.94034C17.4081 8.30324 17.7427 8.45634 18.2076 8.43365C18.6386 8.41097 18.9278 8.2522 19.1659 7.89497L19.3077 7.68517L19.3247 5.43404C19.3417 2.89373 19.3247 2.74063 18.9504 1.9808C18.6442 1.35706 17.9978 0.716314 17.3514 0.398775C16.4895 -0.0208302 16.8921 -0.00381851 9.10105 0.00185204C3.75391 0.00752258 2.05848 0.0245323 1.843 0.0755653Z" fill="#80C5DD"/>
<path d="M22.4831 6.1712C22.1939 6.30161 21.9104 6.61915 21.8367 6.897C21.797 7.02742 21.7743 7.85529 21.7743 8.99503V10.8833H19.234H16.6937L16.3931 11.0307C15.8828 11.2858 15.6333 11.8245 15.7694 12.3802C15.8601 12.7601 16.2514 13.1627 16.6256 13.2535C16.8071 13.2988 17.652 13.3215 19.3304 13.3215H21.7743V15.1984C21.7743 16.5252 21.797 17.149 21.8423 17.3134C21.9841 17.7727 22.5114 18.1413 23.0274 18.1413C23.4811 18.1356 23.6342 18.0052 26.2425 15.4025C28.8566 12.7942 29.0323 12.5844 29.0323 12.1421C29.0323 11.6034 29.0664 11.6431 26.3163 8.88162C24.6095 7.17485 23.6512 6.25058 23.4981 6.17687C23.2089 6.03511 22.7836 6.03511 22.4831 6.1712Z" fill="#80C5DD"/>
</svg>
