<svg width="1261" height="823" viewBox="0 0 1261 823" fill="none" xmlns="http://www.w3.org/2000/svg">
<g opacity="0.6">
<g clip-path="url(#clip0_20_2)">
<rect x="55" y="71" width="1206" height="752" rx="74" fill="url(#paint0_linear_20_2)"/>
<path d="M926.433 414.664C931.007 425.736 943.69 431.002 954.761 426.428C965.832 421.854 971.099 409.171 966.525 398.1C961.951 387.029 949.268 381.762 938.197 386.336C927.126 390.91 921.859 403.593 926.433 414.664ZM954.498 403.069C956.327 407.498 954.221 412.571 949.792 414.401C945.364 416.23 940.291 414.124 938.461 409.695C936.631 405.267 938.738 400.194 943.166 398.364C947.595 396.534 952.668 398.641 954.498 403.069Z" fill="white"/>
<rect width="61.0791" height="12.394" rx="6.197" transform="matrix(-0.924224 0.381851 0.381851 0.924224 1014.75 371.098)" fill="white"/>
<path d="M906.282 472.456C910.856 483.527 923.539 488.794 934.61 484.22C945.681 479.646 950.948 466.963 946.374 455.892C941.8 444.821 929.117 439.554 918.046 444.128C906.975 448.702 901.708 461.385 906.282 472.456ZM934.346 460.861C936.176 465.29 934.069 470.363 929.641 472.193C925.212 474.022 920.139 471.916 918.31 467.487C916.48 463.059 918.587 457.986 923.015 456.156C927.444 454.326 932.517 456.433 934.346 460.861Z" fill="white"/>
<rect width="367.193" height="12.394" rx="6.197" transform="matrix(-0.924224 0.381851 0.381851 0.924224 1277.52 312.001)" fill="white"/>
<path d="M993.051 480.294C997.625 491.365 1010.31 496.632 1021.38 492.058C1032.45 487.484 1037.72 474.801 1033.14 463.73C1028.57 452.658 1015.89 447.392 1004.81 451.966C993.743 456.54 988.477 469.223 993.051 480.294ZM1021.12 468.699C1022.94 473.127 1020.84 478.2 1016.41 480.03C1011.98 481.86 1006.91 479.753 1005.08 475.325C1003.25 470.896 1005.36 465.823 1009.78 463.993C1014.21 462.164 1019.29 464.27 1021.12 468.699Z" fill="white"/>
<rect width="52.0946" height="12.394" rx="6.197" transform="matrix(-0.924224 0.381851 0.381851 0.924224 1073.06 440.159)" fill="white"/>
<rect width="67.9702" height="12.394" rx="6.197" transform="matrix(-0.392833 0.91961 0.91961 0.392833 1088.69 388.154)" fill="white"/>
<rect width="72" height="12" rx="6" transform="matrix(0.914191 0.405283 0.405283 -0.914191 1003.56 382.096)" fill="white"/>
<path d="M718.36 690.62C709.16 683.491 707.75 681.212 701.593 648.685C696.364 621.059 684.903 612.47 670.67 607.979C671.46 606.276 671.932 604.392 671.932 602.387C671.932 598.837 670.517 595.432 667.998 592.921C665.479 590.41 662.062 589 658.5 589C654.937 589 651.521 590.41 649.002 592.921C646.483 595.432 645.068 598.837 645.068 602.387C645.068 604.392 645.54 606.272 646.329 607.979C632.101 612.473 620.635 621.062 615.406 648.685C609.25 681.212 607.843 683.491 598.643 690.616C589.138 697.98 589.443 714.934 602.09 714.934H640.14C640.286 724.936 648.435 733 658.5 733C668.565 733 676.718 724.933 676.859 714.937H714.906C727.556 714.937 727.862 697.977 718.36 690.62Z" stroke="#FFBE00" stroke-width="10" stroke-linecap="round" stroke-linejoin="round"/>
<rect width="103" height="18" rx="9" transform="matrix(-1 2.8059e-09 2.8059e-09 1 129 642)" fill="white"/>
<rect width="172" height="18" rx="9" transform="matrix(-1 2.8059e-09 2.8059e-09 1 198 500)" fill="white"/>
<rect width="317" height="18" rx="9" transform="matrix(-1 2.8059e-09 2.8059e-09 1 817 785)" fill="white"/>
<rect width="287" height="18" rx="9" transform="matrix(-1 2.8059e-09 2.8059e-09 1 313 571)" fill="white"/>
<path d="M55 215L658 447" stroke="white" stroke-width="20" stroke-linecap="round"/>
<path d="M657.641 447L1260.64 215" stroke="white" stroke-width="20" stroke-linecap="round"/>
<path d="M518 361L658 414" stroke="#FBBC05" stroke-width="20" stroke-linecap="round"/>
<path d="M657.641 414L797 361" stroke="#FBBC05" stroke-width="20" stroke-linecap="round"/>
<path d="M619.605 582.179C593.692 594.407 581.119 616.586 585.829 642.476" stroke="#FFBE00" stroke-width="10" stroke-linecap="round"/>
<path d="M731.337 641.385C734.097 612.865 721.479 590.711 696.826 581.506" stroke="#FFBE00" stroke-width="10" stroke-linecap="round"/>
</g>
</g>
<g clip-path="url(#clip1_20_2)">
<rect width="1206" height="752" rx="74" fill="url(#paint1_linear_20_2)"/>
<path d="M871.433 343.664C876.007 354.736 888.69 360.002 899.761 355.428C910.832 350.854 916.099 338.171 911.525 327.1C906.951 316.029 894.268 310.762 883.197 315.336C872.126 319.91 866.859 332.593 871.433 343.664ZM899.498 332.069C901.327 336.498 899.221 341.571 894.792 343.401C890.364 345.23 885.291 343.124 883.461 338.695C881.631 334.267 883.738 329.194 888.166 327.364C892.595 325.534 897.668 327.641 899.498 332.069Z" fill="white"/>
<rect width="61.0791" height="12.394" rx="6.197" transform="matrix(-0.924224 0.381851 0.381851 0.924224 959.751 300.098)" fill="white"/>
<path d="M851.282 401.456C855.856 412.527 868.539 417.794 879.61 413.22C890.681 408.646 895.948 395.963 891.374 384.892C886.8 373.821 874.117 368.554 863.046 373.128C851.975 377.702 846.708 390.385 851.282 401.456ZM879.347 389.861C881.176 394.29 879.069 399.363 874.641 401.193C870.213 403.022 865.139 400.916 863.31 396.487C861.48 392.059 863.587 386.986 868.015 385.156C872.444 383.326 877.517 385.433 879.347 389.861Z" fill="white"/>
<rect width="367.193" height="12.394" rx="6.197" transform="matrix(-0.924224 0.381851 0.381851 0.924224 1222.52 241.001)" fill="white"/>
<path d="M938.051 409.294C942.625 420.365 955.308 425.632 966.379 421.058C977.45 416.484 982.717 403.801 978.143 392.73C973.569 381.658 960.886 376.392 949.815 380.966C938.743 385.54 933.477 398.223 938.051 409.294ZM966.115 397.699C967.945 402.127 965.838 407.2 961.41 409.03C956.981 410.86 951.908 408.753 950.078 404.325C948.249 399.896 950.355 394.823 954.784 392.993C959.212 391.164 964.285 393.27 966.115 397.699Z" fill="white"/>
<rect width="52.0946" height="12.394" rx="6.197" transform="matrix(-0.924224 0.381851 0.381851 0.924224 1018.06 369.159)" fill="white"/>
<rect width="67.9702" height="12.394" rx="6.197" transform="matrix(-0.392833 0.91961 0.91961 0.392833 1033.69 317.154)" fill="white"/>
<rect width="72" height="12" rx="6" transform="matrix(0.914191 0.405283 0.405283 -0.914191 948.555 311.096)" fill="white"/>
<rect width="103" height="18" rx="9" transform="matrix(-1 2.8059e-09 2.8059e-09 1 74 571)" fill="white"/>
<rect width="172" height="18" rx="9" transform="matrix(-1 2.8059e-09 2.8059e-09 1 143 429)" fill="white"/>
<rect width="317" height="18" rx="9" transform="matrix(-1 2.8059e-09 2.8059e-09 1 762 714)" fill="white"/>
<rect width="287" height="18" rx="9" transform="matrix(-1 2.8059e-09 2.8059e-09 1 258 500)" fill="white"/>
<path d="M0 144L603 376" stroke="white" stroke-width="20" stroke-linecap="round"/>
<path d="M602.641 376L1205.64 144" stroke="white" stroke-width="20" stroke-linecap="round"/>
<path d="M463 290L603 343" stroke="#FBBC05" stroke-width="20" stroke-linecap="round"/>
<path d="M602.641 343L742 290" stroke="#FBBC05" stroke-width="20" stroke-linecap="round"/>
<path d="M663.36 619.62C654.16 612.491 652.75 610.212 646.593 577.685C641.364 550.059 629.903 541.47 615.67 536.979C616.46 535.276 616.932 533.392 616.932 531.387C616.932 527.837 615.517 524.432 612.998 521.921C610.479 519.41 607.062 518 603.5 518C599.937 518 596.521 519.41 594.002 521.921C591.483 524.432 590.068 527.837 590.068 531.387C590.068 533.392 590.54 535.272 591.329 536.979C577.101 541.473 565.635 550.062 560.406 577.685C554.25 610.212 552.843 612.491 543.643 619.616C534.138 626.98 534.443 643.934 547.09 643.934H585.14C585.286 653.936 593.435 662 603.5 662C613.565 662 621.718 653.933 621.859 643.937H659.906C672.556 643.937 672.862 626.977 663.36 619.62Z" stroke="#FFBE00" stroke-width="10" stroke-linecap="round" stroke-linejoin="round"/>
<path d="M564.605 511.179C538.692 523.407 526.119 545.586 530.829 571.476" stroke="#FFBE00" stroke-width="10" stroke-linecap="round"/>
<path d="M676.337 570.385C679.097 541.865 666.479 519.711 641.826 510.506" stroke="#FFBE00" stroke-width="10" stroke-linecap="round"/>
</g>
<defs>
<linearGradient id="paint0_linear_20_2" x1="55" y1="447" x2="1261" y2="447" gradientUnits="userSpaceOnUse">
<stop stop-color="#081956"/>
<stop offset="1" stop-color="#80C5DD"/>
</linearGradient>
<linearGradient id="paint1_linear_20_2" x1="0" y1="376" x2="1206" y2="376" gradientUnits="userSpaceOnUse">
<stop stop-color="#081956"/>
<stop offset="1" stop-color="#80C5DD"/>
</linearGradient>
<clipPath id="clip0_20_2">
<rect width="1206" height="752" fill="white" transform="translate(55 71)"/>
</clipPath>
<clipPath id="clip1_20_2">
<rect width="1206" height="752" fill="white"/>
</clipPath>
</defs>
</svg>
