<svg width="27" height="30" viewBox="0 0 27 30" fill="none" xmlns="http://www.w3.org/2000/svg">
<path d="M0.0296031 24.7916L0.034335 21.875L3.28433 21.8802L3.30089 11.6719C3.30417 9.65457 3.98416 7.86289 5.34087 6.29689C6.69757 4.73187 8.45965 3.70806 10.6271 3.22546L10.6288 2.20463C10.6297 1.597 10.8678 1.08113 11.343 0.65704C11.8171 0.231975 12.3927 0.0199923 13.0698 0.0210907C13.7469 0.0221892 14.3218 0.236039 14.7945 0.66264C15.2683 1.08827 15.5047 1.6049 15.5038 2.21254L15.5021 3.23337C17.668 3.723 19.4267 4.75252 20.7783 6.32194C22.13 7.89233 22.8041 9.6862 22.8009 11.7036L22.7843 21.9119L26.0343 21.9172L26.0296 24.8338L0.0296031 24.7916ZM13.0225 29.1877C12.1287 29.1863 11.3644 28.8997 10.7294 28.328C10.0933 27.7553 9.77592 27.0679 9.77722 26.2658L16.2772 26.2763C16.2759 27.0784 15.9568 27.7648 15.32 28.3354C14.6821 28.9051 13.9162 29.1892 13.0225 29.1877Z" fill="#80C5DD"/>
</svg>
