<svg width="21" height="26" viewBox="0 0 21 26" fill="none" xmlns="http://www.w3.org/2000/svg">
<path d="M2.625 26C1.90313 26 1.28494 25.7573 0.770439 25.272C0.255939 24.7867 -0.000872771 24.2039 2.22835e-06 23.5238V11.1429C2.22835e-06 10.4619 0.257252 9.87876 0.771752 9.39343C1.28625 8.9081 1.904 8.66584 2.625 8.66667H3.9375V6.19048C3.9375 4.47778 4.57756 3.01765 5.85769 1.8101C7.13781 0.60254 8.68525 -0.000824551 10.5 8.45694e-07C12.3156 8.45694e-07 13.8635 0.603779 15.1436 1.81133C16.4237 3.01889 17.0634 4.4786 17.0625 6.19048V8.66667H18.375C19.0969 8.66667 19.7151 8.90933 20.2296 9.39467C20.7441 9.88 21.0009 10.4627 21 11.1429V23.5238C21 24.2048 20.7427 24.7879 20.2282 25.2732C19.7137 25.7586 19.096 26.0008 18.375 26H2.625ZM10.5 19.8095C11.2219 19.8095 11.8401 19.5669 12.3546 19.0815C12.8691 18.5962 13.1259 18.0135 13.125 17.3333C13.125 16.6524 12.8677 16.0692 12.3532 15.5839C11.8387 15.0986 11.221 14.8563 10.5 14.8571C9.77812 14.8571 9.15994 15.0998 8.64544 15.5851C8.13094 16.0705 7.87413 16.6532 7.875 17.3333C7.875 18.0143 8.13225 18.5974 8.64675 19.0828C9.16125 19.5681 9.779 19.8103 10.5 19.8095ZM6.5625 8.66667H14.4375V6.19048C14.4375 5.15873 14.0547 4.28175 13.2891 3.55952C12.5234 2.8373 11.5937 2.47619 10.5 2.47619C9.40625 2.47619 8.47656 2.8373 7.71094 3.55952C6.94531 4.28175 6.5625 5.15873 6.5625 6.19048V8.66667Z" fill="#7FC3DC"/>
</svg>
