<svg width="26" height="26" viewBox="0 0 26 26" fill="none" xmlns="http://www.w3.org/2000/svg">
<path d="M16.991 12.025L15.821 13.221C14.885 14.157 14.3 14.95 14.3 16.9H11.7V16.25C11.7 14.807 12.285 13.507 13.221 12.571L14.833 10.933C15.314 10.465 15.6 9.815 15.6 9.1C15.6 8.41044 15.3261 7.74912 14.8385 7.26152C14.3509 6.77393 13.6896 6.5 13 6.5C12.3104 6.5 11.6491 6.77393 11.1615 7.26152C10.6739 7.74912 10.4 8.41044 10.4 9.1H7.8C7.8 7.72087 8.34785 6.39823 9.32304 5.42304C10.2982 4.44785 11.6209 3.9 13 3.9C14.3791 3.9 15.7018 4.44785 16.677 5.42304C17.6521 6.39823 18.2 7.72087 18.2 9.1C18.1981 10.1962 17.7636 11.2474 16.991 12.025ZM14.3 22.1H11.7V19.5H14.3M13 0C11.2928 0 9.60235 0.336255 8.02512 0.989566C6.44788 1.64288 5.01477 2.60045 3.80761 3.80761C1.36964 6.24558 0 9.55219 0 13C0 16.4478 1.36964 19.7544 3.80761 22.1924C5.01477 23.3995 6.44788 24.3571 8.02512 25.0104C9.60235 25.6637 11.2928 26 13 26C16.4478 26 19.7544 24.6304 22.1924 22.1924C24.6304 19.7544 26 16.4478 26 13C26 5.811 20.15 0 13 0Z" fill="#80C5DD"/>
</svg>
