<svg width="30" height="30" viewBox="0 0 30 30" fill="none" xmlns="http://www.w3.org/2000/svg">
<path fill-rule="evenodd" clip-rule="evenodd" d="M4.74923 29.9465C4.47448 29.9184 4.20093 29.8789 3.92923 29.8281C3.72968 29.7909 3.54308 29.6997 3.3882 29.5637C3.23333 29.4276 3.11566 29.2516 3.04703 29.0532C2.9784 28.8548 2.96124 28.6411 2.99728 28.4337C3.03331 28.2262 3.12128 28.0323 3.25231 27.8714C3.88347 27.0976 4.31449 26.1693 4.50462 25.174C4.54 24.9901 4.47077 24.6669 4.11385 24.3053C1.57538 21.7375 0 18.2546 0 14.3989C0 6.3515 6.81231 0 15 0C23.1877 0 30 6.3515 30 14.3989C30 22.4462 23.1877 28.7978 15 28.7978C13.7185 28.7978 12.4723 28.6426 11.2815 28.3514C9.33515 29.6234 7.03663 30.1847 4.74923 29.9465Z" fill="#E35951"/>
<path fill-rule="evenodd" clip-rule="evenodd" d="M15.3756 16.5766L20.2652 21.4661C20.4282 21.6236 20.6465 21.7107 20.8732 21.7087C21.0998 21.7068 21.3166 21.6159 21.4768 21.4556C21.6371 21.2953 21.728 21.0786 21.73 20.8519C21.7319 20.6253 21.6448 20.407 21.4874 20.2439L16.5978 15.3544L21.4874 10.4648C21.6448 10.3018 21.7319 10.0835 21.73 9.85683C21.728 9.6302 21.6371 9.41342 21.4768 9.25316C21.3166 9.0929 21.0998 9.002 20.8732 9.00003C20.6465 8.99806 20.4282 9.08518 20.2652 9.24263L15.3756 14.1322L10.486 9.24263C10.3223 9.08908 10.1052 9.00525 9.88078 9.0089C9.65632 9.01254 9.44209 9.10337 9.28342 9.26216C9.12474 9.42095 9.03406 9.63524 9.03058 9.8597C9.02709 10.0842 9.11107 10.3012 9.26474 10.4648L14.1534 15.3544L9.26387 20.2439C9.18132 20.3237 9.11547 20.4191 9.07017 20.5245C9.02487 20.63 9.00103 20.7434 9.00003 20.8581C8.99904 20.9729 9.0209 21.0867 9.06436 21.193C9.10782 21.2992 9.172 21.3957 9.25316 21.4768C9.33431 21.558 9.43082 21.6222 9.53704 21.6656C9.64327 21.7091 9.75708 21.731 9.87185 21.73C9.98662 21.729 10.1 21.7051 10.2055 21.6598C10.3109 21.6145 10.4063 21.5487 10.486 21.4661L15.3756 16.5766Z" fill="#F8F8F8"/>
</svg>
