<svg width="42" height="42" viewBox="0 0 42 42" fill="none" xmlns="http://www.w3.org/2000/svg">
<rect x="1" y="1" width="40" height="40" rx="9" fill="#F9F9F9" stroke="#081956" stroke-width="2"/>
<path d="M19.875 27.8875L13.275 21.2875C13.175 21.1875 13.104 21.0791 13.062 20.9625C13.02 20.8458 12.9993 20.7208 13 20.5875C13 20.4541 13.021 20.3291 13.063 20.2125C13.105 20.0958 13.1757 19.9875 13.275 19.8875L19.875 13.2875C20.0583 13.1041 20.2877 13.0085 20.563 13.0005C20.8383 12.9925 21.0757 13.0881 21.275 13.2875C21.475 13.4708 21.5793 13.7001 21.588 13.9755C21.5967 14.2508 21.5007 14.4881 21.3 14.6875L16.4 19.5875H27.575C27.8583 19.5875 28.096 19.6835 28.288 19.8755C28.48 20.0675 28.5757 20.3048 28.575 20.5875C28.575 20.8708 28.4793 21.1085 28.288 21.3005C28.0967 21.4925 27.859 21.5881 27.575 21.5875H16.4L21.3 26.4875C21.4833 26.6708 21.5793 26.9041 21.588 27.1875C21.5967 27.4708 21.5007 27.7041 21.3 27.8875C21.1167 28.0875 20.8833 28.1875 20.6 28.1875C20.3167 28.1875 20.075 28.0875 19.875 27.8875Z" fill="#081956"/>
</svg>
