<svg width="30" height="30" viewBox="0 0 30 30" fill="none" xmlns="http://www.w3.org/2000/svg">
<rect width="30" height="30" rx="10" fill="#80C5DD"/>
<path d="M23.25 10H20.7241C20.4161 8.5625 19.1839 7.5 17.7054 7.5C16.2268 7.5 14.9946 8.5625 14.6866 10H6V11.25H14.6866C14.9946 12.6875 16.2268 13.75 17.7054 13.75C19.1839 13.75 20.4161 12.6875 20.7241 11.25H23.25V10ZM17.7054 12.5C16.658 12.5 15.8571 11.6875 15.8571 10.625C15.8571 9.5625 16.658 8.75 17.7054 8.75C18.7527 8.75 19.5536 9.5625 19.5536 10.625C19.5536 11.6875 18.7527 12.5 17.7054 12.5ZM6 20H8.52589C8.83393 21.4375 10.0661 22.5 11.5446 22.5C13.0232 22.5 14.2554 21.4375 14.5634 20H23.25V18.75H14.5634C14.2554 17.3125 13.0232 16.25 11.5446 16.25C10.0661 16.25 8.83393 17.3125 8.52589 18.75H6V20ZM11.5446 17.5C12.592 17.5 13.3929 18.3125 13.3929 19.375C13.3929 20.4375 12.592 21.25 11.5446 21.25C10.4973 21.25 9.69643 20.4375 9.69643 19.375C9.69643 18.3125 10.4973 17.5 11.5446 17.5Z" fill="#081956"/>
</svg>
