<svg width="26" height="26" viewBox="0 0 26 26" fill="none" xmlns="http://www.w3.org/2000/svg">
<path d="M13 16.835L16.6075 19.565C16.8675 19.76 17.1275 19.7708 17.3875 19.5975C17.6475 19.4242 17.7233 19.1858 17.615 18.8825L16.25 14.365L19.7925 11.83C20.0525 11.6567 20.134 11.4183 20.0369 11.115C19.9398 10.8117 19.7284 10.66 19.4025 10.66H15.08L13.6175 5.915C13.5092 5.61167 13.3033 5.46 13 5.46C12.6967 5.46 12.4908 5.61167 12.3825 5.915L10.92 10.66H6.5975C6.2725 10.66 6.06103 10.8117 5.9631 11.115C5.86517 11.4183 5.94663 11.6567 6.2075 11.83L9.75 14.365L8.385 18.8825C8.27667 19.1858 8.3525 19.4242 8.6125 19.5975C8.8725 19.7708 9.1325 19.76 9.3925 19.565L13 16.835ZM13 26C11.2017 26 9.51167 25.6585 7.93 24.9756C6.34833 24.2927 4.9725 23.3666 3.8025 22.1975C2.6325 21.0275 1.70647 19.6517 1.0244 18.07C0.342333 16.4883 0.000866667 14.7983 0 13C0 11.2017 0.341467 9.51167 1.0244 7.93C1.70733 6.34833 2.63337 4.9725 3.8025 3.8025C4.9725 2.6325 6.34833 1.70647 7.93 1.0244C9.51167 0.342333 11.2017 0.000866667 13 0C14.7983 0 16.4883 0.341467 18.07 1.0244C19.6517 1.70733 21.0275 2.63337 22.1975 3.8025C23.3675 4.9725 24.294 6.34833 24.9769 7.93C25.6598 9.51167 26.0009 11.2017 26 13C26 14.7983 25.6585 16.4883 24.9756 18.07C24.2927 19.6517 23.3666 21.0275 22.1975 22.1975C21.0275 23.3675 19.6517 24.294 18.07 24.9769C16.4883 25.6598 14.7983 26.0009 13 26Z" fill="#80C5DD"/>
</svg>
