<svg width="60" height="60" viewBox="0 0 60 60" fill="none" xmlns="http://www.w3.org/2000/svg">
<path d="M25.8 35.4L19.275 28.875C18.725 28.325 18.05 28.05 17.25 28.05C16.45 28.05 15.75 28.35 15.15 28.95C14.6 29.5 14.325 30.2 14.325 31.05C14.325 31.9 14.6 32.6 15.15 33.15L23.7 41.7C24.25 42.25 24.95 42.525 25.8 42.525C26.65 42.525 27.35 42.25 27.9 41.7L44.925 24.675C45.475 24.125 45.75 23.45 45.75 22.65C45.75 21.85 45.45 21.15 44.85 20.55C44.3 20 43.6 19.725 42.75 19.725C41.9 19.725 41.2 20 40.65 20.55L25.8 35.4ZM30 60C25.85 60 21.95 59.212 18.3 57.636C14.65 56.06 11.475 53.923 8.775 51.225C6.075 48.525 3.938 45.35 2.364 41.7C0.79 38.05 0.002 34.15 0 30C0 25.85 0.788 21.95 2.364 18.3C3.94 14.65 6.077 11.475 8.775 8.775C11.475 6.075 14.65 3.938 18.3 2.364C21.95 0.79 25.85 0.002 30 0C34.15 0 38.05 0.788 41.7 2.364C45.35 3.94 48.525 6.077 51.225 8.775C53.925 11.475 56.063 14.65 57.639 18.3C59.215 21.95 60.002 25.85 60 30C60 34.15 59.212 38.05 57.636 41.7C56.06 45.35 53.923 48.525 51.225 51.225C48.525 53.925 45.35 56.063 41.7 57.639C38.05 59.215 34.15 60.002 30 60Z" fill="#FBBC05"/>
</svg>
